%FSLAX45Y45*%
G04 Gerber Fmt 4.5, Leading zero omitted, Abs format (unit mm)*
G04 Created by KiCad (PCBNEW (5.1.5)-3) date 2021-09-12 14:12:53*
%MOMM*%
%LPD*%
G04 APERTURE LIST*
%TA.AperFunction,Profile*%
%ADD10C,0.050000*%
%TD*%
%ADD11C,0.200000*%
%ADD12C,0.300000*%
G04 APERTURE END LIST*
D10*
X6938000Y-9548000D02*
X6938000Y-6896000D01*
X10342000Y-6896000D02*
X6938000Y-6896000D01*
X10342000Y-9132000D02*
X10342000Y-6896000D01*
X11617000Y-10407000D02*
X10342000Y-9132000D01*
X18538000Y-10407000D02*
X11617000Y-10407000D01*
X18538000Y-14256000D02*
X18538000Y-10407000D01*
X18499000Y-14256000D02*
X18538000Y-14256000D01*
X11033000Y-14256000D02*
X18499000Y-14256000D01*
X10309000Y-15704000D02*
X4947000Y-15704000D01*
X10309000Y-14886000D02*
X10309000Y-15704000D01*
X10939000Y-14256000D02*
X10309000Y-14886000D01*
X11033000Y-14256000D02*
X10939000Y-14256000D01*
X4947000Y-9548000D02*
X6938000Y-9548000D01*
X4947000Y-15704000D02*
X4947000Y-9548000D01*
D11*
X5855000Y-12237000D02*
X5895000Y-12277000D01*
X5895000Y-12237000D02*
X5855000Y-12277000D01*
X6313000Y-12070000D02*
X6353000Y-12110000D01*
X6353000Y-12070000D02*
X6313000Y-12110000D01*
X7065000Y-13656734D02*
X7105000Y-13696734D01*
X7105000Y-13656734D02*
X7065000Y-13696734D01*
X7067415Y-13274117D02*
X7107415Y-13314117D01*
X7107415Y-13274117D02*
X7067415Y-13314117D01*
X7109251Y-13047222D02*
X7149251Y-13087222D01*
X7149251Y-13047222D02*
X7109251Y-13087222D01*
X7116000Y-14029000D02*
X7156000Y-14069000D01*
X7156000Y-14029000D02*
X7116000Y-14069000D01*
X7742000Y-12049000D02*
X7782000Y-12089000D01*
X7782000Y-12049000D02*
X7742000Y-12089000D01*
X7749966Y-11885999D02*
X7789966Y-11925999D01*
X7789966Y-11885999D02*
X7749966Y-11925999D01*
X7754000Y-10313000D02*
X7794000Y-10353000D01*
X7794000Y-10313000D02*
X7754000Y-10353000D01*
X7903550Y-10277550D02*
X7943550Y-10317550D01*
X7943550Y-10277550D02*
X7903550Y-10317550D01*
X8005870Y-10238870D02*
X8045870Y-10278870D01*
X8045870Y-10238870D02*
X8005870Y-10278870D01*
X8034001Y-11994000D02*
X8074001Y-12034000D01*
X8074001Y-11994000D02*
X8034001Y-12034000D01*
X8224000Y-10935000D02*
X8264000Y-10975000D01*
X8264000Y-10935000D02*
X8224000Y-10975000D01*
X8316000Y-10290000D02*
X8356000Y-10330000D01*
X8356000Y-10290000D02*
X8316000Y-10330000D01*
X8332000Y-12955000D02*
X8372000Y-12995000D01*
X8372000Y-12955000D02*
X8332000Y-12995000D01*
X8425000Y-13516000D02*
X8465000Y-13556000D01*
X8465000Y-13516000D02*
X8425000Y-13556000D01*
X8710000Y-14500000D02*
X8750000Y-14540000D01*
X8750000Y-14500000D02*
X8710000Y-14540000D01*
X8770000Y-14262000D02*
X8810000Y-14302000D01*
X8810000Y-14262000D02*
X8770000Y-14302000D01*
X8817122Y-10681811D02*
X8857122Y-10721811D01*
X8857122Y-10681811D02*
X8817122Y-10721811D01*
X8820000Y-12862000D02*
X8860000Y-12902000D01*
X8860000Y-12862000D02*
X8820000Y-12902000D01*
X8903000Y-13704000D02*
X8943000Y-13744000D01*
X8943000Y-13704000D02*
X8903000Y-13744000D01*
X8947998Y-12955000D02*
X8987998Y-12995000D01*
X8987998Y-12955000D02*
X8947998Y-12995000D01*
X8960499Y-10731871D02*
X9000499Y-10771871D01*
X9000499Y-10731871D02*
X8960499Y-10771871D01*
X8973499Y-9949778D02*
X9013499Y-9989778D01*
X9013499Y-9949778D02*
X8973499Y-9989778D01*
X9002000Y-11415000D02*
X9042000Y-11455000D01*
X9042000Y-11415000D02*
X9002000Y-11455000D01*
X9046000Y-10654000D02*
X9086000Y-10694000D01*
X9086000Y-10654000D02*
X9046000Y-10694000D01*
X9200000Y-13429000D02*
X9240000Y-13469000D01*
X9240000Y-13429000D02*
X9200000Y-13469000D01*
X9235000Y-13049000D02*
X9275000Y-13089000D01*
X9275000Y-13049000D02*
X9235000Y-13089000D01*
X9274000Y-13196000D02*
X9314000Y-13236000D01*
X9314000Y-13196000D02*
X9274000Y-13236000D01*
X5258200Y-10454000D02*
G75*
G03X5258200Y-10454000I-40000J0D01*
G01*
X5258200Y-10708000D02*
G75*
G03X5258200Y-10708000I-40000J0D01*
G01*
X5258200Y-10962000D02*
G75*
G03X5258200Y-10962000I-40000J0D01*
G01*
X5258200Y-11216000D02*
G75*
G03X5258200Y-11216000I-40000J0D01*
G01*
X5258200Y-11470000D02*
G75*
G03X5258200Y-11470000I-40000J0D01*
G01*
X5258200Y-11724000D02*
G75*
G03X5258200Y-11724000I-40000J0D01*
G01*
X5258200Y-11978000D02*
G75*
G03X5258200Y-11978000I-40000J0D01*
G01*
X5258200Y-12232000D02*
G75*
G03X5258200Y-12232000I-40000J0D01*
G01*
X5258200Y-12486000D02*
G75*
G03X5258200Y-12486000I-40000J0D01*
G01*
X5258200Y-12740000D02*
G75*
G03X5258200Y-12740000I-40000J0D01*
G01*
X5258200Y-12994000D02*
G75*
G03X5258200Y-12994000I-40000J0D01*
G01*
X5258200Y-13248000D02*
G75*
G03X5258200Y-13248000I-40000J0D01*
G01*
X5258200Y-13502000D02*
G75*
G03X5258200Y-13502000I-40000J0D01*
G01*
X5258200Y-13756000D02*
G75*
G03X5258200Y-13756000I-40000J0D01*
G01*
X5258200Y-14010000D02*
G75*
G03X5258200Y-14010000I-40000J0D01*
G01*
X5258200Y-14264000D02*
G75*
G03X5258200Y-14264000I-40000J0D01*
G01*
X5258200Y-14518000D02*
G75*
G03X5258200Y-14518000I-40000J0D01*
G01*
X5258200Y-14772000D02*
G75*
G03X5258200Y-14772000I-40000J0D01*
G01*
X5258200Y-15026000D02*
G75*
G03X5258200Y-15026000I-40000J0D01*
G01*
X5258200Y-15280000D02*
G75*
G03X5258200Y-15280000I-40000J0D01*
G01*
X6782200Y-10454000D02*
G75*
G03X6782200Y-10454000I-40000J0D01*
G01*
X6782200Y-10708000D02*
G75*
G03X6782200Y-10708000I-40000J0D01*
G01*
X6782200Y-10962000D02*
G75*
G03X6782200Y-10962000I-40000J0D01*
G01*
X6782200Y-11216000D02*
G75*
G03X6782200Y-11216000I-40000J0D01*
G01*
X6782200Y-11470000D02*
G75*
G03X6782200Y-11470000I-40000J0D01*
G01*
X6782200Y-11724000D02*
G75*
G03X6782200Y-11724000I-40000J0D01*
G01*
X6782200Y-11978000D02*
G75*
G03X6782200Y-11978000I-40000J0D01*
G01*
X6782200Y-12232000D02*
G75*
G03X6782200Y-12232000I-40000J0D01*
G01*
X6782200Y-12486000D02*
G75*
G03X6782200Y-12486000I-40000J0D01*
G01*
X6782200Y-12740000D02*
G75*
G03X6782200Y-12740000I-40000J0D01*
G01*
X6782200Y-12994000D02*
G75*
G03X6782200Y-12994000I-40000J0D01*
G01*
X6782200Y-13248000D02*
G75*
G03X6782200Y-13248000I-40000J0D01*
G01*
X6782200Y-13502000D02*
G75*
G03X6782200Y-13502000I-40000J0D01*
G01*
X6782200Y-13756000D02*
G75*
G03X6782200Y-13756000I-40000J0D01*
G01*
X6782200Y-14010000D02*
G75*
G03X6782200Y-14010000I-40000J0D01*
G01*
X6782200Y-14264000D02*
G75*
G03X6782200Y-14264000I-40000J0D01*
G01*
X6782200Y-14518000D02*
G75*
G03X6782200Y-14518000I-40000J0D01*
G01*
X6782200Y-14772000D02*
G75*
G03X6782200Y-14772000I-40000J0D01*
G01*
X6782200Y-15026000D02*
G75*
G03X6782200Y-15026000I-40000J0D01*
G01*
X6782200Y-15280000D02*
G75*
G03X6782200Y-15280000I-40000J0D01*
G01*
X10377800Y-11430000D02*
G75*
G03X10377800Y-11430000I-40000J0D01*
G01*
X10377800Y-13716000D02*
G75*
G03X10377800Y-13716000I-40000J0D01*
G01*
X10631800Y-11430000D02*
G75*
G03X10631800Y-11430000I-40000J0D01*
G01*
X10631800Y-13716000D02*
G75*
G03X10631800Y-13716000I-40000J0D01*
G01*
X10885800Y-11430000D02*
G75*
G03X10885800Y-11430000I-40000J0D01*
G01*
X10885800Y-13716000D02*
G75*
G03X10885800Y-13716000I-40000J0D01*
G01*
X11139800Y-11430000D02*
G75*
G03X11139800Y-11430000I-40000J0D01*
G01*
X11139800Y-13716000D02*
G75*
G03X11139800Y-13716000I-40000J0D01*
G01*
X11393800Y-11430000D02*
G75*
G03X11393800Y-11430000I-40000J0D01*
G01*
X11393800Y-13716000D02*
G75*
G03X11393800Y-13716000I-40000J0D01*
G01*
X11647800Y-11430000D02*
G75*
G03X11647800Y-11430000I-40000J0D01*
G01*
X11647800Y-13716000D02*
G75*
G03X11647800Y-13716000I-40000J0D01*
G01*
X11901800Y-11430000D02*
G75*
G03X11901800Y-11430000I-40000J0D01*
G01*
X11901800Y-13716000D02*
G75*
G03X11901800Y-13716000I-40000J0D01*
G01*
X12155800Y-11430000D02*
G75*
G03X12155800Y-11430000I-40000J0D01*
G01*
X12155800Y-13716000D02*
G75*
G03X12155800Y-13716000I-40000J0D01*
G01*
X12409800Y-11430000D02*
G75*
G03X12409800Y-11430000I-40000J0D01*
G01*
X12409800Y-13716000D02*
G75*
G03X12409800Y-13716000I-40000J0D01*
G01*
X12663800Y-11430000D02*
G75*
G03X12663800Y-11430000I-40000J0D01*
G01*
X12663800Y-13716000D02*
G75*
G03X12663800Y-13716000I-40000J0D01*
G01*
X12917800Y-11430000D02*
G75*
G03X12917800Y-11430000I-40000J0D01*
G01*
X12917800Y-13716000D02*
G75*
G03X12917800Y-13716000I-40000J0D01*
G01*
X13171800Y-11430000D02*
G75*
G03X13171800Y-11430000I-40000J0D01*
G01*
X13171800Y-13716000D02*
G75*
G03X13171800Y-13716000I-40000J0D01*
G01*
X13425800Y-11430000D02*
G75*
G03X13425800Y-11430000I-40000J0D01*
G01*
X13425800Y-13716000D02*
G75*
G03X13425800Y-13716000I-40000J0D01*
G01*
X13679800Y-11430000D02*
G75*
G03X13679800Y-11430000I-40000J0D01*
G01*
X13679800Y-13716000D02*
G75*
G03X13679800Y-13716000I-40000J0D01*
G01*
X13933800Y-11430000D02*
G75*
G03X13933800Y-11430000I-40000J0D01*
G01*
X13933800Y-13716000D02*
G75*
G03X13933800Y-13716000I-40000J0D01*
G01*
X14187800Y-11430000D02*
G75*
G03X14187800Y-11430000I-40000J0D01*
G01*
X14187800Y-13716000D02*
G75*
G03X14187800Y-13716000I-40000J0D01*
G01*
X14441800Y-11430000D02*
G75*
G03X14441800Y-11430000I-40000J0D01*
G01*
X14441800Y-13716000D02*
G75*
G03X14441800Y-13716000I-40000J0D01*
G01*
X14695800Y-11430000D02*
G75*
G03X14695800Y-11430000I-40000J0D01*
G01*
X14695800Y-13716000D02*
G75*
G03X14695800Y-13716000I-40000J0D01*
G01*
X14949800Y-11430000D02*
G75*
G03X14949800Y-11430000I-40000J0D01*
G01*
X14949800Y-13716000D02*
G75*
G03X14949800Y-13716000I-40000J0D01*
G01*
X15203800Y-11430000D02*
G75*
G03X15203800Y-11430000I-40000J0D01*
G01*
X15203800Y-13716000D02*
G75*
G03X15203800Y-13716000I-40000J0D01*
G01*
X15457800Y-11430000D02*
G75*
G03X15457800Y-11430000I-40000J0D01*
G01*
X15457800Y-13716000D02*
G75*
G03X15457800Y-13716000I-40000J0D01*
G01*
X15711800Y-11430000D02*
G75*
G03X15711800Y-11430000I-40000J0D01*
G01*
X15711800Y-13716000D02*
G75*
G03X15711800Y-13716000I-40000J0D01*
G01*
X15965800Y-11430000D02*
G75*
G03X15965800Y-11430000I-40000J0D01*
G01*
X15965800Y-13716000D02*
G75*
G03X15965800Y-13716000I-40000J0D01*
G01*
X16219800Y-11430000D02*
G75*
G03X16219800Y-11430000I-40000J0D01*
G01*
X16219800Y-13716000D02*
G75*
G03X16219800Y-13716000I-40000J0D01*
G01*
X16473800Y-11430000D02*
G75*
G03X16473800Y-11430000I-40000J0D01*
G01*
X16473800Y-13716000D02*
G75*
G03X16473800Y-13716000I-40000J0D01*
G01*
X16727800Y-11430000D02*
G75*
G03X16727800Y-11430000I-40000J0D01*
G01*
X16727800Y-13716000D02*
G75*
G03X16727800Y-13716000I-40000J0D01*
G01*
X16981800Y-11430000D02*
G75*
G03X16981800Y-11430000I-40000J0D01*
G01*
X16981800Y-13716000D02*
G75*
G03X16981800Y-13716000I-40000J0D01*
G01*
X17235800Y-11430000D02*
G75*
G03X17235800Y-11430000I-40000J0D01*
G01*
X17235800Y-13716000D02*
G75*
G03X17235800Y-13716000I-40000J0D01*
G01*
X17489800Y-11430000D02*
G75*
G03X17489800Y-11430000I-40000J0D01*
G01*
X17489800Y-13716000D02*
G75*
G03X17489800Y-13716000I-40000J0D01*
G01*
X17743800Y-11430000D02*
G75*
G03X17743800Y-11430000I-40000J0D01*
G01*
X17743800Y-13716000D02*
G75*
G03X17743800Y-13716000I-40000J0D01*
G01*
X17997800Y-11430000D02*
G75*
G03X17997800Y-11430000I-40000J0D01*
G01*
X17997800Y-13716000D02*
G75*
G03X17997800Y-13716000I-40000J0D01*
G01*
X18251800Y-11430000D02*
G75*
G03X18251800Y-11430000I-40000J0D01*
G01*
X18251800Y-13716000D02*
G75*
G03X18251800Y-13716000I-40000J0D01*
G01*
X7519800Y-7405000D02*
G75*
G03X7519800Y-7405000I-40000J0D01*
G01*
X7519800Y-7659000D02*
G75*
G03X7519800Y-7659000I-40000J0D01*
G01*
X7519800Y-7913000D02*
G75*
G03X7519800Y-7913000I-40000J0D01*
G01*
X7519800Y-8167000D02*
G75*
G03X7519800Y-8167000I-40000J0D01*
G01*
X7519800Y-8421000D02*
G75*
G03X7519800Y-8421000I-40000J0D01*
G01*
X7519800Y-8675000D02*
G75*
G03X7519800Y-8675000I-40000J0D01*
G01*
X7519800Y-8929000D02*
G75*
G03X7519800Y-8929000I-40000J0D01*
G01*
X7519800Y-9183000D02*
G75*
G03X7519800Y-9183000I-40000J0D01*
G01*
X7519800Y-9437000D02*
G75*
G03X7519800Y-9437000I-40000J0D01*
G01*
X7519800Y-9691000D02*
G75*
G03X7519800Y-9691000I-40000J0D01*
G01*
X7519800Y-9945000D02*
G75*
G03X7519800Y-9945000I-40000J0D01*
G01*
X7519800Y-10199000D02*
G75*
G03X7519800Y-10199000I-40000J0D01*
G01*
X7519800Y-10453000D02*
G75*
G03X7519800Y-10453000I-40000J0D01*
G01*
X7519800Y-10707000D02*
G75*
G03X7519800Y-10707000I-40000J0D01*
G01*
X7519800Y-10961000D02*
G75*
G03X7519800Y-10961000I-40000J0D01*
G01*
X7519800Y-11215000D02*
G75*
G03X7519800Y-11215000I-40000J0D01*
G01*
X7519800Y-11469000D02*
G75*
G03X7519800Y-11469000I-40000J0D01*
G01*
X7519800Y-11723000D02*
G75*
G03X7519800Y-11723000I-40000J0D01*
G01*
X7519800Y-11977000D02*
G75*
G03X7519800Y-11977000I-40000J0D01*
G01*
X7519800Y-12231000D02*
G75*
G03X7519800Y-12231000I-40000J0D01*
G01*
X7519800Y-12485000D02*
G75*
G03X7519800Y-12485000I-40000J0D01*
G01*
X7519800Y-12739000D02*
G75*
G03X7519800Y-12739000I-40000J0D01*
G01*
X7519800Y-12993000D02*
G75*
G03X7519800Y-12993000I-40000J0D01*
G01*
X7519800Y-13247000D02*
G75*
G03X7519800Y-13247000I-40000J0D01*
G01*
X7519800Y-13501000D02*
G75*
G03X7519800Y-13501000I-40000J0D01*
G01*
X7519800Y-13755000D02*
G75*
G03X7519800Y-13755000I-40000J0D01*
G01*
X7519800Y-14009000D02*
G75*
G03X7519800Y-14009000I-40000J0D01*
G01*
X7519800Y-14263000D02*
G75*
G03X7519800Y-14263000I-40000J0D01*
G01*
X7519800Y-14517000D02*
G75*
G03X7519800Y-14517000I-40000J0D01*
G01*
X7519800Y-14771000D02*
G75*
G03X7519800Y-14771000I-40000J0D01*
G01*
X7519800Y-15025000D02*
G75*
G03X7519800Y-15025000I-40000J0D01*
G01*
X7519800Y-15279000D02*
G75*
G03X7519800Y-15279000I-40000J0D01*
G01*
X9805800Y-7405000D02*
G75*
G03X9805800Y-7405000I-40000J0D01*
G01*
X9805800Y-7659000D02*
G75*
G03X9805800Y-7659000I-40000J0D01*
G01*
X9805800Y-7913000D02*
G75*
G03X9805800Y-7913000I-40000J0D01*
G01*
X9805800Y-8167000D02*
G75*
G03X9805800Y-8167000I-40000J0D01*
G01*
X9805800Y-8421000D02*
G75*
G03X9805800Y-8421000I-40000J0D01*
G01*
X9805800Y-8675000D02*
G75*
G03X9805800Y-8675000I-40000J0D01*
G01*
X9805800Y-8929000D02*
G75*
G03X9805800Y-8929000I-40000J0D01*
G01*
X9805800Y-9183000D02*
G75*
G03X9805800Y-9183000I-40000J0D01*
G01*
X9805800Y-9437000D02*
G75*
G03X9805800Y-9437000I-40000J0D01*
G01*
X9805800Y-9691000D02*
G75*
G03X9805800Y-9691000I-40000J0D01*
G01*
X9805800Y-9945000D02*
G75*
G03X9805800Y-9945000I-40000J0D01*
G01*
X9805800Y-10199000D02*
G75*
G03X9805800Y-10199000I-40000J0D01*
G01*
X9805800Y-10453000D02*
G75*
G03X9805800Y-10453000I-40000J0D01*
G01*
X9805800Y-10707000D02*
G75*
G03X9805800Y-10707000I-40000J0D01*
G01*
X9805800Y-10961000D02*
G75*
G03X9805800Y-10961000I-40000J0D01*
G01*
X9805800Y-11215000D02*
G75*
G03X9805800Y-11215000I-40000J0D01*
G01*
X9805800Y-11469000D02*
G75*
G03X9805800Y-11469000I-40000J0D01*
G01*
X9805800Y-11723000D02*
G75*
G03X9805800Y-11723000I-40000J0D01*
G01*
X9805800Y-11977000D02*
G75*
G03X9805800Y-11977000I-40000J0D01*
G01*
X9805800Y-12231000D02*
G75*
G03X9805800Y-12231000I-40000J0D01*
G01*
X9805800Y-12485000D02*
G75*
G03X9805800Y-12485000I-40000J0D01*
G01*
X9805800Y-12739000D02*
G75*
G03X9805800Y-12739000I-40000J0D01*
G01*
X9805800Y-12993000D02*
G75*
G03X9805800Y-12993000I-40000J0D01*
G01*
X9805800Y-13247000D02*
G75*
G03X9805800Y-13247000I-40000J0D01*
G01*
X9805800Y-13501000D02*
G75*
G03X9805800Y-13501000I-40000J0D01*
G01*
X9805800Y-13755000D02*
G75*
G03X9805800Y-13755000I-40000J0D01*
G01*
X9805800Y-14009000D02*
G75*
G03X9805800Y-14009000I-40000J0D01*
G01*
X9805800Y-14263000D02*
G75*
G03X9805800Y-14263000I-40000J0D01*
G01*
X9805800Y-14517000D02*
G75*
G03X9805800Y-14517000I-40000J0D01*
G01*
X9805800Y-14771000D02*
G75*
G03X9805800Y-14771000I-40000J0D01*
G01*
X9805800Y-15025000D02*
G75*
G03X9805800Y-15025000I-40000J0D01*
G01*
X9805800Y-15279000D02*
G75*
G03X9805800Y-15279000I-40000J0D01*
G01*
X5220000Y-9736000D02*
X5220000Y-9836000D01*
X5170000Y-9786000D02*
X5270000Y-9786000D01*
X5474000Y-9736000D02*
X5474000Y-9836000D01*
X5424000Y-9786000D02*
X5524000Y-9786000D01*
X5728000Y-9736000D02*
X5728000Y-9836000D01*
X5678000Y-9786000D02*
X5778000Y-9786000D01*
D12*
X5230928Y-16172214D02*
X5230928Y-15872214D01*
X5302357Y-15872214D01*
X5345214Y-15886500D01*
X5373786Y-15915071D01*
X5388071Y-15943643D01*
X5402357Y-16000786D01*
X5402357Y-16043643D01*
X5388071Y-16100786D01*
X5373786Y-16129357D01*
X5345214Y-16157929D01*
X5302357Y-16172214D01*
X5230928Y-16172214D01*
X5530928Y-16172214D02*
X5530928Y-15972214D01*
X5530928Y-16029357D02*
X5545214Y-16000786D01*
X5559500Y-15986500D01*
X5588071Y-15972214D01*
X5616643Y-15972214D01*
X5716643Y-16172214D02*
X5716643Y-15972214D01*
X5716643Y-15872214D02*
X5702357Y-15886500D01*
X5716643Y-15900786D01*
X5730928Y-15886500D01*
X5716643Y-15872214D01*
X5716643Y-15900786D01*
X5902357Y-16172214D02*
X5873786Y-16157929D01*
X5859500Y-16129357D01*
X5859500Y-15872214D01*
X6059500Y-16172214D02*
X6030928Y-16157929D01*
X6016643Y-16129357D01*
X6016643Y-15872214D01*
X6402357Y-16172214D02*
X6402357Y-15872214D01*
X6502357Y-16086500D01*
X6602357Y-15872214D01*
X6602357Y-16172214D01*
X6873786Y-16172214D02*
X6873786Y-16015071D01*
X6859500Y-15986500D01*
X6830928Y-15972214D01*
X6773786Y-15972214D01*
X6745214Y-15986500D01*
X6873786Y-16157929D02*
X6845214Y-16172214D01*
X6773786Y-16172214D01*
X6745214Y-16157929D01*
X6730928Y-16129357D01*
X6730928Y-16100786D01*
X6745214Y-16072214D01*
X6773786Y-16057929D01*
X6845214Y-16057929D01*
X6873786Y-16043643D01*
X7016643Y-15972214D02*
X7016643Y-16272214D01*
X7016643Y-15986500D02*
X7045214Y-15972214D01*
X7102357Y-15972214D01*
X7130928Y-15986500D01*
X7145214Y-16000786D01*
X7159500Y-16029357D01*
X7159500Y-16115071D01*
X7145214Y-16143643D01*
X7130928Y-16157929D01*
X7102357Y-16172214D01*
X7045214Y-16172214D01*
X7016643Y-16157929D01*
X7288071Y-16143643D02*
X7302357Y-16157929D01*
X7288071Y-16172214D01*
X7273786Y-16157929D01*
X7288071Y-16143643D01*
X7288071Y-16172214D01*
X7288071Y-15986500D02*
X7302357Y-16000786D01*
X7288071Y-16015071D01*
X7273786Y-16000786D01*
X7288071Y-15986500D01*
X7288071Y-16015071D01*
X4904500Y-16646500D02*
X4944500Y-16686500D01*
X4944500Y-16646500D02*
X4904500Y-16686500D01*
X5288071Y-16502214D02*
X5316643Y-16502214D01*
X5345214Y-16516500D01*
X5359500Y-16530786D01*
X5373786Y-16559357D01*
X5388071Y-16616500D01*
X5388071Y-16687929D01*
X5373786Y-16745071D01*
X5359500Y-16773643D01*
X5345214Y-16787929D01*
X5316643Y-16802214D01*
X5288071Y-16802214D01*
X5259500Y-16787929D01*
X5245214Y-16773643D01*
X5230928Y-16745071D01*
X5216643Y-16687929D01*
X5216643Y-16616500D01*
X5230928Y-16559357D01*
X5245214Y-16530786D01*
X5259500Y-16516500D01*
X5288071Y-16502214D01*
X5516643Y-16773643D02*
X5530928Y-16787929D01*
X5516643Y-16802214D01*
X5502357Y-16787929D01*
X5516643Y-16773643D01*
X5516643Y-16802214D01*
X5788071Y-16602214D02*
X5788071Y-16802214D01*
X5716643Y-16487929D02*
X5645214Y-16702214D01*
X5830928Y-16702214D01*
X6002357Y-16502214D02*
X6030928Y-16502214D01*
X6059500Y-16516500D01*
X6073786Y-16530786D01*
X6088071Y-16559357D01*
X6102357Y-16616500D01*
X6102357Y-16687929D01*
X6088071Y-16745071D01*
X6073786Y-16773643D01*
X6059500Y-16787929D01*
X6030928Y-16802214D01*
X6002357Y-16802214D01*
X5973786Y-16787929D01*
X5959500Y-16773643D01*
X5945214Y-16745071D01*
X5930928Y-16687929D01*
X5930928Y-16616500D01*
X5945214Y-16559357D01*
X5959500Y-16530786D01*
X5973786Y-16516500D01*
X6002357Y-16502214D01*
X6230928Y-16802214D02*
X6230928Y-16602214D01*
X6230928Y-16630786D02*
X6245214Y-16616500D01*
X6273786Y-16602214D01*
X6316643Y-16602214D01*
X6345214Y-16616500D01*
X6359500Y-16645071D01*
X6359500Y-16802214D01*
X6359500Y-16645071D02*
X6373786Y-16616500D01*
X6402357Y-16602214D01*
X6445214Y-16602214D01*
X6473786Y-16616500D01*
X6488071Y-16645071D01*
X6488071Y-16802214D01*
X6630928Y-16802214D02*
X6630928Y-16602214D01*
X6630928Y-16630786D02*
X6645214Y-16616500D01*
X6673786Y-16602214D01*
X6716643Y-16602214D01*
X6745214Y-16616500D01*
X6759500Y-16645071D01*
X6759500Y-16802214D01*
X6759500Y-16645071D02*
X6773786Y-16616500D01*
X6802357Y-16602214D01*
X6845214Y-16602214D01*
X6873786Y-16616500D01*
X6888071Y-16645071D01*
X6888071Y-16802214D01*
X7473786Y-16487929D02*
X7216643Y-16873643D01*
X7859500Y-16502214D02*
X7888071Y-16502214D01*
X7916643Y-16516500D01*
X7930928Y-16530786D01*
X7945214Y-16559357D01*
X7959500Y-16616500D01*
X7959500Y-16687929D01*
X7945214Y-16745071D01*
X7930928Y-16773643D01*
X7916643Y-16787929D01*
X7888071Y-16802214D01*
X7859500Y-16802214D01*
X7830928Y-16787929D01*
X7816643Y-16773643D01*
X7802357Y-16745071D01*
X7788071Y-16687929D01*
X7788071Y-16616500D01*
X7802357Y-16559357D01*
X7816643Y-16530786D01*
X7830928Y-16516500D01*
X7859500Y-16502214D01*
X8088071Y-16773643D02*
X8102357Y-16787929D01*
X8088071Y-16802214D01*
X8073786Y-16787929D01*
X8088071Y-16773643D01*
X8088071Y-16802214D01*
X8288071Y-16502214D02*
X8316643Y-16502214D01*
X8345214Y-16516500D01*
X8359500Y-16530786D01*
X8373786Y-16559357D01*
X8388071Y-16616500D01*
X8388071Y-16687929D01*
X8373786Y-16745071D01*
X8359500Y-16773643D01*
X8345214Y-16787929D01*
X8316643Y-16802214D01*
X8288071Y-16802214D01*
X8259500Y-16787929D01*
X8245214Y-16773643D01*
X8230928Y-16745071D01*
X8216643Y-16687929D01*
X8216643Y-16616500D01*
X8230928Y-16559357D01*
X8245214Y-16530786D01*
X8259500Y-16516500D01*
X8288071Y-16502214D01*
X8673786Y-16802214D02*
X8502357Y-16802214D01*
X8588071Y-16802214D02*
X8588071Y-16502214D01*
X8559500Y-16545071D01*
X8530928Y-16573643D01*
X8502357Y-16587929D01*
X8930928Y-16502214D02*
X8873786Y-16502214D01*
X8845214Y-16516500D01*
X8830928Y-16530786D01*
X8802357Y-16573643D01*
X8788071Y-16630786D01*
X8788071Y-16745071D01*
X8802357Y-16773643D01*
X8816643Y-16787929D01*
X8845214Y-16802214D01*
X8902357Y-16802214D01*
X8930928Y-16787929D01*
X8945214Y-16773643D01*
X8959500Y-16745071D01*
X8959500Y-16673643D01*
X8945214Y-16645071D01*
X8930928Y-16630786D01*
X8902357Y-16616500D01*
X8845214Y-16616500D01*
X8816643Y-16630786D01*
X8802357Y-16645071D01*
X8788071Y-16673643D01*
X9073786Y-16502214D02*
X9073786Y-16559357D01*
X9188071Y-16502214D02*
X9188071Y-16559357D01*
X9630928Y-16916500D02*
X9616643Y-16902214D01*
X9588071Y-16859357D01*
X9573786Y-16830786D01*
X9559500Y-16787929D01*
X9545214Y-16716500D01*
X9545214Y-16659357D01*
X9559500Y-16587929D01*
X9573786Y-16545071D01*
X9588071Y-16516500D01*
X9616643Y-16473643D01*
X9630928Y-16459357D01*
X9730928Y-16530786D02*
X9745214Y-16516500D01*
X9773786Y-16502214D01*
X9845214Y-16502214D01*
X9873786Y-16516500D01*
X9888071Y-16530786D01*
X9902357Y-16559357D01*
X9902357Y-16587929D01*
X9888071Y-16630786D01*
X9716643Y-16802214D01*
X9902357Y-16802214D01*
X10045214Y-16802214D02*
X10102357Y-16802214D01*
X10130928Y-16787929D01*
X10145214Y-16773643D01*
X10173786Y-16730786D01*
X10188071Y-16673643D01*
X10188071Y-16559357D01*
X10173786Y-16530786D01*
X10159500Y-16516500D01*
X10130928Y-16502214D01*
X10073786Y-16502214D01*
X10045214Y-16516500D01*
X10030928Y-16530786D01*
X10016643Y-16559357D01*
X10016643Y-16630786D01*
X10030928Y-16659357D01*
X10045214Y-16673643D01*
X10073786Y-16687929D01*
X10130928Y-16687929D01*
X10159500Y-16673643D01*
X10173786Y-16659357D01*
X10188071Y-16630786D01*
X10545214Y-16802214D02*
X10545214Y-16502214D01*
X10673786Y-16802214D02*
X10673786Y-16645071D01*
X10659500Y-16616500D01*
X10630928Y-16602214D01*
X10588071Y-16602214D01*
X10559500Y-16616500D01*
X10545214Y-16630786D01*
X10859500Y-16802214D02*
X10830928Y-16787929D01*
X10816643Y-16773643D01*
X10802357Y-16745071D01*
X10802357Y-16659357D01*
X10816643Y-16630786D01*
X10830928Y-16616500D01*
X10859500Y-16602214D01*
X10902357Y-16602214D01*
X10930928Y-16616500D01*
X10945214Y-16630786D01*
X10959500Y-16659357D01*
X10959500Y-16745071D01*
X10945214Y-16773643D01*
X10930928Y-16787929D01*
X10902357Y-16802214D01*
X10859500Y-16802214D01*
X11130928Y-16802214D02*
X11102357Y-16787929D01*
X11088071Y-16759357D01*
X11088071Y-16502214D01*
X11359500Y-16787929D02*
X11330928Y-16802214D01*
X11273786Y-16802214D01*
X11245214Y-16787929D01*
X11230928Y-16759357D01*
X11230928Y-16645071D01*
X11245214Y-16616500D01*
X11273786Y-16602214D01*
X11330928Y-16602214D01*
X11359500Y-16616500D01*
X11373786Y-16645071D01*
X11373786Y-16673643D01*
X11230928Y-16702214D01*
X11488071Y-16787929D02*
X11516643Y-16802214D01*
X11573786Y-16802214D01*
X11602357Y-16787929D01*
X11616643Y-16759357D01*
X11616643Y-16745071D01*
X11602357Y-16716500D01*
X11573786Y-16702214D01*
X11530928Y-16702214D01*
X11502357Y-16687929D01*
X11488071Y-16659357D01*
X11488071Y-16645071D01*
X11502357Y-16616500D01*
X11530928Y-16602214D01*
X11573786Y-16602214D01*
X11602357Y-16616500D01*
X11716643Y-16916500D02*
X11730928Y-16902214D01*
X11759500Y-16859357D01*
X11773786Y-16830786D01*
X11788071Y-16787929D01*
X11802357Y-16716500D01*
X11802357Y-16659357D01*
X11788071Y-16587929D01*
X11773786Y-16545071D01*
X11759500Y-16516500D01*
X11730928Y-16473643D01*
X11716643Y-16459357D01*
X4944500Y-17062500D02*
G75*
G03X4944500Y-17062500I-40000J0D01*
G01*
X5288071Y-16898214D02*
X5316643Y-16898214D01*
X5345214Y-16912500D01*
X5359500Y-16926786D01*
X5373786Y-16955357D01*
X5388071Y-17012500D01*
X5388071Y-17083929D01*
X5373786Y-17141072D01*
X5359500Y-17169643D01*
X5345214Y-17183929D01*
X5316643Y-17198214D01*
X5288071Y-17198214D01*
X5259500Y-17183929D01*
X5245214Y-17169643D01*
X5230928Y-17141072D01*
X5216643Y-17083929D01*
X5216643Y-17012500D01*
X5230928Y-16955357D01*
X5245214Y-16926786D01*
X5259500Y-16912500D01*
X5288071Y-16898214D01*
X5516643Y-17169643D02*
X5530928Y-17183929D01*
X5516643Y-17198214D01*
X5502357Y-17183929D01*
X5516643Y-17169643D01*
X5516643Y-17198214D01*
X5702357Y-17026786D02*
X5673786Y-17012500D01*
X5659500Y-16998214D01*
X5645214Y-16969643D01*
X5645214Y-16955357D01*
X5659500Y-16926786D01*
X5673786Y-16912500D01*
X5702357Y-16898214D01*
X5759500Y-16898214D01*
X5788071Y-16912500D01*
X5802357Y-16926786D01*
X5816643Y-16955357D01*
X5816643Y-16969643D01*
X5802357Y-16998214D01*
X5788071Y-17012500D01*
X5759500Y-17026786D01*
X5702357Y-17026786D01*
X5673786Y-17041072D01*
X5659500Y-17055357D01*
X5645214Y-17083929D01*
X5645214Y-17141072D01*
X5659500Y-17169643D01*
X5673786Y-17183929D01*
X5702357Y-17198214D01*
X5759500Y-17198214D01*
X5788071Y-17183929D01*
X5802357Y-17169643D01*
X5816643Y-17141072D01*
X5816643Y-17083929D01*
X5802357Y-17055357D01*
X5788071Y-17041072D01*
X5759500Y-17026786D01*
X6002357Y-16898214D02*
X6030928Y-16898214D01*
X6059500Y-16912500D01*
X6073786Y-16926786D01*
X6088071Y-16955357D01*
X6102357Y-17012500D01*
X6102357Y-17083929D01*
X6088071Y-17141072D01*
X6073786Y-17169643D01*
X6059500Y-17183929D01*
X6030928Y-17198214D01*
X6002357Y-17198214D01*
X5973786Y-17183929D01*
X5959500Y-17169643D01*
X5945214Y-17141072D01*
X5930928Y-17083929D01*
X5930928Y-17012500D01*
X5945214Y-16955357D01*
X5959500Y-16926786D01*
X5973786Y-16912500D01*
X6002357Y-16898214D01*
X6230928Y-17198214D02*
X6230928Y-16998214D01*
X6230928Y-17026786D02*
X6245214Y-17012500D01*
X6273786Y-16998214D01*
X6316643Y-16998214D01*
X6345214Y-17012500D01*
X6359500Y-17041072D01*
X6359500Y-17198214D01*
X6359500Y-17041072D02*
X6373786Y-17012500D01*
X6402357Y-16998214D01*
X6445214Y-16998214D01*
X6473786Y-17012500D01*
X6488071Y-17041072D01*
X6488071Y-17198214D01*
X6630928Y-17198214D02*
X6630928Y-16998214D01*
X6630928Y-17026786D02*
X6645214Y-17012500D01*
X6673786Y-16998214D01*
X6716643Y-16998214D01*
X6745214Y-17012500D01*
X6759500Y-17041072D01*
X6759500Y-17198214D01*
X6759500Y-17041072D02*
X6773786Y-17012500D01*
X6802357Y-16998214D01*
X6845214Y-16998214D01*
X6873786Y-17012500D01*
X6888071Y-17041072D01*
X6888071Y-17198214D01*
X7473786Y-16883929D02*
X7216643Y-17269643D01*
X7859500Y-16898214D02*
X7888071Y-16898214D01*
X7916643Y-16912500D01*
X7930928Y-16926786D01*
X7945214Y-16955357D01*
X7959500Y-17012500D01*
X7959500Y-17083929D01*
X7945214Y-17141072D01*
X7930928Y-17169643D01*
X7916643Y-17183929D01*
X7888071Y-17198214D01*
X7859500Y-17198214D01*
X7830928Y-17183929D01*
X7816643Y-17169643D01*
X7802357Y-17141072D01*
X7788071Y-17083929D01*
X7788071Y-17012500D01*
X7802357Y-16955357D01*
X7816643Y-16926786D01*
X7830928Y-16912500D01*
X7859500Y-16898214D01*
X8088071Y-17169643D02*
X8102357Y-17183929D01*
X8088071Y-17198214D01*
X8073786Y-17183929D01*
X8088071Y-17169643D01*
X8088071Y-17198214D01*
X8288071Y-16898214D02*
X8316643Y-16898214D01*
X8345214Y-16912500D01*
X8359500Y-16926786D01*
X8373786Y-16955357D01*
X8388071Y-17012500D01*
X8388071Y-17083929D01*
X8373786Y-17141072D01*
X8359500Y-17169643D01*
X8345214Y-17183929D01*
X8316643Y-17198214D01*
X8288071Y-17198214D01*
X8259500Y-17183929D01*
X8245214Y-17169643D01*
X8230928Y-17141072D01*
X8216643Y-17083929D01*
X8216643Y-17012500D01*
X8230928Y-16955357D01*
X8245214Y-16926786D01*
X8259500Y-16912500D01*
X8288071Y-16898214D01*
X8488071Y-16898214D02*
X8673786Y-16898214D01*
X8573786Y-17012500D01*
X8616643Y-17012500D01*
X8645214Y-17026786D01*
X8659500Y-17041072D01*
X8673786Y-17069643D01*
X8673786Y-17141072D01*
X8659500Y-17169643D01*
X8645214Y-17183929D01*
X8616643Y-17198214D01*
X8530928Y-17198214D01*
X8502357Y-17183929D01*
X8488071Y-17169643D01*
X8959500Y-17198214D02*
X8788071Y-17198214D01*
X8873786Y-17198214D02*
X8873786Y-16898214D01*
X8845214Y-16941072D01*
X8816643Y-16969643D01*
X8788071Y-16983929D01*
X9073786Y-16898214D02*
X9073786Y-16955357D01*
X9188071Y-16898214D02*
X9188071Y-16955357D01*
X9630928Y-17312500D02*
X9616643Y-17298214D01*
X9588071Y-17255357D01*
X9573786Y-17226786D01*
X9559500Y-17183929D01*
X9545214Y-17112500D01*
X9545214Y-17055357D01*
X9559500Y-16983929D01*
X9573786Y-16941072D01*
X9588071Y-16912500D01*
X9616643Y-16869643D01*
X9630928Y-16855357D01*
X9902357Y-17198214D02*
X9730928Y-17198214D01*
X9816643Y-17198214D02*
X9816643Y-16898214D01*
X9788071Y-16941072D01*
X9759500Y-16969643D01*
X9730928Y-16983929D01*
X10159500Y-16898214D02*
X10102357Y-16898214D01*
X10073786Y-16912500D01*
X10059500Y-16926786D01*
X10030928Y-16969643D01*
X10016643Y-17026786D01*
X10016643Y-17141072D01*
X10030928Y-17169643D01*
X10045214Y-17183929D01*
X10073786Y-17198214D01*
X10130928Y-17198214D01*
X10159500Y-17183929D01*
X10173786Y-17169643D01*
X10188071Y-17141072D01*
X10188071Y-17069643D01*
X10173786Y-17041072D01*
X10159500Y-17026786D01*
X10130928Y-17012500D01*
X10073786Y-17012500D01*
X10045214Y-17026786D01*
X10030928Y-17041072D01*
X10016643Y-17069643D01*
X10359500Y-17026786D02*
X10330928Y-17012500D01*
X10316643Y-16998214D01*
X10302357Y-16969643D01*
X10302357Y-16955357D01*
X10316643Y-16926786D01*
X10330928Y-16912500D01*
X10359500Y-16898214D01*
X10416643Y-16898214D01*
X10445214Y-16912500D01*
X10459500Y-16926786D01*
X10473786Y-16955357D01*
X10473786Y-16969643D01*
X10459500Y-16998214D01*
X10445214Y-17012500D01*
X10416643Y-17026786D01*
X10359500Y-17026786D01*
X10330928Y-17041072D01*
X10316643Y-17055357D01*
X10302357Y-17083929D01*
X10302357Y-17141072D01*
X10316643Y-17169643D01*
X10330928Y-17183929D01*
X10359500Y-17198214D01*
X10416643Y-17198214D01*
X10445214Y-17183929D01*
X10459500Y-17169643D01*
X10473786Y-17141072D01*
X10473786Y-17083929D01*
X10459500Y-17055357D01*
X10445214Y-17041072D01*
X10416643Y-17026786D01*
X10830928Y-17198214D02*
X10830928Y-16898214D01*
X10959500Y-17198214D02*
X10959500Y-17041072D01*
X10945214Y-17012500D01*
X10916643Y-16998214D01*
X10873786Y-16998214D01*
X10845214Y-17012500D01*
X10830928Y-17026786D01*
X11145214Y-17198214D02*
X11116643Y-17183929D01*
X11102357Y-17169643D01*
X11088071Y-17141072D01*
X11088071Y-17055357D01*
X11102357Y-17026786D01*
X11116643Y-17012500D01*
X11145214Y-16998214D01*
X11188071Y-16998214D01*
X11216643Y-17012500D01*
X11230928Y-17026786D01*
X11245214Y-17055357D01*
X11245214Y-17141072D01*
X11230928Y-17169643D01*
X11216643Y-17183929D01*
X11188071Y-17198214D01*
X11145214Y-17198214D01*
X11416643Y-17198214D02*
X11388071Y-17183929D01*
X11373786Y-17155357D01*
X11373786Y-16898214D01*
X11645214Y-17183929D02*
X11616643Y-17198214D01*
X11559500Y-17198214D01*
X11530928Y-17183929D01*
X11516643Y-17155357D01*
X11516643Y-17041072D01*
X11530928Y-17012500D01*
X11559500Y-16998214D01*
X11616643Y-16998214D01*
X11645214Y-17012500D01*
X11659500Y-17041072D01*
X11659500Y-17069643D01*
X11516643Y-17098214D01*
X11773786Y-17183929D02*
X11802357Y-17198214D01*
X11859500Y-17198214D01*
X11888071Y-17183929D01*
X11902357Y-17155357D01*
X11902357Y-17141072D01*
X11888071Y-17112500D01*
X11859500Y-17098214D01*
X11816643Y-17098214D01*
X11788071Y-17083929D01*
X11773786Y-17055357D01*
X11773786Y-17041072D01*
X11788071Y-17012500D01*
X11816643Y-16998214D01*
X11859500Y-16998214D01*
X11888071Y-17012500D01*
X12002357Y-17312500D02*
X12016643Y-17298214D01*
X12045214Y-17255357D01*
X12059500Y-17226786D01*
X12073786Y-17183929D01*
X12088071Y-17112500D01*
X12088071Y-17055357D01*
X12073786Y-16983929D01*
X12059500Y-16941072D01*
X12045214Y-16912500D01*
X12016643Y-16869643D01*
X12002357Y-16855357D01*
X4894500Y-17408500D02*
X4894500Y-17508500D01*
X4844500Y-17458500D02*
X4944500Y-17458500D01*
X5388071Y-17594214D02*
X5216643Y-17594214D01*
X5302357Y-17594214D02*
X5302357Y-17294214D01*
X5273786Y-17337072D01*
X5245214Y-17365643D01*
X5216643Y-17379929D01*
X5516643Y-17565643D02*
X5530928Y-17579929D01*
X5516643Y-17594214D01*
X5502357Y-17579929D01*
X5516643Y-17565643D01*
X5516643Y-17594214D01*
X5716643Y-17294214D02*
X5745214Y-17294214D01*
X5773786Y-17308500D01*
X5788071Y-17322786D01*
X5802357Y-17351357D01*
X5816643Y-17408500D01*
X5816643Y-17479929D01*
X5802357Y-17537072D01*
X5788071Y-17565643D01*
X5773786Y-17579929D01*
X5745214Y-17594214D01*
X5716643Y-17594214D01*
X5688071Y-17579929D01*
X5673786Y-17565643D01*
X5659500Y-17537072D01*
X5645214Y-17479929D01*
X5645214Y-17408500D01*
X5659500Y-17351357D01*
X5673786Y-17322786D01*
X5688071Y-17308500D01*
X5716643Y-17294214D01*
X6002357Y-17294214D02*
X6030928Y-17294214D01*
X6059500Y-17308500D01*
X6073786Y-17322786D01*
X6088071Y-17351357D01*
X6102357Y-17408500D01*
X6102357Y-17479929D01*
X6088071Y-17537072D01*
X6073786Y-17565643D01*
X6059500Y-17579929D01*
X6030928Y-17594214D01*
X6002357Y-17594214D01*
X5973786Y-17579929D01*
X5959500Y-17565643D01*
X5945214Y-17537072D01*
X5930928Y-17479929D01*
X5930928Y-17408500D01*
X5945214Y-17351357D01*
X5959500Y-17322786D01*
X5973786Y-17308500D01*
X6002357Y-17294214D01*
X6230928Y-17594214D02*
X6230928Y-17394214D01*
X6230928Y-17422786D02*
X6245214Y-17408500D01*
X6273786Y-17394214D01*
X6316643Y-17394214D01*
X6345214Y-17408500D01*
X6359500Y-17437072D01*
X6359500Y-17594214D01*
X6359500Y-17437072D02*
X6373786Y-17408500D01*
X6402357Y-17394214D01*
X6445214Y-17394214D01*
X6473786Y-17408500D01*
X6488071Y-17437072D01*
X6488071Y-17594214D01*
X6630928Y-17594214D02*
X6630928Y-17394214D01*
X6630928Y-17422786D02*
X6645214Y-17408500D01*
X6673786Y-17394214D01*
X6716643Y-17394214D01*
X6745214Y-17408500D01*
X6759500Y-17437072D01*
X6759500Y-17594214D01*
X6759500Y-17437072D02*
X6773786Y-17408500D01*
X6802357Y-17394214D01*
X6845214Y-17394214D01*
X6873786Y-17408500D01*
X6888071Y-17437072D01*
X6888071Y-17594214D01*
X7473786Y-17279929D02*
X7216643Y-17665643D01*
X7859500Y-17294214D02*
X7888071Y-17294214D01*
X7916643Y-17308500D01*
X7930928Y-17322786D01*
X7945214Y-17351357D01*
X7959500Y-17408500D01*
X7959500Y-17479929D01*
X7945214Y-17537072D01*
X7930928Y-17565643D01*
X7916643Y-17579929D01*
X7888071Y-17594214D01*
X7859500Y-17594214D01*
X7830928Y-17579929D01*
X7816643Y-17565643D01*
X7802357Y-17537072D01*
X7788071Y-17479929D01*
X7788071Y-17408500D01*
X7802357Y-17351357D01*
X7816643Y-17322786D01*
X7830928Y-17308500D01*
X7859500Y-17294214D01*
X8088071Y-17565643D02*
X8102357Y-17579929D01*
X8088071Y-17594214D01*
X8073786Y-17579929D01*
X8088071Y-17565643D01*
X8088071Y-17594214D01*
X8288071Y-17294214D02*
X8316643Y-17294214D01*
X8345214Y-17308500D01*
X8359500Y-17322786D01*
X8373786Y-17351357D01*
X8388071Y-17408500D01*
X8388071Y-17479929D01*
X8373786Y-17537072D01*
X8359500Y-17565643D01*
X8345214Y-17579929D01*
X8316643Y-17594214D01*
X8288071Y-17594214D01*
X8259500Y-17579929D01*
X8245214Y-17565643D01*
X8230928Y-17537072D01*
X8216643Y-17479929D01*
X8216643Y-17408500D01*
X8230928Y-17351357D01*
X8245214Y-17322786D01*
X8259500Y-17308500D01*
X8288071Y-17294214D01*
X8488071Y-17294214D02*
X8673786Y-17294214D01*
X8573786Y-17408500D01*
X8616643Y-17408500D01*
X8645214Y-17422786D01*
X8659500Y-17437072D01*
X8673786Y-17465643D01*
X8673786Y-17537072D01*
X8659500Y-17565643D01*
X8645214Y-17579929D01*
X8616643Y-17594214D01*
X8530928Y-17594214D01*
X8502357Y-17579929D01*
X8488071Y-17565643D01*
X8816643Y-17594214D02*
X8873786Y-17594214D01*
X8902357Y-17579929D01*
X8916643Y-17565643D01*
X8945214Y-17522786D01*
X8959500Y-17465643D01*
X8959500Y-17351357D01*
X8945214Y-17322786D01*
X8930928Y-17308500D01*
X8902357Y-17294214D01*
X8845214Y-17294214D01*
X8816643Y-17308500D01*
X8802357Y-17322786D01*
X8788071Y-17351357D01*
X8788071Y-17422786D01*
X8802357Y-17451357D01*
X8816643Y-17465643D01*
X8845214Y-17479929D01*
X8902357Y-17479929D01*
X8930928Y-17465643D01*
X8945214Y-17451357D01*
X8959500Y-17422786D01*
X9073786Y-17294214D02*
X9073786Y-17351357D01*
X9188071Y-17294214D02*
X9188071Y-17351357D01*
X9630928Y-17708500D02*
X9616643Y-17694214D01*
X9588071Y-17651357D01*
X9573786Y-17622786D01*
X9559500Y-17579929D01*
X9545214Y-17508500D01*
X9545214Y-17451357D01*
X9559500Y-17379929D01*
X9573786Y-17337072D01*
X9588071Y-17308500D01*
X9616643Y-17265643D01*
X9630928Y-17251357D01*
X9716643Y-17294214D02*
X9902357Y-17294214D01*
X9802357Y-17408500D01*
X9845214Y-17408500D01*
X9873786Y-17422786D01*
X9888071Y-17437072D01*
X9902357Y-17465643D01*
X9902357Y-17537072D01*
X9888071Y-17565643D01*
X9873786Y-17579929D01*
X9845214Y-17594214D01*
X9759500Y-17594214D01*
X9730928Y-17579929D01*
X9716643Y-17565643D01*
X10259500Y-17594214D02*
X10259500Y-17294214D01*
X10388071Y-17594214D02*
X10388071Y-17437072D01*
X10373786Y-17408500D01*
X10345214Y-17394214D01*
X10302357Y-17394214D01*
X10273786Y-17408500D01*
X10259500Y-17422786D01*
X10573786Y-17594214D02*
X10545214Y-17579929D01*
X10530928Y-17565643D01*
X10516643Y-17537072D01*
X10516643Y-17451357D01*
X10530928Y-17422786D01*
X10545214Y-17408500D01*
X10573786Y-17394214D01*
X10616643Y-17394214D01*
X10645214Y-17408500D01*
X10659500Y-17422786D01*
X10673786Y-17451357D01*
X10673786Y-17537072D01*
X10659500Y-17565643D01*
X10645214Y-17579929D01*
X10616643Y-17594214D01*
X10573786Y-17594214D01*
X10845214Y-17594214D02*
X10816643Y-17579929D01*
X10802357Y-17551357D01*
X10802357Y-17294214D01*
X11073786Y-17579929D02*
X11045214Y-17594214D01*
X10988071Y-17594214D01*
X10959500Y-17579929D01*
X10945214Y-17551357D01*
X10945214Y-17437072D01*
X10959500Y-17408500D01*
X10988071Y-17394214D01*
X11045214Y-17394214D01*
X11073786Y-17408500D01*
X11088071Y-17437072D01*
X11088071Y-17465643D01*
X10945214Y-17494214D01*
X11202357Y-17579929D02*
X11230928Y-17594214D01*
X11288071Y-17594214D01*
X11316643Y-17579929D01*
X11330928Y-17551357D01*
X11330928Y-17537072D01*
X11316643Y-17508500D01*
X11288071Y-17494214D01*
X11245214Y-17494214D01*
X11216643Y-17479929D01*
X11202357Y-17451357D01*
X11202357Y-17437072D01*
X11216643Y-17408500D01*
X11245214Y-17394214D01*
X11288071Y-17394214D01*
X11316643Y-17408500D01*
X11430928Y-17708500D02*
X11445214Y-17694214D01*
X11473786Y-17651357D01*
X11488071Y-17622786D01*
X11502357Y-17579929D01*
X11516643Y-17508500D01*
X11516643Y-17451357D01*
X11502357Y-17379929D01*
X11488071Y-17337072D01*
X11473786Y-17308500D01*
X11445214Y-17265643D01*
X11430928Y-17251357D01*
M02*
