G04 #@! TF.GenerationSoftware,KiCad,Pcbnew,(5.1.5)-3*
G04 #@! TF.CreationDate,2021-09-12T14:11:04+10:00*
G04 #@! TF.ProjectId,CDTV_Reromlocator_v3,43445456-5f52-4657-926f-6d6c6f636174,rev?*
G04 #@! TF.SameCoordinates,Original*
G04 #@! TF.FileFunction,Copper,L4,Bot*
G04 #@! TF.FilePolarity,Positive*
%FSLAX46Y46*%
G04 Gerber Fmt 4.6, Leading zero omitted, Abs format (unit mm)*
G04 Created by KiCad (PCBNEW (5.1.5)-3) date 2021-09-12 14:11:04*
%MOMM*%
%LPD*%
G04 APERTURE LIST*
%ADD10R,1.600000X1.600000*%
%ADD11O,1.600000X1.600000*%
%ADD12C,0.100000*%
%ADD13R,1.700000X1.700000*%
%ADD14O,1.700000X1.700000*%
%ADD15C,0.800000*%
%ADD16C,0.500000*%
%ADD17C,0.250000*%
G04 APERTURE END LIST*
D10*
X52182000Y-104540000D03*
D11*
X67422000Y-152800000D03*
X52182000Y-107080000D03*
X67422000Y-150260000D03*
X52182000Y-109620000D03*
X67422000Y-147720000D03*
X52182000Y-112160000D03*
X67422000Y-145180000D03*
X52182000Y-114700000D03*
X67422000Y-142640000D03*
X52182000Y-117240000D03*
X67422000Y-140100000D03*
X52182000Y-119780000D03*
X67422000Y-137560000D03*
X52182000Y-122320000D03*
X67422000Y-135020000D03*
X52182000Y-124860000D03*
X67422000Y-132480000D03*
X52182000Y-127400000D03*
X67422000Y-129940000D03*
X52182000Y-129940000D03*
X67422000Y-127400000D03*
X52182000Y-132480000D03*
X67422000Y-124860000D03*
X52182000Y-135020000D03*
X67422000Y-122320000D03*
X52182000Y-137560000D03*
X67422000Y-119780000D03*
X52182000Y-140100000D03*
X67422000Y-117240000D03*
X52182000Y-142640000D03*
X67422000Y-114700000D03*
X52182000Y-145180000D03*
X67422000Y-112160000D03*
X52182000Y-147720000D03*
X67422000Y-109620000D03*
X52182000Y-150260000D03*
X67422000Y-107080000D03*
X52182000Y-152800000D03*
X67422000Y-104540000D03*
G04 #@! TA.AperFunction,SMDPad,CuDef*
D12*
G36*
X85227504Y-97560204D02*
G01*
X85251773Y-97563804D01*
X85275571Y-97569765D01*
X85298671Y-97578030D01*
X85320849Y-97588520D01*
X85341893Y-97601133D01*
X85361598Y-97615747D01*
X85379777Y-97632223D01*
X85396253Y-97650402D01*
X85410867Y-97670107D01*
X85423480Y-97691151D01*
X85433970Y-97713329D01*
X85442235Y-97736429D01*
X85448196Y-97760227D01*
X85451796Y-97784496D01*
X85453000Y-97809000D01*
X85453000Y-99059000D01*
X85451796Y-99083504D01*
X85448196Y-99107773D01*
X85442235Y-99131571D01*
X85433970Y-99154671D01*
X85423480Y-99176849D01*
X85410867Y-99197893D01*
X85396253Y-99217598D01*
X85379777Y-99235777D01*
X85361598Y-99252253D01*
X85341893Y-99266867D01*
X85320849Y-99279480D01*
X85298671Y-99289970D01*
X85275571Y-99298235D01*
X85251773Y-99304196D01*
X85227504Y-99307796D01*
X85203000Y-99309000D01*
X84278000Y-99309000D01*
X84253496Y-99307796D01*
X84229227Y-99304196D01*
X84205429Y-99298235D01*
X84182329Y-99289970D01*
X84160151Y-99279480D01*
X84139107Y-99266867D01*
X84119402Y-99252253D01*
X84101223Y-99235777D01*
X84084747Y-99217598D01*
X84070133Y-99197893D01*
X84057520Y-99176849D01*
X84047030Y-99154671D01*
X84038765Y-99131571D01*
X84032804Y-99107773D01*
X84029204Y-99083504D01*
X84028000Y-99059000D01*
X84028000Y-97809000D01*
X84029204Y-97784496D01*
X84032804Y-97760227D01*
X84038765Y-97736429D01*
X84047030Y-97713329D01*
X84057520Y-97691151D01*
X84070133Y-97670107D01*
X84084747Y-97650402D01*
X84101223Y-97632223D01*
X84119402Y-97615747D01*
X84139107Y-97601133D01*
X84160151Y-97588520D01*
X84182329Y-97578030D01*
X84205429Y-97569765D01*
X84229227Y-97563804D01*
X84253496Y-97560204D01*
X84278000Y-97559000D01*
X85203000Y-97559000D01*
X85227504Y-97560204D01*
G37*
G04 #@! TD.AperFunction*
G04 #@! TA.AperFunction,SMDPad,CuDef*
G36*
X88202504Y-97560204D02*
G01*
X88226773Y-97563804D01*
X88250571Y-97569765D01*
X88273671Y-97578030D01*
X88295849Y-97588520D01*
X88316893Y-97601133D01*
X88336598Y-97615747D01*
X88354777Y-97632223D01*
X88371253Y-97650402D01*
X88385867Y-97670107D01*
X88398480Y-97691151D01*
X88408970Y-97713329D01*
X88417235Y-97736429D01*
X88423196Y-97760227D01*
X88426796Y-97784496D01*
X88428000Y-97809000D01*
X88428000Y-99059000D01*
X88426796Y-99083504D01*
X88423196Y-99107773D01*
X88417235Y-99131571D01*
X88408970Y-99154671D01*
X88398480Y-99176849D01*
X88385867Y-99197893D01*
X88371253Y-99217598D01*
X88354777Y-99235777D01*
X88336598Y-99252253D01*
X88316893Y-99266867D01*
X88295849Y-99279480D01*
X88273671Y-99289970D01*
X88250571Y-99298235D01*
X88226773Y-99304196D01*
X88202504Y-99307796D01*
X88178000Y-99309000D01*
X87253000Y-99309000D01*
X87228496Y-99307796D01*
X87204227Y-99304196D01*
X87180429Y-99298235D01*
X87157329Y-99289970D01*
X87135151Y-99279480D01*
X87114107Y-99266867D01*
X87094402Y-99252253D01*
X87076223Y-99235777D01*
X87059747Y-99217598D01*
X87045133Y-99197893D01*
X87032520Y-99176849D01*
X87022030Y-99154671D01*
X87013765Y-99131571D01*
X87007804Y-99107773D01*
X87004204Y-99083504D01*
X87003000Y-99059000D01*
X87003000Y-97809000D01*
X87004204Y-97784496D01*
X87007804Y-97760227D01*
X87013765Y-97736429D01*
X87022030Y-97713329D01*
X87032520Y-97691151D01*
X87045133Y-97670107D01*
X87059747Y-97650402D01*
X87076223Y-97632223D01*
X87094402Y-97615747D01*
X87114107Y-97601133D01*
X87135151Y-97588520D01*
X87157329Y-97578030D01*
X87180429Y-97569765D01*
X87204227Y-97563804D01*
X87228496Y-97560204D01*
X87253000Y-97559000D01*
X88178000Y-97559000D01*
X88202504Y-97560204D01*
G37*
G04 #@! TD.AperFunction*
G04 #@! TA.AperFunction,SMDPad,CuDef*
G36*
X85552505Y-103577204D02*
G01*
X85576773Y-103580804D01*
X85600572Y-103586765D01*
X85623671Y-103595030D01*
X85645850Y-103605520D01*
X85666893Y-103618132D01*
X85686599Y-103632747D01*
X85704777Y-103649223D01*
X85721253Y-103667401D01*
X85735868Y-103687107D01*
X85748480Y-103708150D01*
X85758970Y-103730329D01*
X85767235Y-103753428D01*
X85773196Y-103777227D01*
X85776796Y-103801495D01*
X85778000Y-103825999D01*
X85778000Y-104726001D01*
X85776796Y-104750505D01*
X85773196Y-104774773D01*
X85767235Y-104798572D01*
X85758970Y-104821671D01*
X85748480Y-104843850D01*
X85735868Y-104864893D01*
X85721253Y-104884599D01*
X85704777Y-104902777D01*
X85686599Y-104919253D01*
X85666893Y-104933868D01*
X85645850Y-104946480D01*
X85623671Y-104956970D01*
X85600572Y-104965235D01*
X85576773Y-104971196D01*
X85552505Y-104974796D01*
X85528001Y-104976000D01*
X84877999Y-104976000D01*
X84853495Y-104974796D01*
X84829227Y-104971196D01*
X84805428Y-104965235D01*
X84782329Y-104956970D01*
X84760150Y-104946480D01*
X84739107Y-104933868D01*
X84719401Y-104919253D01*
X84701223Y-104902777D01*
X84684747Y-104884599D01*
X84670132Y-104864893D01*
X84657520Y-104843850D01*
X84647030Y-104821671D01*
X84638765Y-104798572D01*
X84632804Y-104774773D01*
X84629204Y-104750505D01*
X84628000Y-104726001D01*
X84628000Y-103825999D01*
X84629204Y-103801495D01*
X84632804Y-103777227D01*
X84638765Y-103753428D01*
X84647030Y-103730329D01*
X84657520Y-103708150D01*
X84670132Y-103687107D01*
X84684747Y-103667401D01*
X84701223Y-103649223D01*
X84719401Y-103632747D01*
X84739107Y-103618132D01*
X84760150Y-103605520D01*
X84782329Y-103595030D01*
X84805428Y-103586765D01*
X84829227Y-103580804D01*
X84853495Y-103577204D01*
X84877999Y-103576000D01*
X85528001Y-103576000D01*
X85552505Y-103577204D01*
G37*
G04 #@! TD.AperFunction*
G04 #@! TA.AperFunction,SMDPad,CuDef*
G36*
X87602505Y-103577204D02*
G01*
X87626773Y-103580804D01*
X87650572Y-103586765D01*
X87673671Y-103595030D01*
X87695850Y-103605520D01*
X87716893Y-103618132D01*
X87736599Y-103632747D01*
X87754777Y-103649223D01*
X87771253Y-103667401D01*
X87785868Y-103687107D01*
X87798480Y-103708150D01*
X87808970Y-103730329D01*
X87817235Y-103753428D01*
X87823196Y-103777227D01*
X87826796Y-103801495D01*
X87828000Y-103825999D01*
X87828000Y-104726001D01*
X87826796Y-104750505D01*
X87823196Y-104774773D01*
X87817235Y-104798572D01*
X87808970Y-104821671D01*
X87798480Y-104843850D01*
X87785868Y-104864893D01*
X87771253Y-104884599D01*
X87754777Y-104902777D01*
X87736599Y-104919253D01*
X87716893Y-104933868D01*
X87695850Y-104946480D01*
X87673671Y-104956970D01*
X87650572Y-104965235D01*
X87626773Y-104971196D01*
X87602505Y-104974796D01*
X87578001Y-104976000D01*
X86927999Y-104976000D01*
X86903495Y-104974796D01*
X86879227Y-104971196D01*
X86855428Y-104965235D01*
X86832329Y-104956970D01*
X86810150Y-104946480D01*
X86789107Y-104933868D01*
X86769401Y-104919253D01*
X86751223Y-104902777D01*
X86734747Y-104884599D01*
X86720132Y-104864893D01*
X86707520Y-104843850D01*
X86697030Y-104821671D01*
X86688765Y-104798572D01*
X86682804Y-104774773D01*
X86679204Y-104750505D01*
X86678000Y-104726001D01*
X86678000Y-103825999D01*
X86679204Y-103801495D01*
X86682804Y-103777227D01*
X86688765Y-103753428D01*
X86697030Y-103730329D01*
X86707520Y-103708150D01*
X86720132Y-103687107D01*
X86734747Y-103667401D01*
X86751223Y-103649223D01*
X86769401Y-103632747D01*
X86789107Y-103618132D01*
X86810150Y-103605520D01*
X86832329Y-103595030D01*
X86855428Y-103586765D01*
X86879227Y-103580804D01*
X86903495Y-103577204D01*
X86927999Y-103576000D01*
X87578001Y-103576000D01*
X87602505Y-103577204D01*
G37*
G04 #@! TD.AperFunction*
G04 #@! TA.AperFunction,SMDPad,CuDef*
G36*
X87602505Y-108657204D02*
G01*
X87626773Y-108660804D01*
X87650572Y-108666765D01*
X87673671Y-108675030D01*
X87695850Y-108685520D01*
X87716893Y-108698132D01*
X87736599Y-108712747D01*
X87754777Y-108729223D01*
X87771253Y-108747401D01*
X87785868Y-108767107D01*
X87798480Y-108788150D01*
X87808970Y-108810329D01*
X87817235Y-108833428D01*
X87823196Y-108857227D01*
X87826796Y-108881495D01*
X87828000Y-108905999D01*
X87828000Y-109806001D01*
X87826796Y-109830505D01*
X87823196Y-109854773D01*
X87817235Y-109878572D01*
X87808970Y-109901671D01*
X87798480Y-109923850D01*
X87785868Y-109944893D01*
X87771253Y-109964599D01*
X87754777Y-109982777D01*
X87736599Y-109999253D01*
X87716893Y-110013868D01*
X87695850Y-110026480D01*
X87673671Y-110036970D01*
X87650572Y-110045235D01*
X87626773Y-110051196D01*
X87602505Y-110054796D01*
X87578001Y-110056000D01*
X86927999Y-110056000D01*
X86903495Y-110054796D01*
X86879227Y-110051196D01*
X86855428Y-110045235D01*
X86832329Y-110036970D01*
X86810150Y-110026480D01*
X86789107Y-110013868D01*
X86769401Y-109999253D01*
X86751223Y-109982777D01*
X86734747Y-109964599D01*
X86720132Y-109944893D01*
X86707520Y-109923850D01*
X86697030Y-109901671D01*
X86688765Y-109878572D01*
X86682804Y-109854773D01*
X86679204Y-109830505D01*
X86678000Y-109806001D01*
X86678000Y-108905999D01*
X86679204Y-108881495D01*
X86682804Y-108857227D01*
X86688765Y-108833428D01*
X86697030Y-108810329D01*
X86707520Y-108788150D01*
X86720132Y-108767107D01*
X86734747Y-108747401D01*
X86751223Y-108729223D01*
X86769401Y-108712747D01*
X86789107Y-108698132D01*
X86810150Y-108685520D01*
X86832329Y-108675030D01*
X86855428Y-108666765D01*
X86879227Y-108660804D01*
X86903495Y-108657204D01*
X86927999Y-108656000D01*
X87578001Y-108656000D01*
X87602505Y-108657204D01*
G37*
G04 #@! TD.AperFunction*
G04 #@! TA.AperFunction,SMDPad,CuDef*
G36*
X85552505Y-108657204D02*
G01*
X85576773Y-108660804D01*
X85600572Y-108666765D01*
X85623671Y-108675030D01*
X85645850Y-108685520D01*
X85666893Y-108698132D01*
X85686599Y-108712747D01*
X85704777Y-108729223D01*
X85721253Y-108747401D01*
X85735868Y-108767107D01*
X85748480Y-108788150D01*
X85758970Y-108810329D01*
X85767235Y-108833428D01*
X85773196Y-108857227D01*
X85776796Y-108881495D01*
X85778000Y-108905999D01*
X85778000Y-109806001D01*
X85776796Y-109830505D01*
X85773196Y-109854773D01*
X85767235Y-109878572D01*
X85758970Y-109901671D01*
X85748480Y-109923850D01*
X85735868Y-109944893D01*
X85721253Y-109964599D01*
X85704777Y-109982777D01*
X85686599Y-109999253D01*
X85666893Y-110013868D01*
X85645850Y-110026480D01*
X85623671Y-110036970D01*
X85600572Y-110045235D01*
X85576773Y-110051196D01*
X85552505Y-110054796D01*
X85528001Y-110056000D01*
X84877999Y-110056000D01*
X84853495Y-110054796D01*
X84829227Y-110051196D01*
X84805428Y-110045235D01*
X84782329Y-110036970D01*
X84760150Y-110026480D01*
X84739107Y-110013868D01*
X84719401Y-109999253D01*
X84701223Y-109982777D01*
X84684747Y-109964599D01*
X84670132Y-109944893D01*
X84657520Y-109923850D01*
X84647030Y-109901671D01*
X84638765Y-109878572D01*
X84632804Y-109854773D01*
X84629204Y-109830505D01*
X84628000Y-109806001D01*
X84628000Y-108905999D01*
X84629204Y-108881495D01*
X84632804Y-108857227D01*
X84638765Y-108833428D01*
X84647030Y-108810329D01*
X84657520Y-108788150D01*
X84670132Y-108767107D01*
X84684747Y-108747401D01*
X84701223Y-108729223D01*
X84719401Y-108712747D01*
X84739107Y-108698132D01*
X84760150Y-108685520D01*
X84782329Y-108675030D01*
X84805428Y-108666765D01*
X84829227Y-108660804D01*
X84853495Y-108657204D01*
X84877999Y-108656000D01*
X85528001Y-108656000D01*
X85552505Y-108657204D01*
G37*
G04 #@! TD.AperFunction*
G04 #@! TA.AperFunction,SMDPad,CuDef*
G36*
X87912004Y-136422204D02*
G01*
X87936273Y-136425804D01*
X87960071Y-136431765D01*
X87983171Y-136440030D01*
X88005349Y-136450520D01*
X88026393Y-136463133D01*
X88046098Y-136477747D01*
X88064277Y-136494223D01*
X88080753Y-136512402D01*
X88095367Y-136532107D01*
X88107980Y-136553151D01*
X88118470Y-136575329D01*
X88126735Y-136598429D01*
X88132696Y-136622227D01*
X88136296Y-136646496D01*
X88137500Y-136671000D01*
X88137500Y-137921000D01*
X88136296Y-137945504D01*
X88132696Y-137969773D01*
X88126735Y-137993571D01*
X88118470Y-138016671D01*
X88107980Y-138038849D01*
X88095367Y-138059893D01*
X88080753Y-138079598D01*
X88064277Y-138097777D01*
X88046098Y-138114253D01*
X88026393Y-138128867D01*
X88005349Y-138141480D01*
X87983171Y-138151970D01*
X87960071Y-138160235D01*
X87936273Y-138166196D01*
X87912004Y-138169796D01*
X87887500Y-138171000D01*
X86962500Y-138171000D01*
X86937996Y-138169796D01*
X86913727Y-138166196D01*
X86889929Y-138160235D01*
X86866829Y-138151970D01*
X86844651Y-138141480D01*
X86823607Y-138128867D01*
X86803902Y-138114253D01*
X86785723Y-138097777D01*
X86769247Y-138079598D01*
X86754633Y-138059893D01*
X86742020Y-138038849D01*
X86731530Y-138016671D01*
X86723265Y-137993571D01*
X86717304Y-137969773D01*
X86713704Y-137945504D01*
X86712500Y-137921000D01*
X86712500Y-136671000D01*
X86713704Y-136646496D01*
X86717304Y-136622227D01*
X86723265Y-136598429D01*
X86731530Y-136575329D01*
X86742020Y-136553151D01*
X86754633Y-136532107D01*
X86769247Y-136512402D01*
X86785723Y-136494223D01*
X86803902Y-136477747D01*
X86823607Y-136463133D01*
X86844651Y-136450520D01*
X86866829Y-136440030D01*
X86889929Y-136431765D01*
X86913727Y-136425804D01*
X86937996Y-136422204D01*
X86962500Y-136421000D01*
X87887500Y-136421000D01*
X87912004Y-136422204D01*
G37*
G04 #@! TD.AperFunction*
G04 #@! TA.AperFunction,SMDPad,CuDef*
G36*
X84937004Y-136422204D02*
G01*
X84961273Y-136425804D01*
X84985071Y-136431765D01*
X85008171Y-136440030D01*
X85030349Y-136450520D01*
X85051393Y-136463133D01*
X85071098Y-136477747D01*
X85089277Y-136494223D01*
X85105753Y-136512402D01*
X85120367Y-136532107D01*
X85132980Y-136553151D01*
X85143470Y-136575329D01*
X85151735Y-136598429D01*
X85157696Y-136622227D01*
X85161296Y-136646496D01*
X85162500Y-136671000D01*
X85162500Y-137921000D01*
X85161296Y-137945504D01*
X85157696Y-137969773D01*
X85151735Y-137993571D01*
X85143470Y-138016671D01*
X85132980Y-138038849D01*
X85120367Y-138059893D01*
X85105753Y-138079598D01*
X85089277Y-138097777D01*
X85071098Y-138114253D01*
X85051393Y-138128867D01*
X85030349Y-138141480D01*
X85008171Y-138151970D01*
X84985071Y-138160235D01*
X84961273Y-138166196D01*
X84937004Y-138169796D01*
X84912500Y-138171000D01*
X83987500Y-138171000D01*
X83962996Y-138169796D01*
X83938727Y-138166196D01*
X83914929Y-138160235D01*
X83891829Y-138151970D01*
X83869651Y-138141480D01*
X83848607Y-138128867D01*
X83828902Y-138114253D01*
X83810723Y-138097777D01*
X83794247Y-138079598D01*
X83779633Y-138059893D01*
X83767020Y-138038849D01*
X83756530Y-138016671D01*
X83748265Y-137993571D01*
X83742304Y-137969773D01*
X83738704Y-137945504D01*
X83737500Y-137921000D01*
X83737500Y-136671000D01*
X83738704Y-136646496D01*
X83742304Y-136622227D01*
X83748265Y-136598429D01*
X83756530Y-136575329D01*
X83767020Y-136553151D01*
X83779633Y-136532107D01*
X83794247Y-136512402D01*
X83810723Y-136494223D01*
X83828902Y-136477747D01*
X83848607Y-136463133D01*
X83869651Y-136450520D01*
X83891829Y-136440030D01*
X83914929Y-136431765D01*
X83938727Y-136425804D01*
X83962996Y-136422204D01*
X83987500Y-136421000D01*
X84912500Y-136421000D01*
X84937004Y-136422204D01*
G37*
G04 #@! TD.AperFunction*
D10*
X97658000Y-152790000D03*
D11*
X74798000Y-74050000D03*
X97658000Y-150250000D03*
X74798000Y-76590000D03*
X97658000Y-147710000D03*
X74798000Y-79130000D03*
X97658000Y-145170000D03*
X74798000Y-81670000D03*
X97658000Y-142630000D03*
X74798000Y-84210000D03*
X97658000Y-140090000D03*
X74798000Y-86750000D03*
X97658000Y-137550000D03*
X74798000Y-89290000D03*
X97658000Y-135010000D03*
X74798000Y-91830000D03*
X97658000Y-132470000D03*
X74798000Y-94370000D03*
X97658000Y-129930000D03*
X74798000Y-96910000D03*
X97658000Y-127390000D03*
X74798000Y-99450000D03*
X97658000Y-124850000D03*
X74798000Y-101990000D03*
X97658000Y-122310000D03*
X74798000Y-104530000D03*
X97658000Y-119770000D03*
X74798000Y-107070000D03*
X97658000Y-117230000D03*
X74798000Y-109610000D03*
X97658000Y-114690000D03*
X74798000Y-112150000D03*
X97658000Y-112150000D03*
X74798000Y-114690000D03*
X97658000Y-109610000D03*
X74798000Y-117230000D03*
X97658000Y-107070000D03*
X74798000Y-119770000D03*
X97658000Y-104530000D03*
X74798000Y-122310000D03*
X97658000Y-101990000D03*
X74798000Y-124850000D03*
X97658000Y-99450000D03*
X74798000Y-127390000D03*
X97658000Y-96910000D03*
X74798000Y-129930000D03*
X97658000Y-94370000D03*
X74798000Y-132470000D03*
X97658000Y-91830000D03*
X74798000Y-135010000D03*
X97658000Y-89290000D03*
X74798000Y-137550000D03*
X97658000Y-86750000D03*
X74798000Y-140090000D03*
X97658000Y-84210000D03*
X74798000Y-142630000D03*
X97658000Y-81670000D03*
X74798000Y-145170000D03*
X97658000Y-79130000D03*
X74798000Y-147710000D03*
X97658000Y-76590000D03*
X74798000Y-150250000D03*
X97658000Y-74050000D03*
X74798000Y-152790000D03*
D13*
X52200000Y-97860000D03*
D14*
X54740000Y-97860000D03*
X57280000Y-97860000D03*
G04 #@! TA.AperFunction,SMDPad,CuDef*
D12*
G36*
X84338703Y-127217722D02*
G01*
X84353264Y-127219882D01*
X84367543Y-127223459D01*
X84381403Y-127228418D01*
X84394710Y-127234712D01*
X84407336Y-127242280D01*
X84419159Y-127251048D01*
X84430066Y-127260934D01*
X84439952Y-127271841D01*
X84448720Y-127283664D01*
X84456288Y-127296290D01*
X84462582Y-127309597D01*
X84467541Y-127323457D01*
X84471118Y-127337736D01*
X84473278Y-127352297D01*
X84474000Y-127367000D01*
X84474000Y-127667000D01*
X84473278Y-127681703D01*
X84471118Y-127696264D01*
X84467541Y-127710543D01*
X84462582Y-127724403D01*
X84456288Y-127737710D01*
X84448720Y-127750336D01*
X84439952Y-127762159D01*
X84430066Y-127773066D01*
X84419159Y-127782952D01*
X84407336Y-127791720D01*
X84394710Y-127799288D01*
X84381403Y-127805582D01*
X84367543Y-127810541D01*
X84353264Y-127814118D01*
X84338703Y-127816278D01*
X84324000Y-127817000D01*
X82674000Y-127817000D01*
X82659297Y-127816278D01*
X82644736Y-127814118D01*
X82630457Y-127810541D01*
X82616597Y-127805582D01*
X82603290Y-127799288D01*
X82590664Y-127791720D01*
X82578841Y-127782952D01*
X82567934Y-127773066D01*
X82558048Y-127762159D01*
X82549280Y-127750336D01*
X82541712Y-127737710D01*
X82535418Y-127724403D01*
X82530459Y-127710543D01*
X82526882Y-127696264D01*
X82524722Y-127681703D01*
X82524000Y-127667000D01*
X82524000Y-127367000D01*
X82524722Y-127352297D01*
X82526882Y-127337736D01*
X82530459Y-127323457D01*
X82535418Y-127309597D01*
X82541712Y-127296290D01*
X82549280Y-127283664D01*
X82558048Y-127271841D01*
X82567934Y-127260934D01*
X82578841Y-127251048D01*
X82590664Y-127242280D01*
X82603290Y-127234712D01*
X82616597Y-127228418D01*
X82630457Y-127223459D01*
X82644736Y-127219882D01*
X82659297Y-127217722D01*
X82674000Y-127217000D01*
X84324000Y-127217000D01*
X84338703Y-127217722D01*
G37*
G04 #@! TD.AperFunction*
G04 #@! TA.AperFunction,SMDPad,CuDef*
G36*
X84338703Y-125947722D02*
G01*
X84353264Y-125949882D01*
X84367543Y-125953459D01*
X84381403Y-125958418D01*
X84394710Y-125964712D01*
X84407336Y-125972280D01*
X84419159Y-125981048D01*
X84430066Y-125990934D01*
X84439952Y-126001841D01*
X84448720Y-126013664D01*
X84456288Y-126026290D01*
X84462582Y-126039597D01*
X84467541Y-126053457D01*
X84471118Y-126067736D01*
X84473278Y-126082297D01*
X84474000Y-126097000D01*
X84474000Y-126397000D01*
X84473278Y-126411703D01*
X84471118Y-126426264D01*
X84467541Y-126440543D01*
X84462582Y-126454403D01*
X84456288Y-126467710D01*
X84448720Y-126480336D01*
X84439952Y-126492159D01*
X84430066Y-126503066D01*
X84419159Y-126512952D01*
X84407336Y-126521720D01*
X84394710Y-126529288D01*
X84381403Y-126535582D01*
X84367543Y-126540541D01*
X84353264Y-126544118D01*
X84338703Y-126546278D01*
X84324000Y-126547000D01*
X82674000Y-126547000D01*
X82659297Y-126546278D01*
X82644736Y-126544118D01*
X82630457Y-126540541D01*
X82616597Y-126535582D01*
X82603290Y-126529288D01*
X82590664Y-126521720D01*
X82578841Y-126512952D01*
X82567934Y-126503066D01*
X82558048Y-126492159D01*
X82549280Y-126480336D01*
X82541712Y-126467710D01*
X82535418Y-126454403D01*
X82530459Y-126440543D01*
X82526882Y-126426264D01*
X82524722Y-126411703D01*
X82524000Y-126397000D01*
X82524000Y-126097000D01*
X82524722Y-126082297D01*
X82526882Y-126067736D01*
X82530459Y-126053457D01*
X82535418Y-126039597D01*
X82541712Y-126026290D01*
X82549280Y-126013664D01*
X82558048Y-126001841D01*
X82567934Y-125990934D01*
X82578841Y-125981048D01*
X82590664Y-125972280D01*
X82603290Y-125964712D01*
X82616597Y-125958418D01*
X82630457Y-125953459D01*
X82644736Y-125949882D01*
X82659297Y-125947722D01*
X82674000Y-125947000D01*
X84324000Y-125947000D01*
X84338703Y-125947722D01*
G37*
G04 #@! TD.AperFunction*
G04 #@! TA.AperFunction,SMDPad,CuDef*
G36*
X84338703Y-124677722D02*
G01*
X84353264Y-124679882D01*
X84367543Y-124683459D01*
X84381403Y-124688418D01*
X84394710Y-124694712D01*
X84407336Y-124702280D01*
X84419159Y-124711048D01*
X84430066Y-124720934D01*
X84439952Y-124731841D01*
X84448720Y-124743664D01*
X84456288Y-124756290D01*
X84462582Y-124769597D01*
X84467541Y-124783457D01*
X84471118Y-124797736D01*
X84473278Y-124812297D01*
X84474000Y-124827000D01*
X84474000Y-125127000D01*
X84473278Y-125141703D01*
X84471118Y-125156264D01*
X84467541Y-125170543D01*
X84462582Y-125184403D01*
X84456288Y-125197710D01*
X84448720Y-125210336D01*
X84439952Y-125222159D01*
X84430066Y-125233066D01*
X84419159Y-125242952D01*
X84407336Y-125251720D01*
X84394710Y-125259288D01*
X84381403Y-125265582D01*
X84367543Y-125270541D01*
X84353264Y-125274118D01*
X84338703Y-125276278D01*
X84324000Y-125277000D01*
X82674000Y-125277000D01*
X82659297Y-125276278D01*
X82644736Y-125274118D01*
X82630457Y-125270541D01*
X82616597Y-125265582D01*
X82603290Y-125259288D01*
X82590664Y-125251720D01*
X82578841Y-125242952D01*
X82567934Y-125233066D01*
X82558048Y-125222159D01*
X82549280Y-125210336D01*
X82541712Y-125197710D01*
X82535418Y-125184403D01*
X82530459Y-125170543D01*
X82526882Y-125156264D01*
X82524722Y-125141703D01*
X82524000Y-125127000D01*
X82524000Y-124827000D01*
X82524722Y-124812297D01*
X82526882Y-124797736D01*
X82530459Y-124783457D01*
X82535418Y-124769597D01*
X82541712Y-124756290D01*
X82549280Y-124743664D01*
X82558048Y-124731841D01*
X82567934Y-124720934D01*
X82578841Y-124711048D01*
X82590664Y-124702280D01*
X82603290Y-124694712D01*
X82616597Y-124688418D01*
X82630457Y-124683459D01*
X82644736Y-124679882D01*
X82659297Y-124677722D01*
X82674000Y-124677000D01*
X84324000Y-124677000D01*
X84338703Y-124677722D01*
G37*
G04 #@! TD.AperFunction*
G04 #@! TA.AperFunction,SMDPad,CuDef*
G36*
X84338703Y-123407722D02*
G01*
X84353264Y-123409882D01*
X84367543Y-123413459D01*
X84381403Y-123418418D01*
X84394710Y-123424712D01*
X84407336Y-123432280D01*
X84419159Y-123441048D01*
X84430066Y-123450934D01*
X84439952Y-123461841D01*
X84448720Y-123473664D01*
X84456288Y-123486290D01*
X84462582Y-123499597D01*
X84467541Y-123513457D01*
X84471118Y-123527736D01*
X84473278Y-123542297D01*
X84474000Y-123557000D01*
X84474000Y-123857000D01*
X84473278Y-123871703D01*
X84471118Y-123886264D01*
X84467541Y-123900543D01*
X84462582Y-123914403D01*
X84456288Y-123927710D01*
X84448720Y-123940336D01*
X84439952Y-123952159D01*
X84430066Y-123963066D01*
X84419159Y-123972952D01*
X84407336Y-123981720D01*
X84394710Y-123989288D01*
X84381403Y-123995582D01*
X84367543Y-124000541D01*
X84353264Y-124004118D01*
X84338703Y-124006278D01*
X84324000Y-124007000D01*
X82674000Y-124007000D01*
X82659297Y-124006278D01*
X82644736Y-124004118D01*
X82630457Y-124000541D01*
X82616597Y-123995582D01*
X82603290Y-123989288D01*
X82590664Y-123981720D01*
X82578841Y-123972952D01*
X82567934Y-123963066D01*
X82558048Y-123952159D01*
X82549280Y-123940336D01*
X82541712Y-123927710D01*
X82535418Y-123914403D01*
X82530459Y-123900543D01*
X82526882Y-123886264D01*
X82524722Y-123871703D01*
X82524000Y-123857000D01*
X82524000Y-123557000D01*
X82524722Y-123542297D01*
X82526882Y-123527736D01*
X82530459Y-123513457D01*
X82535418Y-123499597D01*
X82541712Y-123486290D01*
X82549280Y-123473664D01*
X82558048Y-123461841D01*
X82567934Y-123450934D01*
X82578841Y-123441048D01*
X82590664Y-123432280D01*
X82603290Y-123424712D01*
X82616597Y-123418418D01*
X82630457Y-123413459D01*
X82644736Y-123409882D01*
X82659297Y-123407722D01*
X82674000Y-123407000D01*
X84324000Y-123407000D01*
X84338703Y-123407722D01*
G37*
G04 #@! TD.AperFunction*
G04 #@! TA.AperFunction,SMDPad,CuDef*
G36*
X84338703Y-122137722D02*
G01*
X84353264Y-122139882D01*
X84367543Y-122143459D01*
X84381403Y-122148418D01*
X84394710Y-122154712D01*
X84407336Y-122162280D01*
X84419159Y-122171048D01*
X84430066Y-122180934D01*
X84439952Y-122191841D01*
X84448720Y-122203664D01*
X84456288Y-122216290D01*
X84462582Y-122229597D01*
X84467541Y-122243457D01*
X84471118Y-122257736D01*
X84473278Y-122272297D01*
X84474000Y-122287000D01*
X84474000Y-122587000D01*
X84473278Y-122601703D01*
X84471118Y-122616264D01*
X84467541Y-122630543D01*
X84462582Y-122644403D01*
X84456288Y-122657710D01*
X84448720Y-122670336D01*
X84439952Y-122682159D01*
X84430066Y-122693066D01*
X84419159Y-122702952D01*
X84407336Y-122711720D01*
X84394710Y-122719288D01*
X84381403Y-122725582D01*
X84367543Y-122730541D01*
X84353264Y-122734118D01*
X84338703Y-122736278D01*
X84324000Y-122737000D01*
X82674000Y-122737000D01*
X82659297Y-122736278D01*
X82644736Y-122734118D01*
X82630457Y-122730541D01*
X82616597Y-122725582D01*
X82603290Y-122719288D01*
X82590664Y-122711720D01*
X82578841Y-122702952D01*
X82567934Y-122693066D01*
X82558048Y-122682159D01*
X82549280Y-122670336D01*
X82541712Y-122657710D01*
X82535418Y-122644403D01*
X82530459Y-122630543D01*
X82526882Y-122616264D01*
X82524722Y-122601703D01*
X82524000Y-122587000D01*
X82524000Y-122287000D01*
X82524722Y-122272297D01*
X82526882Y-122257736D01*
X82530459Y-122243457D01*
X82535418Y-122229597D01*
X82541712Y-122216290D01*
X82549280Y-122203664D01*
X82558048Y-122191841D01*
X82567934Y-122180934D01*
X82578841Y-122171048D01*
X82590664Y-122162280D01*
X82603290Y-122154712D01*
X82616597Y-122148418D01*
X82630457Y-122143459D01*
X82644736Y-122139882D01*
X82659297Y-122137722D01*
X82674000Y-122137000D01*
X84324000Y-122137000D01*
X84338703Y-122137722D01*
G37*
G04 #@! TD.AperFunction*
G04 #@! TA.AperFunction,SMDPad,CuDef*
G36*
X84338703Y-120867722D02*
G01*
X84353264Y-120869882D01*
X84367543Y-120873459D01*
X84381403Y-120878418D01*
X84394710Y-120884712D01*
X84407336Y-120892280D01*
X84419159Y-120901048D01*
X84430066Y-120910934D01*
X84439952Y-120921841D01*
X84448720Y-120933664D01*
X84456288Y-120946290D01*
X84462582Y-120959597D01*
X84467541Y-120973457D01*
X84471118Y-120987736D01*
X84473278Y-121002297D01*
X84474000Y-121017000D01*
X84474000Y-121317000D01*
X84473278Y-121331703D01*
X84471118Y-121346264D01*
X84467541Y-121360543D01*
X84462582Y-121374403D01*
X84456288Y-121387710D01*
X84448720Y-121400336D01*
X84439952Y-121412159D01*
X84430066Y-121423066D01*
X84419159Y-121432952D01*
X84407336Y-121441720D01*
X84394710Y-121449288D01*
X84381403Y-121455582D01*
X84367543Y-121460541D01*
X84353264Y-121464118D01*
X84338703Y-121466278D01*
X84324000Y-121467000D01*
X82674000Y-121467000D01*
X82659297Y-121466278D01*
X82644736Y-121464118D01*
X82630457Y-121460541D01*
X82616597Y-121455582D01*
X82603290Y-121449288D01*
X82590664Y-121441720D01*
X82578841Y-121432952D01*
X82567934Y-121423066D01*
X82558048Y-121412159D01*
X82549280Y-121400336D01*
X82541712Y-121387710D01*
X82535418Y-121374403D01*
X82530459Y-121360543D01*
X82526882Y-121346264D01*
X82524722Y-121331703D01*
X82524000Y-121317000D01*
X82524000Y-121017000D01*
X82524722Y-121002297D01*
X82526882Y-120987736D01*
X82530459Y-120973457D01*
X82535418Y-120959597D01*
X82541712Y-120946290D01*
X82549280Y-120933664D01*
X82558048Y-120921841D01*
X82567934Y-120910934D01*
X82578841Y-120901048D01*
X82590664Y-120892280D01*
X82603290Y-120884712D01*
X82616597Y-120878418D01*
X82630457Y-120873459D01*
X82644736Y-120869882D01*
X82659297Y-120867722D01*
X82674000Y-120867000D01*
X84324000Y-120867000D01*
X84338703Y-120867722D01*
G37*
G04 #@! TD.AperFunction*
G04 #@! TA.AperFunction,SMDPad,CuDef*
G36*
X84338703Y-119597722D02*
G01*
X84353264Y-119599882D01*
X84367543Y-119603459D01*
X84381403Y-119608418D01*
X84394710Y-119614712D01*
X84407336Y-119622280D01*
X84419159Y-119631048D01*
X84430066Y-119640934D01*
X84439952Y-119651841D01*
X84448720Y-119663664D01*
X84456288Y-119676290D01*
X84462582Y-119689597D01*
X84467541Y-119703457D01*
X84471118Y-119717736D01*
X84473278Y-119732297D01*
X84474000Y-119747000D01*
X84474000Y-120047000D01*
X84473278Y-120061703D01*
X84471118Y-120076264D01*
X84467541Y-120090543D01*
X84462582Y-120104403D01*
X84456288Y-120117710D01*
X84448720Y-120130336D01*
X84439952Y-120142159D01*
X84430066Y-120153066D01*
X84419159Y-120162952D01*
X84407336Y-120171720D01*
X84394710Y-120179288D01*
X84381403Y-120185582D01*
X84367543Y-120190541D01*
X84353264Y-120194118D01*
X84338703Y-120196278D01*
X84324000Y-120197000D01*
X82674000Y-120197000D01*
X82659297Y-120196278D01*
X82644736Y-120194118D01*
X82630457Y-120190541D01*
X82616597Y-120185582D01*
X82603290Y-120179288D01*
X82590664Y-120171720D01*
X82578841Y-120162952D01*
X82567934Y-120153066D01*
X82558048Y-120142159D01*
X82549280Y-120130336D01*
X82541712Y-120117710D01*
X82535418Y-120104403D01*
X82530459Y-120090543D01*
X82526882Y-120076264D01*
X82524722Y-120061703D01*
X82524000Y-120047000D01*
X82524000Y-119747000D01*
X82524722Y-119732297D01*
X82526882Y-119717736D01*
X82530459Y-119703457D01*
X82535418Y-119689597D01*
X82541712Y-119676290D01*
X82549280Y-119663664D01*
X82558048Y-119651841D01*
X82567934Y-119640934D01*
X82578841Y-119631048D01*
X82590664Y-119622280D01*
X82603290Y-119614712D01*
X82616597Y-119608418D01*
X82630457Y-119603459D01*
X82644736Y-119599882D01*
X82659297Y-119597722D01*
X82674000Y-119597000D01*
X84324000Y-119597000D01*
X84338703Y-119597722D01*
G37*
G04 #@! TD.AperFunction*
G04 #@! TA.AperFunction,SMDPad,CuDef*
G36*
X84338703Y-118327722D02*
G01*
X84353264Y-118329882D01*
X84367543Y-118333459D01*
X84381403Y-118338418D01*
X84394710Y-118344712D01*
X84407336Y-118352280D01*
X84419159Y-118361048D01*
X84430066Y-118370934D01*
X84439952Y-118381841D01*
X84448720Y-118393664D01*
X84456288Y-118406290D01*
X84462582Y-118419597D01*
X84467541Y-118433457D01*
X84471118Y-118447736D01*
X84473278Y-118462297D01*
X84474000Y-118477000D01*
X84474000Y-118777000D01*
X84473278Y-118791703D01*
X84471118Y-118806264D01*
X84467541Y-118820543D01*
X84462582Y-118834403D01*
X84456288Y-118847710D01*
X84448720Y-118860336D01*
X84439952Y-118872159D01*
X84430066Y-118883066D01*
X84419159Y-118892952D01*
X84407336Y-118901720D01*
X84394710Y-118909288D01*
X84381403Y-118915582D01*
X84367543Y-118920541D01*
X84353264Y-118924118D01*
X84338703Y-118926278D01*
X84324000Y-118927000D01*
X82674000Y-118927000D01*
X82659297Y-118926278D01*
X82644736Y-118924118D01*
X82630457Y-118920541D01*
X82616597Y-118915582D01*
X82603290Y-118909288D01*
X82590664Y-118901720D01*
X82578841Y-118892952D01*
X82567934Y-118883066D01*
X82558048Y-118872159D01*
X82549280Y-118860336D01*
X82541712Y-118847710D01*
X82535418Y-118834403D01*
X82530459Y-118820543D01*
X82526882Y-118806264D01*
X82524722Y-118791703D01*
X82524000Y-118777000D01*
X82524000Y-118477000D01*
X82524722Y-118462297D01*
X82526882Y-118447736D01*
X82530459Y-118433457D01*
X82535418Y-118419597D01*
X82541712Y-118406290D01*
X82549280Y-118393664D01*
X82558048Y-118381841D01*
X82567934Y-118370934D01*
X82578841Y-118361048D01*
X82590664Y-118352280D01*
X82603290Y-118344712D01*
X82616597Y-118338418D01*
X82630457Y-118333459D01*
X82644736Y-118329882D01*
X82659297Y-118327722D01*
X82674000Y-118327000D01*
X84324000Y-118327000D01*
X84338703Y-118327722D01*
G37*
G04 #@! TD.AperFunction*
G04 #@! TA.AperFunction,SMDPad,CuDef*
G36*
X89288703Y-118327722D02*
G01*
X89303264Y-118329882D01*
X89317543Y-118333459D01*
X89331403Y-118338418D01*
X89344710Y-118344712D01*
X89357336Y-118352280D01*
X89369159Y-118361048D01*
X89380066Y-118370934D01*
X89389952Y-118381841D01*
X89398720Y-118393664D01*
X89406288Y-118406290D01*
X89412582Y-118419597D01*
X89417541Y-118433457D01*
X89421118Y-118447736D01*
X89423278Y-118462297D01*
X89424000Y-118477000D01*
X89424000Y-118777000D01*
X89423278Y-118791703D01*
X89421118Y-118806264D01*
X89417541Y-118820543D01*
X89412582Y-118834403D01*
X89406288Y-118847710D01*
X89398720Y-118860336D01*
X89389952Y-118872159D01*
X89380066Y-118883066D01*
X89369159Y-118892952D01*
X89357336Y-118901720D01*
X89344710Y-118909288D01*
X89331403Y-118915582D01*
X89317543Y-118920541D01*
X89303264Y-118924118D01*
X89288703Y-118926278D01*
X89274000Y-118927000D01*
X87624000Y-118927000D01*
X87609297Y-118926278D01*
X87594736Y-118924118D01*
X87580457Y-118920541D01*
X87566597Y-118915582D01*
X87553290Y-118909288D01*
X87540664Y-118901720D01*
X87528841Y-118892952D01*
X87517934Y-118883066D01*
X87508048Y-118872159D01*
X87499280Y-118860336D01*
X87491712Y-118847710D01*
X87485418Y-118834403D01*
X87480459Y-118820543D01*
X87476882Y-118806264D01*
X87474722Y-118791703D01*
X87474000Y-118777000D01*
X87474000Y-118477000D01*
X87474722Y-118462297D01*
X87476882Y-118447736D01*
X87480459Y-118433457D01*
X87485418Y-118419597D01*
X87491712Y-118406290D01*
X87499280Y-118393664D01*
X87508048Y-118381841D01*
X87517934Y-118370934D01*
X87528841Y-118361048D01*
X87540664Y-118352280D01*
X87553290Y-118344712D01*
X87566597Y-118338418D01*
X87580457Y-118333459D01*
X87594736Y-118329882D01*
X87609297Y-118327722D01*
X87624000Y-118327000D01*
X89274000Y-118327000D01*
X89288703Y-118327722D01*
G37*
G04 #@! TD.AperFunction*
G04 #@! TA.AperFunction,SMDPad,CuDef*
G36*
X89288703Y-119597722D02*
G01*
X89303264Y-119599882D01*
X89317543Y-119603459D01*
X89331403Y-119608418D01*
X89344710Y-119614712D01*
X89357336Y-119622280D01*
X89369159Y-119631048D01*
X89380066Y-119640934D01*
X89389952Y-119651841D01*
X89398720Y-119663664D01*
X89406288Y-119676290D01*
X89412582Y-119689597D01*
X89417541Y-119703457D01*
X89421118Y-119717736D01*
X89423278Y-119732297D01*
X89424000Y-119747000D01*
X89424000Y-120047000D01*
X89423278Y-120061703D01*
X89421118Y-120076264D01*
X89417541Y-120090543D01*
X89412582Y-120104403D01*
X89406288Y-120117710D01*
X89398720Y-120130336D01*
X89389952Y-120142159D01*
X89380066Y-120153066D01*
X89369159Y-120162952D01*
X89357336Y-120171720D01*
X89344710Y-120179288D01*
X89331403Y-120185582D01*
X89317543Y-120190541D01*
X89303264Y-120194118D01*
X89288703Y-120196278D01*
X89274000Y-120197000D01*
X87624000Y-120197000D01*
X87609297Y-120196278D01*
X87594736Y-120194118D01*
X87580457Y-120190541D01*
X87566597Y-120185582D01*
X87553290Y-120179288D01*
X87540664Y-120171720D01*
X87528841Y-120162952D01*
X87517934Y-120153066D01*
X87508048Y-120142159D01*
X87499280Y-120130336D01*
X87491712Y-120117710D01*
X87485418Y-120104403D01*
X87480459Y-120090543D01*
X87476882Y-120076264D01*
X87474722Y-120061703D01*
X87474000Y-120047000D01*
X87474000Y-119747000D01*
X87474722Y-119732297D01*
X87476882Y-119717736D01*
X87480459Y-119703457D01*
X87485418Y-119689597D01*
X87491712Y-119676290D01*
X87499280Y-119663664D01*
X87508048Y-119651841D01*
X87517934Y-119640934D01*
X87528841Y-119631048D01*
X87540664Y-119622280D01*
X87553290Y-119614712D01*
X87566597Y-119608418D01*
X87580457Y-119603459D01*
X87594736Y-119599882D01*
X87609297Y-119597722D01*
X87624000Y-119597000D01*
X89274000Y-119597000D01*
X89288703Y-119597722D01*
G37*
G04 #@! TD.AperFunction*
G04 #@! TA.AperFunction,SMDPad,CuDef*
G36*
X89288703Y-120867722D02*
G01*
X89303264Y-120869882D01*
X89317543Y-120873459D01*
X89331403Y-120878418D01*
X89344710Y-120884712D01*
X89357336Y-120892280D01*
X89369159Y-120901048D01*
X89380066Y-120910934D01*
X89389952Y-120921841D01*
X89398720Y-120933664D01*
X89406288Y-120946290D01*
X89412582Y-120959597D01*
X89417541Y-120973457D01*
X89421118Y-120987736D01*
X89423278Y-121002297D01*
X89424000Y-121017000D01*
X89424000Y-121317000D01*
X89423278Y-121331703D01*
X89421118Y-121346264D01*
X89417541Y-121360543D01*
X89412582Y-121374403D01*
X89406288Y-121387710D01*
X89398720Y-121400336D01*
X89389952Y-121412159D01*
X89380066Y-121423066D01*
X89369159Y-121432952D01*
X89357336Y-121441720D01*
X89344710Y-121449288D01*
X89331403Y-121455582D01*
X89317543Y-121460541D01*
X89303264Y-121464118D01*
X89288703Y-121466278D01*
X89274000Y-121467000D01*
X87624000Y-121467000D01*
X87609297Y-121466278D01*
X87594736Y-121464118D01*
X87580457Y-121460541D01*
X87566597Y-121455582D01*
X87553290Y-121449288D01*
X87540664Y-121441720D01*
X87528841Y-121432952D01*
X87517934Y-121423066D01*
X87508048Y-121412159D01*
X87499280Y-121400336D01*
X87491712Y-121387710D01*
X87485418Y-121374403D01*
X87480459Y-121360543D01*
X87476882Y-121346264D01*
X87474722Y-121331703D01*
X87474000Y-121317000D01*
X87474000Y-121017000D01*
X87474722Y-121002297D01*
X87476882Y-120987736D01*
X87480459Y-120973457D01*
X87485418Y-120959597D01*
X87491712Y-120946290D01*
X87499280Y-120933664D01*
X87508048Y-120921841D01*
X87517934Y-120910934D01*
X87528841Y-120901048D01*
X87540664Y-120892280D01*
X87553290Y-120884712D01*
X87566597Y-120878418D01*
X87580457Y-120873459D01*
X87594736Y-120869882D01*
X87609297Y-120867722D01*
X87624000Y-120867000D01*
X89274000Y-120867000D01*
X89288703Y-120867722D01*
G37*
G04 #@! TD.AperFunction*
G04 #@! TA.AperFunction,SMDPad,CuDef*
G36*
X89288703Y-122137722D02*
G01*
X89303264Y-122139882D01*
X89317543Y-122143459D01*
X89331403Y-122148418D01*
X89344710Y-122154712D01*
X89357336Y-122162280D01*
X89369159Y-122171048D01*
X89380066Y-122180934D01*
X89389952Y-122191841D01*
X89398720Y-122203664D01*
X89406288Y-122216290D01*
X89412582Y-122229597D01*
X89417541Y-122243457D01*
X89421118Y-122257736D01*
X89423278Y-122272297D01*
X89424000Y-122287000D01*
X89424000Y-122587000D01*
X89423278Y-122601703D01*
X89421118Y-122616264D01*
X89417541Y-122630543D01*
X89412582Y-122644403D01*
X89406288Y-122657710D01*
X89398720Y-122670336D01*
X89389952Y-122682159D01*
X89380066Y-122693066D01*
X89369159Y-122702952D01*
X89357336Y-122711720D01*
X89344710Y-122719288D01*
X89331403Y-122725582D01*
X89317543Y-122730541D01*
X89303264Y-122734118D01*
X89288703Y-122736278D01*
X89274000Y-122737000D01*
X87624000Y-122737000D01*
X87609297Y-122736278D01*
X87594736Y-122734118D01*
X87580457Y-122730541D01*
X87566597Y-122725582D01*
X87553290Y-122719288D01*
X87540664Y-122711720D01*
X87528841Y-122702952D01*
X87517934Y-122693066D01*
X87508048Y-122682159D01*
X87499280Y-122670336D01*
X87491712Y-122657710D01*
X87485418Y-122644403D01*
X87480459Y-122630543D01*
X87476882Y-122616264D01*
X87474722Y-122601703D01*
X87474000Y-122587000D01*
X87474000Y-122287000D01*
X87474722Y-122272297D01*
X87476882Y-122257736D01*
X87480459Y-122243457D01*
X87485418Y-122229597D01*
X87491712Y-122216290D01*
X87499280Y-122203664D01*
X87508048Y-122191841D01*
X87517934Y-122180934D01*
X87528841Y-122171048D01*
X87540664Y-122162280D01*
X87553290Y-122154712D01*
X87566597Y-122148418D01*
X87580457Y-122143459D01*
X87594736Y-122139882D01*
X87609297Y-122137722D01*
X87624000Y-122137000D01*
X89274000Y-122137000D01*
X89288703Y-122137722D01*
G37*
G04 #@! TD.AperFunction*
G04 #@! TA.AperFunction,SMDPad,CuDef*
G36*
X89288703Y-123407722D02*
G01*
X89303264Y-123409882D01*
X89317543Y-123413459D01*
X89331403Y-123418418D01*
X89344710Y-123424712D01*
X89357336Y-123432280D01*
X89369159Y-123441048D01*
X89380066Y-123450934D01*
X89389952Y-123461841D01*
X89398720Y-123473664D01*
X89406288Y-123486290D01*
X89412582Y-123499597D01*
X89417541Y-123513457D01*
X89421118Y-123527736D01*
X89423278Y-123542297D01*
X89424000Y-123557000D01*
X89424000Y-123857000D01*
X89423278Y-123871703D01*
X89421118Y-123886264D01*
X89417541Y-123900543D01*
X89412582Y-123914403D01*
X89406288Y-123927710D01*
X89398720Y-123940336D01*
X89389952Y-123952159D01*
X89380066Y-123963066D01*
X89369159Y-123972952D01*
X89357336Y-123981720D01*
X89344710Y-123989288D01*
X89331403Y-123995582D01*
X89317543Y-124000541D01*
X89303264Y-124004118D01*
X89288703Y-124006278D01*
X89274000Y-124007000D01*
X87624000Y-124007000D01*
X87609297Y-124006278D01*
X87594736Y-124004118D01*
X87580457Y-124000541D01*
X87566597Y-123995582D01*
X87553290Y-123989288D01*
X87540664Y-123981720D01*
X87528841Y-123972952D01*
X87517934Y-123963066D01*
X87508048Y-123952159D01*
X87499280Y-123940336D01*
X87491712Y-123927710D01*
X87485418Y-123914403D01*
X87480459Y-123900543D01*
X87476882Y-123886264D01*
X87474722Y-123871703D01*
X87474000Y-123857000D01*
X87474000Y-123557000D01*
X87474722Y-123542297D01*
X87476882Y-123527736D01*
X87480459Y-123513457D01*
X87485418Y-123499597D01*
X87491712Y-123486290D01*
X87499280Y-123473664D01*
X87508048Y-123461841D01*
X87517934Y-123450934D01*
X87528841Y-123441048D01*
X87540664Y-123432280D01*
X87553290Y-123424712D01*
X87566597Y-123418418D01*
X87580457Y-123413459D01*
X87594736Y-123409882D01*
X87609297Y-123407722D01*
X87624000Y-123407000D01*
X89274000Y-123407000D01*
X89288703Y-123407722D01*
G37*
G04 #@! TD.AperFunction*
G04 #@! TA.AperFunction,SMDPad,CuDef*
G36*
X89288703Y-124677722D02*
G01*
X89303264Y-124679882D01*
X89317543Y-124683459D01*
X89331403Y-124688418D01*
X89344710Y-124694712D01*
X89357336Y-124702280D01*
X89369159Y-124711048D01*
X89380066Y-124720934D01*
X89389952Y-124731841D01*
X89398720Y-124743664D01*
X89406288Y-124756290D01*
X89412582Y-124769597D01*
X89417541Y-124783457D01*
X89421118Y-124797736D01*
X89423278Y-124812297D01*
X89424000Y-124827000D01*
X89424000Y-125127000D01*
X89423278Y-125141703D01*
X89421118Y-125156264D01*
X89417541Y-125170543D01*
X89412582Y-125184403D01*
X89406288Y-125197710D01*
X89398720Y-125210336D01*
X89389952Y-125222159D01*
X89380066Y-125233066D01*
X89369159Y-125242952D01*
X89357336Y-125251720D01*
X89344710Y-125259288D01*
X89331403Y-125265582D01*
X89317543Y-125270541D01*
X89303264Y-125274118D01*
X89288703Y-125276278D01*
X89274000Y-125277000D01*
X87624000Y-125277000D01*
X87609297Y-125276278D01*
X87594736Y-125274118D01*
X87580457Y-125270541D01*
X87566597Y-125265582D01*
X87553290Y-125259288D01*
X87540664Y-125251720D01*
X87528841Y-125242952D01*
X87517934Y-125233066D01*
X87508048Y-125222159D01*
X87499280Y-125210336D01*
X87491712Y-125197710D01*
X87485418Y-125184403D01*
X87480459Y-125170543D01*
X87476882Y-125156264D01*
X87474722Y-125141703D01*
X87474000Y-125127000D01*
X87474000Y-124827000D01*
X87474722Y-124812297D01*
X87476882Y-124797736D01*
X87480459Y-124783457D01*
X87485418Y-124769597D01*
X87491712Y-124756290D01*
X87499280Y-124743664D01*
X87508048Y-124731841D01*
X87517934Y-124720934D01*
X87528841Y-124711048D01*
X87540664Y-124702280D01*
X87553290Y-124694712D01*
X87566597Y-124688418D01*
X87580457Y-124683459D01*
X87594736Y-124679882D01*
X87609297Y-124677722D01*
X87624000Y-124677000D01*
X89274000Y-124677000D01*
X89288703Y-124677722D01*
G37*
G04 #@! TD.AperFunction*
G04 #@! TA.AperFunction,SMDPad,CuDef*
G36*
X89288703Y-125947722D02*
G01*
X89303264Y-125949882D01*
X89317543Y-125953459D01*
X89331403Y-125958418D01*
X89344710Y-125964712D01*
X89357336Y-125972280D01*
X89369159Y-125981048D01*
X89380066Y-125990934D01*
X89389952Y-126001841D01*
X89398720Y-126013664D01*
X89406288Y-126026290D01*
X89412582Y-126039597D01*
X89417541Y-126053457D01*
X89421118Y-126067736D01*
X89423278Y-126082297D01*
X89424000Y-126097000D01*
X89424000Y-126397000D01*
X89423278Y-126411703D01*
X89421118Y-126426264D01*
X89417541Y-126440543D01*
X89412582Y-126454403D01*
X89406288Y-126467710D01*
X89398720Y-126480336D01*
X89389952Y-126492159D01*
X89380066Y-126503066D01*
X89369159Y-126512952D01*
X89357336Y-126521720D01*
X89344710Y-126529288D01*
X89331403Y-126535582D01*
X89317543Y-126540541D01*
X89303264Y-126544118D01*
X89288703Y-126546278D01*
X89274000Y-126547000D01*
X87624000Y-126547000D01*
X87609297Y-126546278D01*
X87594736Y-126544118D01*
X87580457Y-126540541D01*
X87566597Y-126535582D01*
X87553290Y-126529288D01*
X87540664Y-126521720D01*
X87528841Y-126512952D01*
X87517934Y-126503066D01*
X87508048Y-126492159D01*
X87499280Y-126480336D01*
X87491712Y-126467710D01*
X87485418Y-126454403D01*
X87480459Y-126440543D01*
X87476882Y-126426264D01*
X87474722Y-126411703D01*
X87474000Y-126397000D01*
X87474000Y-126097000D01*
X87474722Y-126082297D01*
X87476882Y-126067736D01*
X87480459Y-126053457D01*
X87485418Y-126039597D01*
X87491712Y-126026290D01*
X87499280Y-126013664D01*
X87508048Y-126001841D01*
X87517934Y-125990934D01*
X87528841Y-125981048D01*
X87540664Y-125972280D01*
X87553290Y-125964712D01*
X87566597Y-125958418D01*
X87580457Y-125953459D01*
X87594736Y-125949882D01*
X87609297Y-125947722D01*
X87624000Y-125947000D01*
X89274000Y-125947000D01*
X89288703Y-125947722D01*
G37*
G04 #@! TD.AperFunction*
G04 #@! TA.AperFunction,SMDPad,CuDef*
G36*
X89288703Y-127217722D02*
G01*
X89303264Y-127219882D01*
X89317543Y-127223459D01*
X89331403Y-127228418D01*
X89344710Y-127234712D01*
X89357336Y-127242280D01*
X89369159Y-127251048D01*
X89380066Y-127260934D01*
X89389952Y-127271841D01*
X89398720Y-127283664D01*
X89406288Y-127296290D01*
X89412582Y-127309597D01*
X89417541Y-127323457D01*
X89421118Y-127337736D01*
X89423278Y-127352297D01*
X89424000Y-127367000D01*
X89424000Y-127667000D01*
X89423278Y-127681703D01*
X89421118Y-127696264D01*
X89417541Y-127710543D01*
X89412582Y-127724403D01*
X89406288Y-127737710D01*
X89398720Y-127750336D01*
X89389952Y-127762159D01*
X89380066Y-127773066D01*
X89369159Y-127782952D01*
X89357336Y-127791720D01*
X89344710Y-127799288D01*
X89331403Y-127805582D01*
X89317543Y-127810541D01*
X89303264Y-127814118D01*
X89288703Y-127816278D01*
X89274000Y-127817000D01*
X87624000Y-127817000D01*
X87609297Y-127816278D01*
X87594736Y-127814118D01*
X87580457Y-127810541D01*
X87566597Y-127805582D01*
X87553290Y-127799288D01*
X87540664Y-127791720D01*
X87528841Y-127782952D01*
X87517934Y-127773066D01*
X87508048Y-127762159D01*
X87499280Y-127750336D01*
X87491712Y-127737710D01*
X87485418Y-127724403D01*
X87480459Y-127710543D01*
X87476882Y-127696264D01*
X87474722Y-127681703D01*
X87474000Y-127667000D01*
X87474000Y-127367000D01*
X87474722Y-127352297D01*
X87476882Y-127337736D01*
X87480459Y-127323457D01*
X87485418Y-127309597D01*
X87491712Y-127296290D01*
X87499280Y-127283664D01*
X87508048Y-127271841D01*
X87517934Y-127260934D01*
X87528841Y-127251048D01*
X87540664Y-127242280D01*
X87553290Y-127234712D01*
X87566597Y-127228418D01*
X87580457Y-127223459D01*
X87594736Y-127219882D01*
X87609297Y-127217722D01*
X87624000Y-127217000D01*
X89274000Y-127217000D01*
X89288703Y-127217722D01*
G37*
G04 #@! TD.AperFunction*
D10*
X182118000Y-114300000D03*
D11*
X103378000Y-137160000D03*
X179578000Y-114300000D03*
X105918000Y-137160000D03*
X177038000Y-114300000D03*
X108458000Y-137160000D03*
X174498000Y-114300000D03*
X110998000Y-137160000D03*
X171958000Y-114300000D03*
X113538000Y-137160000D03*
X169418000Y-114300000D03*
X116078000Y-137160000D03*
X166878000Y-114300000D03*
X118618000Y-137160000D03*
X164338000Y-114300000D03*
X121158000Y-137160000D03*
X161798000Y-114300000D03*
X123698000Y-137160000D03*
X159258000Y-114300000D03*
X126238000Y-137160000D03*
X156718000Y-114300000D03*
X128778000Y-137160000D03*
X154178000Y-114300000D03*
X131318000Y-137160000D03*
X151638000Y-114300000D03*
X133858000Y-137160000D03*
X149098000Y-114300000D03*
X136398000Y-137160000D03*
X146558000Y-114300000D03*
X138938000Y-137160000D03*
X144018000Y-114300000D03*
X141478000Y-137160000D03*
X141478000Y-114300000D03*
X144018000Y-137160000D03*
X138938000Y-114300000D03*
X146558000Y-137160000D03*
X136398000Y-114300000D03*
X149098000Y-137160000D03*
X133858000Y-114300000D03*
X151638000Y-137160000D03*
X131318000Y-114300000D03*
X154178000Y-137160000D03*
X128778000Y-114300000D03*
X156718000Y-137160000D03*
X126238000Y-114300000D03*
X159258000Y-137160000D03*
X123698000Y-114300000D03*
X161798000Y-137160000D03*
X121158000Y-114300000D03*
X164338000Y-137160000D03*
X118618000Y-114300000D03*
X166878000Y-137160000D03*
X116078000Y-114300000D03*
X169418000Y-137160000D03*
X113538000Y-114300000D03*
X171958000Y-137160000D03*
X110998000Y-114300000D03*
X174498000Y-137160000D03*
X108458000Y-114300000D03*
X177038000Y-137160000D03*
X105918000Y-114300000D03*
X179578000Y-137160000D03*
X103378000Y-114300000D03*
X182118000Y-137160000D03*
D15*
X58750000Y-122570000D03*
X84450000Y-135360000D03*
X88400000Y-128820000D03*
X82440000Y-109550000D03*
X88371218Y-107018110D03*
X63330000Y-120900000D03*
X89230000Y-137240000D03*
X77699659Y-119059989D03*
X83360002Y-103100000D03*
X80258702Y-102588702D03*
X79235496Y-102975496D03*
X87300000Y-145200000D03*
X77740000Y-103330000D03*
X87900000Y-142820000D03*
X92940000Y-132160000D03*
X92200000Y-134490000D03*
X92550000Y-130689998D03*
X83520000Y-129750000D03*
X89679977Y-129750000D03*
X77620000Y-120690000D03*
X71292515Y-130672216D03*
X70850000Y-136767340D03*
X71360000Y-140490000D03*
X90220000Y-114350000D03*
X89934990Y-99697784D03*
X70874152Y-132941167D03*
X90660000Y-106740000D03*
X89804990Y-107518706D03*
X80540010Y-120140000D03*
D16*
X84450000Y-137296000D02*
X84450000Y-135360000D01*
X88400000Y-127566000D02*
X88449000Y-127517000D01*
X88400000Y-128820000D02*
X88400000Y-127566000D01*
X85203000Y-108656000D02*
X85203000Y-104276000D01*
X85203000Y-109356000D02*
X85203000Y-108656000D01*
X85203000Y-98896500D02*
X84740500Y-98434000D01*
X85203000Y-104276000D02*
X85203000Y-98896500D01*
X82440000Y-109550000D02*
X85009000Y-109550000D01*
X85009000Y-109550000D02*
X85203000Y-109356000D01*
X87481000Y-137240000D02*
X87425000Y-137296000D01*
X89230000Y-137240000D02*
X87481000Y-137240000D01*
X87253000Y-109356000D02*
X87253000Y-108656000D01*
X87253000Y-98896500D02*
X87715500Y-98434000D01*
X87253000Y-104276000D02*
X87253000Y-98896500D01*
X87338110Y-107018110D02*
X87260000Y-106940000D01*
X88371218Y-107018110D02*
X87338110Y-107018110D01*
X87253000Y-108656000D02*
X87260000Y-106940000D01*
X87260000Y-106940000D02*
X87253000Y-104276000D01*
X78535333Y-118790000D02*
X78265344Y-119059989D01*
X78265344Y-119059989D02*
X77699659Y-119059989D01*
X83499000Y-118627000D02*
X83336000Y-118790000D01*
X83336000Y-118790000D02*
X78535333Y-118790000D01*
D17*
X68221999Y-149460001D02*
X67422000Y-150260000D01*
X70660011Y-147021989D02*
X68221999Y-149460001D01*
X86623002Y-152790000D02*
X75143002Y-141310000D01*
X75143002Y-141310000D02*
X74452998Y-141310000D01*
X97658000Y-152790000D02*
X86623002Y-152790000D01*
X70660011Y-145102987D02*
X70660011Y-147021989D01*
X74452998Y-141310000D02*
X70660011Y-145102987D01*
X83360002Y-82612002D02*
X83360002Y-102534315D01*
X74798000Y-74050000D02*
X83360002Y-82612002D01*
X83360002Y-102534315D02*
X83360002Y-103100000D01*
X87870000Y-150250000D02*
X97658000Y-150250000D01*
X76430000Y-138810000D02*
X87870000Y-150250000D01*
X73940000Y-138810000D02*
X76430000Y-138810000D01*
X71880000Y-136750000D02*
X73940000Y-138810000D01*
X51560000Y-146440000D02*
X59416998Y-146440000D01*
X69320000Y-138740000D02*
X69530000Y-138530000D01*
X59416998Y-146440000D02*
X67116998Y-138740000D01*
X69530000Y-135610000D02*
X69580000Y-135660000D01*
X52182000Y-150260000D02*
X50860000Y-148938000D01*
X50860000Y-148938000D02*
X50860000Y-147140000D01*
X67116998Y-138740000D02*
X69320000Y-138740000D01*
X69530000Y-138530000D02*
X69530000Y-135610000D01*
X50860000Y-147140000D02*
X51560000Y-146440000D01*
X69580000Y-135660000D02*
X71880000Y-135660000D01*
X71880000Y-135660000D02*
X71880000Y-136750000D01*
X74798000Y-76590000D02*
X80258702Y-82050702D01*
X80258702Y-82050702D02*
X80258702Y-102023017D01*
X80258702Y-102023017D02*
X80258702Y-102588702D01*
X86666411Y-147710000D02*
X96526630Y-147710000D01*
X75176411Y-136220000D02*
X86666411Y-147710000D01*
X96526630Y-147710000D02*
X97658000Y-147710000D01*
X73780002Y-136220000D02*
X75176411Y-136220000D01*
X66287002Y-131074998D02*
X69565587Y-131074998D01*
X52182000Y-145180000D02*
X66287002Y-131074998D01*
X69565587Y-131074998D02*
X70765587Y-129874998D01*
X72255002Y-134695000D02*
X73780002Y-136220000D01*
X72255002Y-130251998D02*
X72255002Y-134695000D01*
X70765587Y-129874998D02*
X71878002Y-129874998D01*
X71878002Y-129874998D02*
X72255002Y-130251998D01*
X79235496Y-102409811D02*
X79235496Y-102975496D01*
X79235496Y-83567496D02*
X79235496Y-102409811D01*
X74798000Y-79130000D02*
X79235496Y-83567496D01*
X97628000Y-145200000D02*
X97658000Y-145170000D01*
X87300000Y-145200000D02*
X97628000Y-145200000D01*
X76440000Y-81670000D02*
X74798000Y-81670000D01*
X77740000Y-82970000D02*
X76440000Y-81670000D01*
X77740000Y-103330000D02*
X77740000Y-82970000D01*
X97468000Y-142820000D02*
X97658000Y-142630000D01*
X87900000Y-142820000D02*
X97468000Y-142820000D01*
X71460000Y-87548000D02*
X73998001Y-85009999D01*
X73998001Y-85009999D02*
X74798000Y-84210000D01*
X71460000Y-97664358D02*
X71460000Y-87548000D01*
X67422000Y-104540000D02*
X67422000Y-101702358D01*
X67422000Y-101702358D02*
X71460000Y-97664358D01*
X92374315Y-132160000D02*
X92940000Y-132160000D01*
X85017000Y-123707000D02*
X86199988Y-124889988D01*
X83499000Y-123707000D02*
X85017000Y-123707000D01*
X86199988Y-124889988D02*
X86199988Y-130666399D01*
X86199988Y-130666399D02*
X87693589Y-132160000D01*
X87693589Y-132160000D02*
X92374315Y-132160000D01*
X73998001Y-87549999D02*
X74798000Y-86750000D01*
X71929978Y-89618022D02*
X73998001Y-87549999D01*
X71929978Y-97830790D02*
X71929978Y-89618022D01*
X68221999Y-106280001D02*
X68221999Y-105548001D01*
X67422000Y-107080000D02*
X68221999Y-106280001D01*
X68221999Y-105548001D02*
X68699955Y-105070045D01*
X68699955Y-105070045D02*
X68699955Y-101060812D01*
X68699955Y-101060812D02*
X71929978Y-97830790D01*
X72379989Y-91708011D02*
X74798000Y-89290000D01*
X72379989Y-98017190D02*
X72379989Y-91708011D01*
X69149966Y-101247212D02*
X72379989Y-98017190D01*
X68700000Y-108342000D02*
X68700000Y-105760000D01*
X67422000Y-109620000D02*
X68700000Y-108342000D01*
X68700000Y-105760000D02*
X69170000Y-105290000D01*
X69149966Y-105269966D02*
X69149966Y-101247212D01*
X69170000Y-105290000D02*
X69149966Y-105269966D01*
X68221999Y-111360001D02*
X68221999Y-110540303D01*
X69150011Y-109612291D02*
X69150011Y-105946399D01*
X69150011Y-105946399D02*
X69620009Y-105476401D01*
X68221999Y-110540303D02*
X69150011Y-109612291D01*
X73998001Y-92629999D02*
X74798000Y-91830000D01*
X72830000Y-93798000D02*
X73998001Y-92629999D01*
X67422000Y-112160000D02*
X68221999Y-111360001D01*
X69620009Y-105476401D02*
X69620009Y-101413580D01*
X69620009Y-101413580D02*
X72830000Y-98203590D01*
X72830000Y-98203590D02*
X72830000Y-93798000D01*
X69600022Y-106289210D02*
X70070020Y-105819212D01*
X69600022Y-109798691D02*
X69600022Y-106289210D01*
X73998001Y-95169999D02*
X74798000Y-94370000D01*
X68999965Y-110398747D02*
X69600022Y-109798691D01*
X70070020Y-105819212D02*
X70070020Y-101599980D01*
X67422000Y-114700000D02*
X68221999Y-113900001D01*
X73672999Y-95495001D02*
X73998001Y-95169999D01*
X73672999Y-97997001D02*
X73672999Y-95495001D01*
X68221999Y-113873293D02*
X68999965Y-113095327D01*
X70070020Y-101599980D02*
X73672999Y-97997001D01*
X68999965Y-113095327D02*
X68999965Y-110398747D01*
X68221999Y-113900001D02*
X68221999Y-113873293D01*
X70050033Y-106475610D02*
X70520031Y-106005612D01*
X70520031Y-106005612D02*
X70520031Y-101869969D01*
X68672007Y-115989993D02*
X68672014Y-114059688D01*
X70520031Y-101869969D02*
X74798000Y-97592000D01*
X68672014Y-114059688D02*
X69449976Y-113281727D01*
X74798000Y-97592000D02*
X74798000Y-96910000D01*
X70050033Y-109985091D02*
X70050033Y-106475610D01*
X67422000Y-117240000D02*
X68672007Y-115989993D01*
X69449976Y-113281727D02*
X69449976Y-110585147D01*
X69449976Y-110585147D02*
X70050033Y-109985091D01*
X70970042Y-103277958D02*
X73998001Y-100249999D01*
X69122023Y-114246090D02*
X69899987Y-113468127D01*
X69122019Y-118079981D02*
X69122023Y-114246090D01*
X67422000Y-119780000D02*
X69122019Y-118079981D01*
X70500044Y-110171491D02*
X70500044Y-106662010D01*
X69899987Y-110771547D02*
X70500044Y-110171491D01*
X70500044Y-106662010D02*
X70970042Y-106192012D01*
X70970042Y-106192012D02*
X70970042Y-103277958D01*
X73998001Y-100249999D02*
X74798000Y-99450000D01*
X69899987Y-113468127D02*
X69899987Y-110771547D01*
X74540000Y-101990000D02*
X74798000Y-101990000D01*
X71430000Y-105100000D02*
X74540000Y-101990000D01*
X71430000Y-106368465D02*
X71430000Y-105100000D01*
X70950055Y-106848410D02*
X71430000Y-106368465D01*
X70950055Y-110357891D02*
X70950055Y-106848410D01*
X69572029Y-120169971D02*
X69572032Y-114432492D01*
X67422000Y-122320000D02*
X69572029Y-120169971D01*
X69572032Y-114432492D02*
X70349998Y-113654527D01*
X70349998Y-113654527D02*
X70349998Y-110957947D01*
X70349998Y-110957947D02*
X70950055Y-110357891D01*
X69730000Y-124860000D02*
X69830000Y-124760000D01*
X67422000Y-124860000D02*
X69730000Y-124860000D01*
X69830000Y-127190585D02*
X69830000Y-124760000D01*
X72705013Y-130065598D02*
X69830000Y-127190585D01*
X72705013Y-131985598D02*
X72705013Y-130065598D01*
X74439415Y-133720000D02*
X72705013Y-131985598D01*
X75173002Y-133720000D02*
X74439415Y-133720000D01*
X85393002Y-143940000D02*
X75173002Y-133720000D01*
X98013002Y-143940000D02*
X85393002Y-143940000D01*
X103493002Y-138460000D02*
X98013002Y-143940000D01*
X132558000Y-138460000D02*
X103493002Y-138460000D01*
X133858000Y-137160000D02*
X132558000Y-138460000D01*
X73998001Y-105329999D02*
X74798000Y-104530000D01*
X71400066Y-107927934D02*
X73998001Y-105329999D01*
X70800009Y-111144347D02*
X71400066Y-110544291D01*
X71400066Y-110544291D02*
X71400066Y-107927934D01*
X70800009Y-113840927D02*
X70800009Y-111144347D01*
X70072911Y-114568027D02*
X70800009Y-113840927D01*
X70072911Y-124517089D02*
X70072911Y-114568027D01*
X69830000Y-124760000D02*
X70072911Y-124517089D01*
X72300088Y-109567912D02*
X73998001Y-107869999D01*
X70972933Y-127060696D02*
X70972933Y-114940829D01*
X71700031Y-111517147D02*
X72300088Y-110917091D01*
X99050000Y-140363002D02*
X98053002Y-141360000D01*
X73998001Y-107869999D02*
X74798000Y-107070000D01*
X72300088Y-110917091D02*
X72300088Y-109567912D01*
X71700031Y-114213732D02*
X71700031Y-111517147D01*
X70972933Y-114940829D02*
X71700031Y-114213732D01*
X73605035Y-129692798D02*
X70972933Y-127060696D01*
X73605035Y-130342798D02*
X73605035Y-129692798D01*
X74462237Y-131200000D02*
X73605035Y-130342798D01*
X75193002Y-131200000D02*
X74462237Y-131200000D01*
X85353002Y-141360000D02*
X75193002Y-131200000D01*
X98053002Y-141360000D02*
X85353002Y-141360000D01*
X99050000Y-139822998D02*
X99050000Y-140363002D01*
X102837999Y-136034999D02*
X99050000Y-139822998D01*
X135272999Y-136034999D02*
X102837999Y-136034999D01*
X136398000Y-137160000D02*
X135272999Y-136034999D01*
X92200000Y-134490000D02*
X92200000Y-135180000D01*
X92200000Y-135180000D02*
X92270000Y-135250000D01*
X92150001Y-131089997D02*
X92550000Y-130689998D01*
X87459999Y-131289999D02*
X91949999Y-131289999D01*
X86649999Y-130479999D02*
X87459999Y-131289999D01*
X86649999Y-124612999D02*
X86649999Y-130479999D01*
X84474000Y-122437000D02*
X86649999Y-124612999D01*
X83499000Y-122437000D02*
X84474000Y-122437000D01*
X91949999Y-131289999D02*
X92150001Y-131089997D01*
X98360000Y-136320000D02*
X94820000Y-136320000D01*
X93750000Y-135250000D02*
X92270000Y-135250000D01*
X99410000Y-135250000D02*
X99000000Y-135660000D01*
X137028000Y-135250000D02*
X99410000Y-135250000D01*
X138938000Y-137160000D02*
X137028000Y-135250000D01*
X94820000Y-136320000D02*
X93750000Y-135250000D01*
X99000000Y-135660000D02*
X99000000Y-135680000D01*
X99000000Y-135680000D02*
X98360000Y-136320000D01*
X92260000Y-135260000D02*
X92270000Y-135250000D01*
X86220000Y-135260000D02*
X92260000Y-135260000D01*
X79600000Y-128640000D02*
X86220000Y-135260000D01*
X74382998Y-128640000D02*
X79600000Y-128640000D01*
X71872955Y-126129957D02*
X74382998Y-128640000D01*
X74798000Y-109692000D02*
X72600053Y-111889947D01*
X74798000Y-109610000D02*
X74798000Y-109692000D01*
X72600053Y-111889947D02*
X72600053Y-114586532D01*
X72600053Y-114586532D02*
X71872955Y-115313630D01*
X71872955Y-115313630D02*
X71872955Y-126129957D01*
X76860000Y-124970000D02*
X75440000Y-123550000D01*
X83499000Y-124977000D02*
X83492000Y-124970000D01*
X83492000Y-124970000D02*
X76860000Y-124970000D01*
X73500075Y-113447925D02*
X73998001Y-112949999D01*
X73500075Y-114959332D02*
X73500075Y-113447925D01*
X72772977Y-115686429D02*
X73500075Y-114959332D01*
X72772977Y-121949979D02*
X72772977Y-115686429D01*
X105583546Y-127490000D02*
X103453524Y-129620022D01*
X102389978Y-129620022D02*
X98290000Y-133720000D01*
X141478000Y-137160000D02*
X131808000Y-127490000D01*
X73998001Y-112949999D02*
X74798000Y-112150000D01*
X103453524Y-129620022D02*
X102389978Y-129620022D01*
X75470000Y-123590000D02*
X75270000Y-123590000D01*
X98290000Y-133720000D02*
X85600000Y-133720000D01*
X85600000Y-133720000D02*
X75470000Y-123590000D01*
X131808000Y-127490000D02*
X105583546Y-127490000D01*
X75270000Y-123590000D02*
X75240000Y-123560000D01*
X75240000Y-123560000D02*
X74382998Y-123560000D01*
X74382998Y-123560000D02*
X72772977Y-121949979D01*
X98789370Y-112150000D02*
X97658000Y-112150000D01*
X105660000Y-112150000D02*
X98789370Y-112150000D01*
X136448000Y-119330000D02*
X111822998Y-119330000D01*
X111822998Y-119330000D02*
X107140000Y-114647002D01*
X141478000Y-114300000D02*
X136448000Y-119330000D01*
X107140000Y-114647002D02*
X107140000Y-113630000D01*
X107140000Y-113630000D02*
X105660000Y-112150000D01*
X105920000Y-109610000D02*
X98789370Y-109610000D01*
X109750000Y-113440000D02*
X105920000Y-109610000D01*
X109750000Y-115750000D02*
X109750000Y-113440000D01*
X134568000Y-118670000D02*
X112670000Y-118670000D01*
X98789370Y-109610000D02*
X97658000Y-109610000D01*
X138938000Y-114300000D02*
X134568000Y-118670000D01*
X112670000Y-118670000D02*
X109750000Y-115750000D01*
X83499000Y-126247000D02*
X83592000Y-126340000D01*
X84400000Y-126340000D02*
X84840000Y-125900000D01*
X83592000Y-126340000D02*
X84400000Y-126340000D01*
X73672999Y-119229999D02*
X74798000Y-118104998D01*
X74798000Y-118104998D02*
X74798000Y-117230000D01*
X82198990Y-124053758D02*
X82198990Y-123358990D01*
X75923001Y-121769999D02*
X75203002Y-121050000D01*
X84500778Y-124332010D02*
X82477242Y-124332010D01*
X84840000Y-125900000D02*
X84829978Y-124661210D01*
X84829978Y-124661210D02*
X84500778Y-124332010D01*
X75203002Y-121050000D02*
X74412998Y-121050000D01*
X82477242Y-124332010D02*
X82198990Y-124053758D01*
X74412998Y-121050000D02*
X73672999Y-120310001D01*
X73672999Y-120310001D02*
X73672999Y-119229999D01*
X82198990Y-123358990D02*
X80609999Y-121769999D01*
X80609999Y-121769999D02*
X75923001Y-121769999D01*
X84850000Y-125910000D02*
X84840000Y-125900000D01*
X84850000Y-130160000D02*
X84850000Y-125910000D01*
X100372989Y-129170011D02*
X98353000Y-131190000D01*
X105397146Y-127039989D02*
X103267124Y-129170011D01*
X136437989Y-127039989D02*
X105397146Y-127039989D01*
X87620000Y-132930000D02*
X84850000Y-130160000D01*
X146558000Y-137160000D02*
X136437989Y-127039989D01*
X98353000Y-131190000D02*
X94983004Y-131190000D01*
X103267124Y-129170011D02*
X100372989Y-129170011D01*
X94983004Y-131190000D02*
X93252993Y-132920011D01*
X93252993Y-132920011D02*
X89456400Y-132920011D01*
X89456400Y-132920011D02*
X89446411Y-132930000D01*
X89446411Y-132930000D02*
X87620000Y-132930000D01*
X135598001Y-115099999D02*
X136398000Y-114300000D01*
X132628000Y-118070000D02*
X135598001Y-115099999D01*
X105800000Y-107070000D02*
X112260000Y-113530000D01*
X97658000Y-107070000D02*
X105800000Y-107070000D01*
X112260000Y-113530000D02*
X112260000Y-114970000D01*
X112260000Y-114970000D02*
X115360000Y-118070000D01*
X115360000Y-118070000D02*
X132628000Y-118070000D01*
X83499000Y-127517000D02*
X83499000Y-129729000D01*
X83499000Y-129729000D02*
X83520000Y-129750000D01*
X89679977Y-128730023D02*
X89679977Y-129184315D01*
X89679977Y-129184315D02*
X89679977Y-129750000D01*
X90494384Y-127915616D02*
X89679977Y-128730023D01*
X75597999Y-118970001D02*
X74798000Y-119770000D01*
X76868000Y-117700000D02*
X75597999Y-118970001D01*
X84840000Y-117700000D02*
X76868000Y-117700000D01*
X85490011Y-118350011D02*
X84840000Y-117700000D01*
X85490011Y-122816600D02*
X85490011Y-118350011D01*
X89470758Y-126891990D02*
X87427242Y-126891990D01*
X87427242Y-126891990D02*
X87100011Y-126564759D01*
X87100011Y-124426600D02*
X85490011Y-122816600D01*
X90494384Y-127915616D02*
X89470758Y-126891990D01*
X87100011Y-126564759D02*
X87100011Y-124426600D01*
X105210746Y-126589978D02*
X103080724Y-128720000D01*
X91298768Y-128720000D02*
X90494384Y-127915616D01*
X149098000Y-137160000D02*
X138527978Y-126589978D01*
X103080724Y-128720000D02*
X91298768Y-128720000D01*
X138527978Y-126589978D02*
X105210746Y-126589978D01*
X98789370Y-104530000D02*
X97658000Y-104530000D01*
X105730000Y-104530000D02*
X98789370Y-104530000D01*
X133858000Y-114300000D02*
X133858000Y-114392000D01*
X133858000Y-114392000D02*
X130850000Y-117400000D01*
X130850000Y-117400000D02*
X117512998Y-117400000D01*
X117512998Y-117400000D02*
X114770000Y-114657002D01*
X114770000Y-114657002D02*
X114770000Y-113570000D01*
X114770000Y-113570000D02*
X105730000Y-104530000D01*
X78097000Y-121167000D02*
X77620000Y-120690000D01*
X83499000Y-121167000D02*
X78097000Y-121167000D01*
X73222988Y-116697012D02*
X73222988Y-120734988D01*
X96910000Y-126150000D02*
X90240000Y-119480000D01*
X73222988Y-120734988D02*
X74798000Y-122310000D01*
X101497211Y-126139967D02*
X101487178Y-126150000D01*
X75900000Y-116040000D02*
X73880000Y-116040000D01*
X89410000Y-117010000D02*
X76870000Y-117010000D01*
X101487178Y-126150000D02*
X96910000Y-126150000D01*
X151638000Y-137160000D02*
X140617967Y-126139967D01*
X76870000Y-117010000D02*
X75900000Y-116040000D01*
X140617967Y-126139967D02*
X101497211Y-126139967D01*
X90240000Y-119480000D02*
X90240000Y-117840000D01*
X90240000Y-117840000D02*
X89410000Y-117010000D01*
X73880000Y-116040000D02*
X73222988Y-116697012D01*
X105700000Y-101990000D02*
X98789370Y-101990000D01*
X117360000Y-115390000D02*
X117360000Y-113650000D01*
X129580000Y-116810000D02*
X118780000Y-116810000D01*
X131318000Y-114300000D02*
X131318000Y-115072000D01*
X98789370Y-101990000D02*
X97658000Y-101990000D01*
X118780000Y-116810000D02*
X117360000Y-115390000D01*
X131318000Y-115072000D02*
X129580000Y-116810000D01*
X117360000Y-113650000D02*
X105700000Y-101990000D01*
X119870000Y-113700000D02*
X105620000Y-99450000D01*
X105620000Y-99450000D02*
X98789370Y-99450000D01*
X128778000Y-114962000D02*
X127590000Y-116150000D01*
X128778000Y-114300000D02*
X128778000Y-114962000D01*
X127590000Y-116150000D02*
X120880000Y-116150000D01*
X120880000Y-116150000D02*
X119870000Y-115140000D01*
X98789370Y-99450000D02*
X97658000Y-99450000D01*
X119870000Y-115140000D02*
X119870000Y-113700000D01*
X73998001Y-126590001D02*
X74798000Y-127390000D01*
X72322966Y-124914966D02*
X73998001Y-126590001D01*
X72322966Y-115500030D02*
X72322966Y-124914966D01*
X73050064Y-114772932D02*
X72322966Y-115500030D01*
X73050064Y-112896045D02*
X73050064Y-114772932D01*
X73630000Y-112316109D02*
X73050064Y-112896045D01*
X73630000Y-111662294D02*
X73630000Y-112316109D01*
X74412294Y-110880000D02*
X73630000Y-111662294D01*
X75778002Y-110880000D02*
X74412294Y-110880000D01*
X78463002Y-113565000D02*
X75778002Y-110880000D01*
X87052698Y-113565000D02*
X78463002Y-113565000D01*
X97127698Y-123640000D02*
X87052698Y-113565000D01*
X99613589Y-123640000D02*
X97127698Y-123640000D01*
X101663545Y-125689956D02*
X99613589Y-123640000D01*
X145247956Y-125689956D02*
X101663545Y-125689956D01*
X156718000Y-137160000D02*
X145247956Y-125689956D01*
X98789370Y-96910000D02*
X97658000Y-96910000D01*
X104404410Y-96910000D02*
X98789370Y-96910000D01*
X119874410Y-112380000D02*
X104404410Y-96910000D01*
X126238000Y-114300000D02*
X125112999Y-115425001D01*
X125112999Y-115425001D02*
X122957991Y-115425001D01*
X122957991Y-115425001D02*
X122420000Y-114887010D01*
X122420000Y-114887010D02*
X122420000Y-113610000D01*
X121190000Y-112380000D02*
X119874410Y-112380000D01*
X122420000Y-113610000D02*
X121190000Y-112380000D01*
X66280000Y-136418000D02*
X66280000Y-134496998D01*
X69414998Y-132131998D02*
X69414998Y-131861998D01*
X70726830Y-130672216D02*
X71292515Y-130672216D01*
X67906997Y-133639999D02*
X69414998Y-132131998D01*
X67422000Y-137560000D02*
X66280000Y-136418000D01*
X66280000Y-134496998D02*
X67136999Y-133639999D01*
X70604780Y-130672216D02*
X70726830Y-130672216D01*
X69414998Y-131861998D02*
X70604780Y-130672216D01*
X67136999Y-133639999D02*
X67906997Y-133639999D01*
X72750099Y-109992899D02*
X72750099Y-111103491D01*
X147337945Y-125239945D02*
X102252947Y-125239945D01*
X73998001Y-129130001D02*
X74798000Y-129930000D01*
X159258000Y-137160000D02*
X147337945Y-125239945D01*
X102252947Y-125239945D02*
X98113002Y-121100000D01*
X98113002Y-121100000D02*
X95224109Y-121100000D01*
X80959998Y-112970000D02*
X76309998Y-108320000D01*
X74422998Y-108320000D02*
X72750099Y-109992899D01*
X76309998Y-108320000D02*
X74422998Y-108320000D01*
X71422944Y-126554944D02*
X73998001Y-129130001D01*
X71422944Y-115127230D02*
X71422944Y-126554944D01*
X72150042Y-114400132D02*
X71422944Y-115127230D01*
X72150042Y-111703547D02*
X72150042Y-114400132D01*
X72750099Y-111103491D02*
X72150042Y-111703547D01*
X87094109Y-112970000D02*
X80959998Y-112970000D01*
X95224109Y-121100000D02*
X87094109Y-112970000D01*
X98789370Y-94370000D02*
X97658000Y-94370000D01*
X103930000Y-94370000D02*
X98789370Y-94370000D01*
X123698000Y-114300000D02*
X123698000Y-114138000D01*
X123698000Y-114138000D02*
X103930000Y-94370000D01*
X70850000Y-136767340D02*
X70850000Y-139980000D01*
X70850000Y-139980000D02*
X71360000Y-140490000D01*
X70522922Y-114754429D02*
X70522922Y-127247096D01*
X98123002Y-118570000D02*
X93330520Y-118570000D01*
X70522922Y-127247096D02*
X73155024Y-129879198D01*
X75630000Y-105790000D02*
X74432821Y-105790000D01*
X73998001Y-131670001D02*
X74798000Y-132470000D01*
X73155024Y-130827024D02*
X73998001Y-131670001D01*
X73155024Y-129879198D02*
X73155024Y-130827024D01*
X71250020Y-114027332D02*
X70522922Y-114754429D01*
X71250020Y-111330747D02*
X71250020Y-114027332D01*
X71850077Y-110730691D02*
X71250020Y-111330747D01*
X71850077Y-108372744D02*
X71850077Y-110730691D01*
X74432821Y-105790000D02*
X71850077Y-108372744D01*
X82280000Y-112440000D02*
X75630000Y-105790000D01*
X87200520Y-112440000D02*
X82280000Y-112440000D01*
X93330520Y-118570000D02*
X87200520Y-112440000D01*
X104342936Y-124789934D02*
X98123002Y-118570000D01*
X149427934Y-124789934D02*
X104342936Y-124789934D01*
X161798000Y-137160000D02*
X149427934Y-124789934D01*
X96310000Y-93178000D02*
X97658000Y-91830000D01*
X96310000Y-97510000D02*
X96310000Y-93178000D01*
X96950000Y-98150000D02*
X96310000Y-97510000D01*
X121158000Y-114300000D02*
X105008000Y-98150000D01*
X105008000Y-98150000D02*
X96950000Y-98150000D01*
X75597999Y-135809999D02*
X74798000Y-135010000D01*
X86218000Y-146430000D02*
X75597999Y-135809999D01*
X98063002Y-146430000D02*
X86218000Y-146430000D01*
X105582991Y-138910011D02*
X98063002Y-146430000D01*
X162587989Y-138910011D02*
X105582991Y-138910011D01*
X164338000Y-137160000D02*
X162587989Y-138910011D01*
X95680000Y-91268000D02*
X97658000Y-89290000D01*
X118618000Y-114271589D02*
X105086411Y-100740000D01*
X118618000Y-114300000D02*
X118618000Y-114271589D01*
X97060000Y-100740000D02*
X95680000Y-99360000D01*
X105086411Y-100740000D02*
X97060000Y-100740000D01*
X95680000Y-99360000D02*
X95680000Y-91268000D01*
X75597999Y-138349999D02*
X74798000Y-137550000D01*
X76606409Y-138349999D02*
X75597999Y-138349999D01*
X164677978Y-139360022D02*
X107979978Y-139360022D01*
X98380000Y-148960000D02*
X87216410Y-148960000D01*
X166878000Y-137160000D02*
X164677978Y-139360022D01*
X87216410Y-148960000D02*
X76606409Y-138349999D01*
X107979978Y-139360022D02*
X98380000Y-148960000D01*
X94990055Y-89417945D02*
X97658000Y-86750000D01*
X116078000Y-114241589D02*
X105066411Y-103230000D01*
X105066411Y-103230000D02*
X96840000Y-103230000D01*
X116078000Y-114300000D02*
X116078000Y-114241589D01*
X96840000Y-103230000D02*
X94990055Y-101380055D01*
X94990055Y-101380055D02*
X94990055Y-89417945D01*
X99820000Y-148247945D02*
X99820000Y-149753002D01*
X98073002Y-151500000D02*
X86208000Y-151500000D01*
X99820000Y-149753002D02*
X98073002Y-151500000D01*
X166767967Y-139810033D02*
X108257912Y-139810033D01*
X86208000Y-151500000D02*
X75597999Y-140889999D01*
X75597999Y-140889999D02*
X74798000Y-140090000D01*
X108257912Y-139810033D02*
X99820000Y-148247945D01*
X169418000Y-137160000D02*
X166767967Y-139810033D01*
X73998001Y-140889999D02*
X74798000Y-140090000D01*
X52562000Y-147340000D02*
X60690000Y-147340000D01*
X68670000Y-141430000D02*
X73458000Y-141430000D01*
X52182000Y-147720000D02*
X52562000Y-147340000D01*
X66640000Y-141390000D02*
X68630000Y-141390000D01*
X68630000Y-141390000D02*
X68670000Y-141430000D01*
X73458000Y-141430000D02*
X73998001Y-140889999D01*
X60690000Y-147340000D02*
X66640000Y-141390000D01*
X94130000Y-87738000D02*
X97658000Y-84210000D01*
X113538000Y-114171589D02*
X105226411Y-105860000D01*
X94130000Y-103260000D02*
X94130000Y-87738000D01*
X113538000Y-114300000D02*
X113538000Y-114171589D01*
X105226411Y-105860000D02*
X96730000Y-105860000D01*
X96730000Y-105860000D02*
X94130000Y-103260000D01*
X168857956Y-140260044D02*
X108444312Y-140260044D01*
X86217967Y-154049967D02*
X75597999Y-143429999D01*
X108444312Y-140260044D02*
X100340000Y-148364356D01*
X171958000Y-137160000D02*
X168857956Y-140260044D01*
X75597999Y-143429999D02*
X74798000Y-142630000D01*
X99083623Y-154049967D02*
X86217967Y-154049967D01*
X100340000Y-152793590D02*
X99083623Y-154049967D01*
X100340000Y-148364356D02*
X100340000Y-152793590D01*
X93490044Y-85837956D02*
X96858001Y-82469999D01*
X110998000Y-114051589D02*
X105226411Y-108280000D01*
X105226411Y-108280000D02*
X96510000Y-108280000D01*
X96858001Y-82469999D02*
X97658000Y-81670000D01*
X110998000Y-114300000D02*
X110998000Y-114051589D01*
X96510000Y-108280000D02*
X93490044Y-105260044D01*
X93490044Y-105260044D02*
X93490044Y-85837956D01*
X98457999Y-80870001D02*
X97658000Y-81670000D01*
X99683023Y-79644977D02*
X98457999Y-80870001D01*
X99683023Y-72590201D02*
X99683023Y-79644977D01*
X98702802Y-71609980D02*
X99683023Y-72590201D01*
X96400020Y-71609980D02*
X98702802Y-71609980D01*
X89079988Y-107170704D02*
X89209988Y-107040704D01*
X90220000Y-114350000D02*
X89079988Y-113209988D01*
X89209988Y-107040704D02*
X89209988Y-78800012D01*
X89079988Y-113209988D02*
X89079988Y-107170704D01*
X89209988Y-78800012D02*
X96400020Y-71609980D01*
X73998001Y-145969999D02*
X74798000Y-145170000D01*
X66730000Y-151540000D02*
X68428000Y-151540000D01*
X66296998Y-151106998D02*
X66730000Y-151540000D01*
X68428000Y-151540000D02*
X73998001Y-145969999D01*
X66881999Y-149134999D02*
X66296998Y-149720000D01*
X67672003Y-149134999D02*
X66881999Y-149134999D01*
X54290000Y-151420000D02*
X58660000Y-151420000D01*
X66296998Y-149720000D02*
X66296998Y-151106998D01*
X51430000Y-151450000D02*
X54260000Y-151450000D01*
X50410000Y-150430000D02*
X51430000Y-151450000D01*
X58660000Y-151420000D02*
X66210000Y-143870000D01*
X68770000Y-144600000D02*
X68770000Y-148037002D01*
X54260000Y-151450000D02*
X54290000Y-151420000D01*
X52182000Y-137560000D02*
X50410000Y-139332000D01*
X68040000Y-143870000D02*
X68770000Y-144600000D01*
X66210000Y-143870000D02*
X68040000Y-143870000D01*
X50410000Y-139332000D02*
X50410000Y-150430000D01*
X68770000Y-148037002D02*
X67672003Y-149134999D01*
X174498000Y-137160000D02*
X170947945Y-140710055D01*
X170947945Y-140710055D02*
X108630712Y-140710055D01*
X100810000Y-148530767D02*
X100810000Y-153000000D01*
X75597999Y-145969999D02*
X74798000Y-145170000D01*
X108630712Y-140710055D02*
X100810000Y-148530767D01*
X84127978Y-154499978D02*
X75597999Y-145969999D01*
X99310022Y-154499978D02*
X84127978Y-154499978D01*
X100810000Y-153000000D02*
X99310022Y-154499978D01*
X98516402Y-72059991D02*
X96913599Y-72059991D01*
X97658000Y-79130000D02*
X99233012Y-77554988D01*
X89934990Y-79038600D02*
X89934990Y-99132099D01*
X96913599Y-72059991D02*
X89934990Y-79038600D01*
X99233012Y-72776601D02*
X98516402Y-72059991D01*
X89934990Y-99132099D02*
X89934990Y-99697784D01*
X99233012Y-77554988D02*
X99233012Y-72776601D01*
X96858001Y-79929999D02*
X97658000Y-79130000D01*
X92810033Y-83977967D02*
X96858001Y-79929999D01*
X104988000Y-110830000D02*
X96720000Y-110830000D01*
X92810000Y-106920000D02*
X92810000Y-106730000D01*
X108458000Y-114300000D02*
X104988000Y-110830000D01*
X96720000Y-110830000D02*
X92810000Y-106920000D01*
X92810033Y-106729967D02*
X92810033Y-83977967D01*
X92810000Y-106730000D02*
X92810033Y-106729967D01*
X70474153Y-133341166D02*
X70874152Y-132941167D01*
X67422000Y-135020000D02*
X68795319Y-135020000D01*
X68795319Y-135020000D02*
X70474153Y-133341166D01*
X173037934Y-141160066D02*
X108817112Y-141160066D01*
X101319978Y-148657200D02*
X101319978Y-153420022D01*
X75597999Y-148509999D02*
X74798000Y-147710000D01*
X82037989Y-154949989D02*
X75597999Y-148509999D01*
X101319978Y-153420022D02*
X99790011Y-154949989D01*
X108817112Y-141160066D02*
X101319978Y-148657200D01*
X177038000Y-137160000D02*
X173037934Y-141160066D01*
X99790011Y-154949989D02*
X82037989Y-154949989D01*
X98783001Y-73509999D02*
X98783001Y-75464999D01*
X98198001Y-72924999D02*
X98783001Y-73509999D01*
X97117999Y-72924999D02*
X98198001Y-72924999D01*
X98457999Y-75790001D02*
X97658000Y-76590000D01*
X90660000Y-106740000D02*
X90660000Y-79382998D01*
X90660000Y-79382998D02*
X97117999Y-72924999D01*
X98783001Y-75464999D02*
X98457999Y-75790001D01*
X104588000Y-112970000D02*
X99100000Y-112970000D01*
X105918000Y-114300000D02*
X104588000Y-112970000D01*
X92130022Y-82117978D02*
X96858001Y-77389999D01*
X99100000Y-112970000D02*
X98670000Y-113400000D01*
X96950000Y-113400000D02*
X92130022Y-108580022D01*
X96858001Y-77389999D02*
X97658000Y-76590000D01*
X92130022Y-108580022D02*
X92130022Y-82117978D01*
X98670000Y-113400000D02*
X96950000Y-113400000D01*
X75597999Y-151049999D02*
X74798000Y-150250000D01*
X79998000Y-155450000D02*
X75597999Y-151049999D01*
X175127923Y-141610077D02*
X109003512Y-141610077D01*
X179578000Y-137160000D02*
X175127923Y-141610077D01*
X101769989Y-148843600D02*
X101769989Y-153760011D01*
X100080000Y-155450000D02*
X79998000Y-155450000D01*
X109003512Y-141610077D02*
X101769989Y-148843600D01*
X101769989Y-153760011D02*
X100080000Y-155450000D01*
X89804990Y-108664990D02*
X89804990Y-108084391D01*
X91250000Y-110110000D02*
X89804990Y-108664990D01*
X89804990Y-108084391D02*
X89804990Y-107518706D01*
X101758000Y-115920000D02*
X102578001Y-115099999D01*
X102578001Y-115099999D02*
X103378000Y-114300000D01*
X91250000Y-110110000D02*
X97060000Y-115920000D01*
X97060000Y-115920000D02*
X101758000Y-115920000D01*
X91450011Y-109909989D02*
X91250000Y-110110000D01*
X97658000Y-74050000D02*
X91450011Y-80257989D01*
X91450011Y-80257989D02*
X91450011Y-109909989D01*
X79811600Y-155900011D02*
X79801589Y-155890000D01*
X100399989Y-155900011D02*
X79811600Y-155900011D01*
X182118000Y-137160000D02*
X177217912Y-142060088D01*
X177217912Y-142060088D02*
X109189912Y-142060088D01*
X109189912Y-142060088D02*
X102220000Y-149030000D01*
X79801589Y-155890000D02*
X71590000Y-155890000D01*
X102220000Y-149030000D02*
X102220000Y-154080000D01*
X102220000Y-154080000D02*
X100399989Y-155900011D01*
X74720000Y-155890000D02*
X74798000Y-155812000D01*
X71590000Y-155890000D02*
X74720000Y-155890000D01*
X74798000Y-155812000D02*
X74798000Y-152790000D01*
X66990587Y-154670000D02*
X67050000Y-154670000D01*
X67050000Y-154670000D02*
X67450000Y-155070000D01*
X68927020Y-155070000D02*
X70770000Y-155070000D01*
X67450000Y-155070000D02*
X68927020Y-155070000D01*
X71590000Y-155890000D02*
X70770000Y-155070000D01*
X65846988Y-153526401D02*
X66990587Y-154670000D01*
X65846988Y-146755012D02*
X65846988Y-153526401D01*
X67422000Y-145180000D02*
X65846988Y-146755012D01*
X80783010Y-119897000D02*
X80540010Y-120140000D01*
X83499000Y-119897000D02*
X80783010Y-119897000D01*
X52200000Y-98960000D02*
X54520000Y-101280000D01*
X52200000Y-97860000D02*
X52200000Y-98960000D01*
X54520000Y-125062000D02*
X52182000Y-127400000D01*
X54520000Y-101280000D02*
X54520000Y-125062000D01*
X56430001Y-99369999D02*
X54520000Y-101280000D01*
X56430001Y-98709999D02*
X56430001Y-99369999D01*
X57280000Y-97860000D02*
X56430001Y-98709999D01*
M02*
