G04 #@! TF.GenerationSoftware,KiCad,Pcbnew,(5.1.5)-3*
G04 #@! TF.CreationDate,2021-09-12T14:11:04+10:00*
G04 #@! TF.ProjectId,CDTV_Reromlocator_v3,43445456-5f52-4657-926f-6d6c6f636174,rev?*
G04 #@! TF.SameCoordinates,Original*
G04 #@! TF.FileFunction,Legend,Bot*
G04 #@! TF.FilePolarity,Positive*
%FSLAX46Y46*%
G04 Gerber Fmt 4.6, Leading zero omitted, Abs format (unit mm)*
G04 Created by KiCad (PCBNEW (5.1.5)-3) date 2021-09-12 14:11:04*
%MOMM*%
%LPD*%
G04 APERTURE LIST*
%ADD10C,0.180000*%
%ADD11C,0.150000*%
%ADD12C,0.120000*%
%ADD13R,1.702000X1.702000*%
%ADD14O,1.702000X1.702000*%
%ADD15C,0.100000*%
%ADD16R,1.802000X1.802000*%
%ADD17O,1.802000X1.802000*%
G04 APERTURE END LIST*
D10*
X82510000Y-128140000D02*
X87900000Y-128140000D01*
D11*
X84010952Y-128712380D02*
X84010952Y-128950476D01*
X84249047Y-128855238D02*
X84010952Y-128950476D01*
X83772857Y-128855238D01*
X84153809Y-129140952D02*
X84010952Y-128950476D01*
X83868095Y-129140952D01*
X83249047Y-128712380D02*
X83249047Y-128950476D01*
X83487142Y-128855238D02*
X83249047Y-128950476D01*
X83010952Y-128855238D01*
X83391904Y-129140952D02*
X83249047Y-128950476D01*
X83106190Y-129140952D01*
X81868095Y-129712380D02*
X81868095Y-128712380D01*
X81487142Y-128712380D01*
X81391904Y-128760000D01*
X81344285Y-128807619D01*
X81296666Y-128902857D01*
X81296666Y-129045714D01*
X81344285Y-129140952D01*
X81391904Y-129188571D01*
X81487142Y-129236190D01*
X81868095Y-129236190D01*
X80868095Y-129712380D02*
X80868095Y-128712380D01*
X80391904Y-129712380D02*
X80391904Y-128712380D01*
X79820476Y-129712380D01*
X79820476Y-128712380D01*
X78058571Y-129712380D02*
X78630000Y-129712380D01*
X78344285Y-129712380D02*
X78344285Y-128712380D01*
X78439523Y-128855238D01*
X78534761Y-128950476D01*
X78630000Y-128998095D01*
D12*
X98360000Y-97090000D02*
X97460000Y-96990000D01*
X85625936Y-99344000D02*
X86830064Y-99344000D01*
X85625936Y-97524000D02*
X86830064Y-97524000D01*
X85966748Y-104986000D02*
X86489252Y-104986000D01*
X85966748Y-103566000D02*
X86489252Y-103566000D01*
X85966748Y-108646000D02*
X86489252Y-108646000D01*
X85966748Y-110066000D02*
X86489252Y-110066000D01*
X85335436Y-136386000D02*
X86539564Y-136386000D01*
X85335436Y-138206000D02*
X86539564Y-138206000D01*
X85974000Y-118012000D02*
X87924000Y-118012000D01*
X85974000Y-118012000D02*
X84024000Y-118012000D01*
X85974000Y-128132000D02*
X87924000Y-128132000D01*
X85974000Y-128132000D02*
X82524000Y-128132000D01*
D11*
X86394666Y-100611142D02*
X86442285Y-100658761D01*
X86585142Y-100706380D01*
X86680380Y-100706380D01*
X86823238Y-100658761D01*
X86918476Y-100563523D01*
X86966095Y-100468285D01*
X87013714Y-100277809D01*
X87013714Y-100134952D01*
X86966095Y-99944476D01*
X86918476Y-99849238D01*
X86823238Y-99754000D01*
X86680380Y-99706380D01*
X86585142Y-99706380D01*
X86442285Y-99754000D01*
X86394666Y-99801619D01*
X85442285Y-100706380D02*
X86013714Y-100706380D01*
X85728000Y-100706380D02*
X85728000Y-99706380D01*
X85823238Y-99849238D01*
X85918476Y-99944476D01*
X86013714Y-99992095D01*
X86823238Y-97066380D02*
X87394666Y-97066380D01*
X87108952Y-97066380D02*
X87108952Y-96066380D01*
X87204190Y-96209238D01*
X87299428Y-96304476D01*
X87394666Y-96352095D01*
X85966095Y-96399714D02*
X85966095Y-97066380D01*
X86394666Y-96399714D02*
X86394666Y-96923523D01*
X86347047Y-97018761D01*
X86251809Y-97066380D01*
X86108952Y-97066380D01*
X86013714Y-97018761D01*
X85966095Y-96971142D01*
X85156571Y-96542571D02*
X85489904Y-96542571D01*
X85489904Y-97066380D02*
X85489904Y-96066380D01*
X85013714Y-96066380D01*
X86394666Y-106283142D02*
X86442285Y-106330761D01*
X86585142Y-106378380D01*
X86680380Y-106378380D01*
X86823238Y-106330761D01*
X86918476Y-106235523D01*
X86966095Y-106140285D01*
X87013714Y-105949809D01*
X87013714Y-105806952D01*
X86966095Y-105616476D01*
X86918476Y-105521238D01*
X86823238Y-105426000D01*
X86680380Y-105378380D01*
X86585142Y-105378380D01*
X86442285Y-105426000D01*
X86394666Y-105473619D01*
X86013714Y-105473619D02*
X85966095Y-105426000D01*
X85870857Y-105378380D01*
X85632761Y-105378380D01*
X85537523Y-105426000D01*
X85489904Y-105473619D01*
X85442285Y-105568857D01*
X85442285Y-105664095D01*
X85489904Y-105806952D01*
X86061333Y-106378380D01*
X85442285Y-106378380D01*
X87870857Y-102078380D02*
X87775619Y-102078380D01*
X87680380Y-102126000D01*
X87632761Y-102173619D01*
X87585142Y-102268857D01*
X87537523Y-102459333D01*
X87537523Y-102697428D01*
X87585142Y-102887904D01*
X87632761Y-102983142D01*
X87680380Y-103030761D01*
X87775619Y-103078380D01*
X87870857Y-103078380D01*
X87966095Y-103030761D01*
X88013714Y-102983142D01*
X88061333Y-102887904D01*
X88108952Y-102697428D01*
X88108952Y-102459333D01*
X88061333Y-102268857D01*
X88013714Y-102173619D01*
X87966095Y-102126000D01*
X87870857Y-102078380D01*
X87108952Y-102983142D02*
X87061333Y-103030761D01*
X87108952Y-103078380D01*
X87156571Y-103030761D01*
X87108952Y-102983142D01*
X87108952Y-103078380D01*
X86108952Y-103078380D02*
X86680380Y-103078380D01*
X86394666Y-103078380D02*
X86394666Y-102078380D01*
X86489904Y-102221238D01*
X86585142Y-102316476D01*
X86680380Y-102364095D01*
X85251809Y-102411714D02*
X85251809Y-103078380D01*
X85680380Y-102411714D02*
X85680380Y-102935523D01*
X85632761Y-103030761D01*
X85537523Y-103078380D01*
X85394666Y-103078380D01*
X85299428Y-103030761D01*
X85251809Y-102983142D01*
X84442285Y-102554571D02*
X84775619Y-102554571D01*
X84775619Y-103078380D02*
X84775619Y-102078380D01*
X84299428Y-102078380D01*
X86394666Y-111363142D02*
X86442285Y-111410761D01*
X86585142Y-111458380D01*
X86680380Y-111458380D01*
X86823238Y-111410761D01*
X86918476Y-111315523D01*
X86966095Y-111220285D01*
X87013714Y-111029809D01*
X87013714Y-110886952D01*
X86966095Y-110696476D01*
X86918476Y-110601238D01*
X86823238Y-110506000D01*
X86680380Y-110458380D01*
X86585142Y-110458380D01*
X86442285Y-110506000D01*
X86394666Y-110553619D01*
X86061333Y-110458380D02*
X85442285Y-110458380D01*
X85775619Y-110839333D01*
X85632761Y-110839333D01*
X85537523Y-110886952D01*
X85489904Y-110934571D01*
X85442285Y-111029809D01*
X85442285Y-111267904D01*
X85489904Y-111363142D01*
X85537523Y-111410761D01*
X85632761Y-111458380D01*
X85918476Y-111458380D01*
X86013714Y-111410761D01*
X86061333Y-111363142D01*
X88347047Y-107158380D02*
X88251809Y-107158380D01*
X88156571Y-107206000D01*
X88108952Y-107253619D01*
X88061333Y-107348857D01*
X88013714Y-107539333D01*
X88013714Y-107777428D01*
X88061333Y-107967904D01*
X88108952Y-108063142D01*
X88156571Y-108110761D01*
X88251809Y-108158380D01*
X88347047Y-108158380D01*
X88442285Y-108110761D01*
X88489904Y-108063142D01*
X88537523Y-107967904D01*
X88585142Y-107777428D01*
X88585142Y-107539333D01*
X88537523Y-107348857D01*
X88489904Y-107253619D01*
X88442285Y-107206000D01*
X88347047Y-107158380D01*
X87585142Y-108063142D02*
X87537523Y-108110761D01*
X87585142Y-108158380D01*
X87632761Y-108110761D01*
X87585142Y-108063142D01*
X87585142Y-108158380D01*
X86918476Y-107158380D02*
X86823238Y-107158380D01*
X86728000Y-107206000D01*
X86680380Y-107253619D01*
X86632761Y-107348857D01*
X86585142Y-107539333D01*
X86585142Y-107777428D01*
X86632761Y-107967904D01*
X86680380Y-108063142D01*
X86728000Y-108110761D01*
X86823238Y-108158380D01*
X86918476Y-108158380D01*
X87013714Y-108110761D01*
X87061333Y-108063142D01*
X87108952Y-107967904D01*
X87156571Y-107777428D01*
X87156571Y-107539333D01*
X87108952Y-107348857D01*
X87061333Y-107253619D01*
X87013714Y-107206000D01*
X86918476Y-107158380D01*
X85632761Y-108158380D02*
X86204190Y-108158380D01*
X85918476Y-108158380D02*
X85918476Y-107158380D01*
X86013714Y-107301238D01*
X86108952Y-107396476D01*
X86204190Y-107444095D01*
X84775619Y-107491714D02*
X84775619Y-108158380D01*
X85204190Y-107491714D02*
X85204190Y-108015523D01*
X85156571Y-108110761D01*
X85061333Y-108158380D01*
X84918476Y-108158380D01*
X84823238Y-108110761D01*
X84775619Y-108063142D01*
X83966095Y-107634571D02*
X84299428Y-107634571D01*
X84299428Y-108158380D02*
X84299428Y-107158380D01*
X83823238Y-107158380D01*
X86104166Y-139473142D02*
X86151785Y-139520761D01*
X86294642Y-139568380D01*
X86389880Y-139568380D01*
X86532738Y-139520761D01*
X86627976Y-139425523D01*
X86675595Y-139330285D01*
X86723214Y-139139809D01*
X86723214Y-138996952D01*
X86675595Y-138806476D01*
X86627976Y-138711238D01*
X86532738Y-138616000D01*
X86389880Y-138568380D01*
X86294642Y-138568380D01*
X86151785Y-138616000D01*
X86104166Y-138663619D01*
X85199404Y-138568380D02*
X85675595Y-138568380D01*
X85723214Y-139044571D01*
X85675595Y-138996952D01*
X85580357Y-138949333D01*
X85342261Y-138949333D01*
X85247023Y-138996952D01*
X85199404Y-139044571D01*
X85151785Y-139139809D01*
X85151785Y-139377904D01*
X85199404Y-139473142D01*
X85247023Y-139520761D01*
X85342261Y-139568380D01*
X85580357Y-139568380D01*
X85675595Y-139520761D01*
X85723214Y-139473142D01*
X88056547Y-134928380D02*
X87961309Y-134928380D01*
X87866071Y-134976000D01*
X87818452Y-135023619D01*
X87770833Y-135118857D01*
X87723214Y-135309333D01*
X87723214Y-135547428D01*
X87770833Y-135737904D01*
X87818452Y-135833142D01*
X87866071Y-135880761D01*
X87961309Y-135928380D01*
X88056547Y-135928380D01*
X88151785Y-135880761D01*
X88199404Y-135833142D01*
X88247023Y-135737904D01*
X88294642Y-135547428D01*
X88294642Y-135309333D01*
X88247023Y-135118857D01*
X88199404Y-135023619D01*
X88151785Y-134976000D01*
X88056547Y-134928380D01*
X87294642Y-135833142D02*
X87247023Y-135880761D01*
X87294642Y-135928380D01*
X87342261Y-135880761D01*
X87294642Y-135833142D01*
X87294642Y-135928380D01*
X86913690Y-134928380D02*
X86294642Y-134928380D01*
X86627976Y-135309333D01*
X86485119Y-135309333D01*
X86389880Y-135356952D01*
X86342261Y-135404571D01*
X86294642Y-135499809D01*
X86294642Y-135737904D01*
X86342261Y-135833142D01*
X86389880Y-135880761D01*
X86485119Y-135928380D01*
X86770833Y-135928380D01*
X86866071Y-135880761D01*
X86913690Y-135833142D01*
X85961309Y-134928380D02*
X85342261Y-134928380D01*
X85675595Y-135309333D01*
X85532738Y-135309333D01*
X85437500Y-135356952D01*
X85389880Y-135404571D01*
X85342261Y-135499809D01*
X85342261Y-135737904D01*
X85389880Y-135833142D01*
X85437500Y-135880761D01*
X85532738Y-135928380D01*
X85818452Y-135928380D01*
X85913690Y-135880761D01*
X85961309Y-135833142D01*
X84485119Y-135261714D02*
X84485119Y-135928380D01*
X84913690Y-135261714D02*
X84913690Y-135785523D01*
X84866071Y-135880761D01*
X84770833Y-135928380D01*
X84627976Y-135928380D01*
X84532738Y-135880761D01*
X84485119Y-135833142D01*
X83675595Y-135404571D02*
X84008928Y-135404571D01*
X84008928Y-135928380D02*
X84008928Y-134928380D01*
X83532738Y-134928380D01*
X86731904Y-128672380D02*
X86731904Y-129481904D01*
X86684285Y-129577142D01*
X86636666Y-129624761D01*
X86541428Y-129672380D01*
X86350952Y-129672380D01*
X86255714Y-129624761D01*
X86208095Y-129577142D01*
X86160476Y-129481904D01*
X86160476Y-128672380D01*
X85731904Y-128767619D02*
X85684285Y-128720000D01*
X85589047Y-128672380D01*
X85350952Y-128672380D01*
X85255714Y-128720000D01*
X85208095Y-128767619D01*
X85160476Y-128862857D01*
X85160476Y-128958095D01*
X85208095Y-129100952D01*
X85779523Y-129672380D01*
X85160476Y-129672380D01*
X89616857Y-116624380D02*
X88950190Y-116624380D01*
X89378761Y-117624380D01*
X88140666Y-116957714D02*
X88140666Y-117624380D01*
X88378761Y-116576761D02*
X88616857Y-117291047D01*
X87997809Y-117291047D01*
X87616857Y-117624380D02*
X87616857Y-116624380D01*
X87616857Y-117100571D02*
X87045428Y-117100571D01*
X87045428Y-117624380D02*
X87045428Y-116624380D01*
X85997809Y-117529142D02*
X86045428Y-117576761D01*
X86188285Y-117624380D01*
X86283523Y-117624380D01*
X86426380Y-117576761D01*
X86521619Y-117481523D01*
X86569238Y-117386285D01*
X86616857Y-117195809D01*
X86616857Y-117052952D01*
X86569238Y-116862476D01*
X86521619Y-116767238D01*
X86426380Y-116672000D01*
X86283523Y-116624380D01*
X86188285Y-116624380D01*
X86045428Y-116672000D01*
X85997809Y-116719619D01*
X85712095Y-116624380D02*
X85140666Y-116624380D01*
X85426380Y-117624380D02*
X85426380Y-116624380D01*
X84283523Y-117624380D02*
X84854952Y-117624380D01*
X84569238Y-117624380D02*
X84569238Y-116624380D01*
X84664476Y-116767238D01*
X84759714Y-116862476D01*
X84854952Y-116910095D01*
X83950190Y-116624380D02*
X83331142Y-116624380D01*
X83664476Y-117005333D01*
X83521619Y-117005333D01*
X83426380Y-117052952D01*
X83378761Y-117100571D01*
X83331142Y-117195809D01*
X83331142Y-117433904D01*
X83378761Y-117529142D01*
X83426380Y-117576761D01*
X83521619Y-117624380D01*
X83807333Y-117624380D01*
X83902571Y-117576761D01*
X83950190Y-117529142D01*
X82759714Y-117052952D02*
X82854952Y-117005333D01*
X82902571Y-116957714D01*
X82950190Y-116862476D01*
X82950190Y-116814857D01*
X82902571Y-116719619D01*
X82854952Y-116672000D01*
X82759714Y-116624380D01*
X82569238Y-116624380D01*
X82474000Y-116672000D01*
X82426380Y-116719619D01*
X82378761Y-116814857D01*
X82378761Y-116862476D01*
X82426380Y-116957714D01*
X82474000Y-117005333D01*
X82569238Y-117052952D01*
X82759714Y-117052952D01*
X82854952Y-117100571D01*
X82902571Y-117148190D01*
X82950190Y-117243428D01*
X82950190Y-117433904D01*
X82902571Y-117529142D01*
X82854952Y-117576761D01*
X82759714Y-117624380D01*
X82569238Y-117624380D01*
X82474000Y-117576761D01*
X82426380Y-117529142D01*
X82378761Y-117433904D01*
X82378761Y-117243428D01*
X82426380Y-117148190D01*
X82474000Y-117100571D01*
X82569238Y-117052952D01*
%LPC*%
D13*
X52182000Y-104540000D03*
D14*
X67422000Y-152800000D03*
X52182000Y-107080000D03*
X67422000Y-150260000D03*
X52182000Y-109620000D03*
X67422000Y-147720000D03*
X52182000Y-112160000D03*
X67422000Y-145180000D03*
X52182000Y-114700000D03*
X67422000Y-142640000D03*
X52182000Y-117240000D03*
X67422000Y-140100000D03*
X52182000Y-119780000D03*
X67422000Y-137560000D03*
X52182000Y-122320000D03*
X67422000Y-135020000D03*
X52182000Y-124860000D03*
X67422000Y-132480000D03*
X52182000Y-127400000D03*
X67422000Y-129940000D03*
X52182000Y-129940000D03*
X67422000Y-127400000D03*
X52182000Y-132480000D03*
X67422000Y-124860000D03*
X52182000Y-135020000D03*
X67422000Y-122320000D03*
X52182000Y-137560000D03*
X67422000Y-119780000D03*
X52182000Y-140100000D03*
X67422000Y-117240000D03*
X52182000Y-142640000D03*
X67422000Y-114700000D03*
X52182000Y-145180000D03*
X67422000Y-112160000D03*
X52182000Y-147720000D03*
X67422000Y-109620000D03*
X52182000Y-150260000D03*
X67422000Y-107080000D03*
X52182000Y-152800000D03*
X67422000Y-104540000D03*
D15*
G36*
X85262363Y-97509290D02*
G01*
X85288369Y-97513148D01*
X85313871Y-97519535D01*
X85338624Y-97528392D01*
X85362390Y-97539633D01*
X85384939Y-97553148D01*
X85406056Y-97568809D01*
X85425535Y-97586465D01*
X85443191Y-97605944D01*
X85458852Y-97627061D01*
X85472367Y-97649610D01*
X85483608Y-97673376D01*
X85492465Y-97698129D01*
X85498852Y-97723631D01*
X85502710Y-97749637D01*
X85504000Y-97775895D01*
X85504000Y-99092105D01*
X85502710Y-99118363D01*
X85498852Y-99144369D01*
X85492465Y-99169871D01*
X85483608Y-99194624D01*
X85472367Y-99218390D01*
X85458852Y-99240939D01*
X85443191Y-99262056D01*
X85425535Y-99281535D01*
X85406056Y-99299191D01*
X85384939Y-99314852D01*
X85362390Y-99328367D01*
X85338624Y-99339608D01*
X85313871Y-99348465D01*
X85288369Y-99354852D01*
X85262363Y-99358710D01*
X85236105Y-99360000D01*
X84244895Y-99360000D01*
X84218637Y-99358710D01*
X84192631Y-99354852D01*
X84167129Y-99348465D01*
X84142376Y-99339608D01*
X84118610Y-99328367D01*
X84096061Y-99314852D01*
X84074944Y-99299191D01*
X84055465Y-99281535D01*
X84037809Y-99262056D01*
X84022148Y-99240939D01*
X84008633Y-99218390D01*
X83997392Y-99194624D01*
X83988535Y-99169871D01*
X83982148Y-99144369D01*
X83978290Y-99118363D01*
X83977000Y-99092105D01*
X83977000Y-97775895D01*
X83978290Y-97749637D01*
X83982148Y-97723631D01*
X83988535Y-97698129D01*
X83997392Y-97673376D01*
X84008633Y-97649610D01*
X84022148Y-97627061D01*
X84037809Y-97605944D01*
X84055465Y-97586465D01*
X84074944Y-97568809D01*
X84096061Y-97553148D01*
X84118610Y-97539633D01*
X84142376Y-97528392D01*
X84167129Y-97519535D01*
X84192631Y-97513148D01*
X84218637Y-97509290D01*
X84244895Y-97508000D01*
X85236105Y-97508000D01*
X85262363Y-97509290D01*
G37*
G36*
X88237363Y-97509290D02*
G01*
X88263369Y-97513148D01*
X88288871Y-97519535D01*
X88313624Y-97528392D01*
X88337390Y-97539633D01*
X88359939Y-97553148D01*
X88381056Y-97568809D01*
X88400535Y-97586465D01*
X88418191Y-97605944D01*
X88433852Y-97627061D01*
X88447367Y-97649610D01*
X88458608Y-97673376D01*
X88467465Y-97698129D01*
X88473852Y-97723631D01*
X88477710Y-97749637D01*
X88479000Y-97775895D01*
X88479000Y-99092105D01*
X88477710Y-99118363D01*
X88473852Y-99144369D01*
X88467465Y-99169871D01*
X88458608Y-99194624D01*
X88447367Y-99218390D01*
X88433852Y-99240939D01*
X88418191Y-99262056D01*
X88400535Y-99281535D01*
X88381056Y-99299191D01*
X88359939Y-99314852D01*
X88337390Y-99328367D01*
X88313624Y-99339608D01*
X88288871Y-99348465D01*
X88263369Y-99354852D01*
X88237363Y-99358710D01*
X88211105Y-99360000D01*
X87219895Y-99360000D01*
X87193637Y-99358710D01*
X87167631Y-99354852D01*
X87142129Y-99348465D01*
X87117376Y-99339608D01*
X87093610Y-99328367D01*
X87071061Y-99314852D01*
X87049944Y-99299191D01*
X87030465Y-99281535D01*
X87012809Y-99262056D01*
X86997148Y-99240939D01*
X86983633Y-99218390D01*
X86972392Y-99194624D01*
X86963535Y-99169871D01*
X86957148Y-99144369D01*
X86953290Y-99118363D01*
X86952000Y-99092105D01*
X86952000Y-97775895D01*
X86953290Y-97749637D01*
X86957148Y-97723631D01*
X86963535Y-97698129D01*
X86972392Y-97673376D01*
X86983633Y-97649610D01*
X86997148Y-97627061D01*
X87012809Y-97605944D01*
X87030465Y-97586465D01*
X87049944Y-97568809D01*
X87071061Y-97553148D01*
X87093610Y-97539633D01*
X87117376Y-97528392D01*
X87142129Y-97519535D01*
X87167631Y-97513148D01*
X87193637Y-97509290D01*
X87219895Y-97508000D01*
X88211105Y-97508000D01*
X88237363Y-97509290D01*
G37*
G36*
X85583505Y-103526311D02*
G01*
X85609925Y-103530230D01*
X85635835Y-103536720D01*
X85660983Y-103545718D01*
X85685128Y-103557138D01*
X85708038Y-103570869D01*
X85729492Y-103586780D01*
X85749282Y-103604718D01*
X85767220Y-103624508D01*
X85783131Y-103645962D01*
X85796862Y-103668872D01*
X85808282Y-103693017D01*
X85817280Y-103718165D01*
X85823770Y-103744075D01*
X85827689Y-103770495D01*
X85829000Y-103797173D01*
X85829000Y-104754827D01*
X85827689Y-104781505D01*
X85823770Y-104807925D01*
X85817280Y-104833835D01*
X85808282Y-104858983D01*
X85796862Y-104883128D01*
X85783131Y-104906038D01*
X85767220Y-104927492D01*
X85749282Y-104947282D01*
X85729492Y-104965220D01*
X85708038Y-104981131D01*
X85685128Y-104994862D01*
X85660983Y-105006282D01*
X85635835Y-105015280D01*
X85609925Y-105021770D01*
X85583505Y-105025689D01*
X85556827Y-105027000D01*
X84849173Y-105027000D01*
X84822495Y-105025689D01*
X84796075Y-105021770D01*
X84770165Y-105015280D01*
X84745017Y-105006282D01*
X84720872Y-104994862D01*
X84697962Y-104981131D01*
X84676508Y-104965220D01*
X84656718Y-104947282D01*
X84638780Y-104927492D01*
X84622869Y-104906038D01*
X84609138Y-104883128D01*
X84597718Y-104858983D01*
X84588720Y-104833835D01*
X84582230Y-104807925D01*
X84578311Y-104781505D01*
X84577000Y-104754827D01*
X84577000Y-103797173D01*
X84578311Y-103770495D01*
X84582230Y-103744075D01*
X84588720Y-103718165D01*
X84597718Y-103693017D01*
X84609138Y-103668872D01*
X84622869Y-103645962D01*
X84638780Y-103624508D01*
X84656718Y-103604718D01*
X84676508Y-103586780D01*
X84697962Y-103570869D01*
X84720872Y-103557138D01*
X84745017Y-103545718D01*
X84770165Y-103536720D01*
X84796075Y-103530230D01*
X84822495Y-103526311D01*
X84849173Y-103525000D01*
X85556827Y-103525000D01*
X85583505Y-103526311D01*
G37*
G36*
X87633505Y-103526311D02*
G01*
X87659925Y-103530230D01*
X87685835Y-103536720D01*
X87710983Y-103545718D01*
X87735128Y-103557138D01*
X87758038Y-103570869D01*
X87779492Y-103586780D01*
X87799282Y-103604718D01*
X87817220Y-103624508D01*
X87833131Y-103645962D01*
X87846862Y-103668872D01*
X87858282Y-103693017D01*
X87867280Y-103718165D01*
X87873770Y-103744075D01*
X87877689Y-103770495D01*
X87879000Y-103797173D01*
X87879000Y-104754827D01*
X87877689Y-104781505D01*
X87873770Y-104807925D01*
X87867280Y-104833835D01*
X87858282Y-104858983D01*
X87846862Y-104883128D01*
X87833131Y-104906038D01*
X87817220Y-104927492D01*
X87799282Y-104947282D01*
X87779492Y-104965220D01*
X87758038Y-104981131D01*
X87735128Y-104994862D01*
X87710983Y-105006282D01*
X87685835Y-105015280D01*
X87659925Y-105021770D01*
X87633505Y-105025689D01*
X87606827Y-105027000D01*
X86899173Y-105027000D01*
X86872495Y-105025689D01*
X86846075Y-105021770D01*
X86820165Y-105015280D01*
X86795017Y-105006282D01*
X86770872Y-104994862D01*
X86747962Y-104981131D01*
X86726508Y-104965220D01*
X86706718Y-104947282D01*
X86688780Y-104927492D01*
X86672869Y-104906038D01*
X86659138Y-104883128D01*
X86647718Y-104858983D01*
X86638720Y-104833835D01*
X86632230Y-104807925D01*
X86628311Y-104781505D01*
X86627000Y-104754827D01*
X86627000Y-103797173D01*
X86628311Y-103770495D01*
X86632230Y-103744075D01*
X86638720Y-103718165D01*
X86647718Y-103693017D01*
X86659138Y-103668872D01*
X86672869Y-103645962D01*
X86688780Y-103624508D01*
X86706718Y-103604718D01*
X86726508Y-103586780D01*
X86747962Y-103570869D01*
X86770872Y-103557138D01*
X86795017Y-103545718D01*
X86820165Y-103536720D01*
X86846075Y-103530230D01*
X86872495Y-103526311D01*
X86899173Y-103525000D01*
X87606827Y-103525000D01*
X87633505Y-103526311D01*
G37*
G36*
X87633505Y-108606311D02*
G01*
X87659925Y-108610230D01*
X87685835Y-108616720D01*
X87710983Y-108625718D01*
X87735128Y-108637138D01*
X87758038Y-108650869D01*
X87779492Y-108666780D01*
X87799282Y-108684718D01*
X87817220Y-108704508D01*
X87833131Y-108725962D01*
X87846862Y-108748872D01*
X87858282Y-108773017D01*
X87867280Y-108798165D01*
X87873770Y-108824075D01*
X87877689Y-108850495D01*
X87879000Y-108877173D01*
X87879000Y-109834827D01*
X87877689Y-109861505D01*
X87873770Y-109887925D01*
X87867280Y-109913835D01*
X87858282Y-109938983D01*
X87846862Y-109963128D01*
X87833131Y-109986038D01*
X87817220Y-110007492D01*
X87799282Y-110027282D01*
X87779492Y-110045220D01*
X87758038Y-110061131D01*
X87735128Y-110074862D01*
X87710983Y-110086282D01*
X87685835Y-110095280D01*
X87659925Y-110101770D01*
X87633505Y-110105689D01*
X87606827Y-110107000D01*
X86899173Y-110107000D01*
X86872495Y-110105689D01*
X86846075Y-110101770D01*
X86820165Y-110095280D01*
X86795017Y-110086282D01*
X86770872Y-110074862D01*
X86747962Y-110061131D01*
X86726508Y-110045220D01*
X86706718Y-110027282D01*
X86688780Y-110007492D01*
X86672869Y-109986038D01*
X86659138Y-109963128D01*
X86647718Y-109938983D01*
X86638720Y-109913835D01*
X86632230Y-109887925D01*
X86628311Y-109861505D01*
X86627000Y-109834827D01*
X86627000Y-108877173D01*
X86628311Y-108850495D01*
X86632230Y-108824075D01*
X86638720Y-108798165D01*
X86647718Y-108773017D01*
X86659138Y-108748872D01*
X86672869Y-108725962D01*
X86688780Y-108704508D01*
X86706718Y-108684718D01*
X86726508Y-108666780D01*
X86747962Y-108650869D01*
X86770872Y-108637138D01*
X86795017Y-108625718D01*
X86820165Y-108616720D01*
X86846075Y-108610230D01*
X86872495Y-108606311D01*
X86899173Y-108605000D01*
X87606827Y-108605000D01*
X87633505Y-108606311D01*
G37*
G36*
X85583505Y-108606311D02*
G01*
X85609925Y-108610230D01*
X85635835Y-108616720D01*
X85660983Y-108625718D01*
X85685128Y-108637138D01*
X85708038Y-108650869D01*
X85729492Y-108666780D01*
X85749282Y-108684718D01*
X85767220Y-108704508D01*
X85783131Y-108725962D01*
X85796862Y-108748872D01*
X85808282Y-108773017D01*
X85817280Y-108798165D01*
X85823770Y-108824075D01*
X85827689Y-108850495D01*
X85829000Y-108877173D01*
X85829000Y-109834827D01*
X85827689Y-109861505D01*
X85823770Y-109887925D01*
X85817280Y-109913835D01*
X85808282Y-109938983D01*
X85796862Y-109963128D01*
X85783131Y-109986038D01*
X85767220Y-110007492D01*
X85749282Y-110027282D01*
X85729492Y-110045220D01*
X85708038Y-110061131D01*
X85685128Y-110074862D01*
X85660983Y-110086282D01*
X85635835Y-110095280D01*
X85609925Y-110101770D01*
X85583505Y-110105689D01*
X85556827Y-110107000D01*
X84849173Y-110107000D01*
X84822495Y-110105689D01*
X84796075Y-110101770D01*
X84770165Y-110095280D01*
X84745017Y-110086282D01*
X84720872Y-110074862D01*
X84697962Y-110061131D01*
X84676508Y-110045220D01*
X84656718Y-110027282D01*
X84638780Y-110007492D01*
X84622869Y-109986038D01*
X84609138Y-109963128D01*
X84597718Y-109938983D01*
X84588720Y-109913835D01*
X84582230Y-109887925D01*
X84578311Y-109861505D01*
X84577000Y-109834827D01*
X84577000Y-108877173D01*
X84578311Y-108850495D01*
X84582230Y-108824075D01*
X84588720Y-108798165D01*
X84597718Y-108773017D01*
X84609138Y-108748872D01*
X84622869Y-108725962D01*
X84638780Y-108704508D01*
X84656718Y-108684718D01*
X84676508Y-108666780D01*
X84697962Y-108650869D01*
X84720872Y-108637138D01*
X84745017Y-108625718D01*
X84770165Y-108616720D01*
X84796075Y-108610230D01*
X84822495Y-108606311D01*
X84849173Y-108605000D01*
X85556827Y-108605000D01*
X85583505Y-108606311D01*
G37*
G36*
X87946863Y-136371290D02*
G01*
X87972869Y-136375148D01*
X87998371Y-136381535D01*
X88023124Y-136390392D01*
X88046890Y-136401633D01*
X88069439Y-136415148D01*
X88090556Y-136430809D01*
X88110035Y-136448465D01*
X88127691Y-136467944D01*
X88143352Y-136489061D01*
X88156867Y-136511610D01*
X88168108Y-136535376D01*
X88176965Y-136560129D01*
X88183352Y-136585631D01*
X88187210Y-136611637D01*
X88188500Y-136637895D01*
X88188500Y-137954105D01*
X88187210Y-137980363D01*
X88183352Y-138006369D01*
X88176965Y-138031871D01*
X88168108Y-138056624D01*
X88156867Y-138080390D01*
X88143352Y-138102939D01*
X88127691Y-138124056D01*
X88110035Y-138143535D01*
X88090556Y-138161191D01*
X88069439Y-138176852D01*
X88046890Y-138190367D01*
X88023124Y-138201608D01*
X87998371Y-138210465D01*
X87972869Y-138216852D01*
X87946863Y-138220710D01*
X87920605Y-138222000D01*
X86929395Y-138222000D01*
X86903137Y-138220710D01*
X86877131Y-138216852D01*
X86851629Y-138210465D01*
X86826876Y-138201608D01*
X86803110Y-138190367D01*
X86780561Y-138176852D01*
X86759444Y-138161191D01*
X86739965Y-138143535D01*
X86722309Y-138124056D01*
X86706648Y-138102939D01*
X86693133Y-138080390D01*
X86681892Y-138056624D01*
X86673035Y-138031871D01*
X86666648Y-138006369D01*
X86662790Y-137980363D01*
X86661500Y-137954105D01*
X86661500Y-136637895D01*
X86662790Y-136611637D01*
X86666648Y-136585631D01*
X86673035Y-136560129D01*
X86681892Y-136535376D01*
X86693133Y-136511610D01*
X86706648Y-136489061D01*
X86722309Y-136467944D01*
X86739965Y-136448465D01*
X86759444Y-136430809D01*
X86780561Y-136415148D01*
X86803110Y-136401633D01*
X86826876Y-136390392D01*
X86851629Y-136381535D01*
X86877131Y-136375148D01*
X86903137Y-136371290D01*
X86929395Y-136370000D01*
X87920605Y-136370000D01*
X87946863Y-136371290D01*
G37*
G36*
X84971863Y-136371290D02*
G01*
X84997869Y-136375148D01*
X85023371Y-136381535D01*
X85048124Y-136390392D01*
X85071890Y-136401633D01*
X85094439Y-136415148D01*
X85115556Y-136430809D01*
X85135035Y-136448465D01*
X85152691Y-136467944D01*
X85168352Y-136489061D01*
X85181867Y-136511610D01*
X85193108Y-136535376D01*
X85201965Y-136560129D01*
X85208352Y-136585631D01*
X85212210Y-136611637D01*
X85213500Y-136637895D01*
X85213500Y-137954105D01*
X85212210Y-137980363D01*
X85208352Y-138006369D01*
X85201965Y-138031871D01*
X85193108Y-138056624D01*
X85181867Y-138080390D01*
X85168352Y-138102939D01*
X85152691Y-138124056D01*
X85135035Y-138143535D01*
X85115556Y-138161191D01*
X85094439Y-138176852D01*
X85071890Y-138190367D01*
X85048124Y-138201608D01*
X85023371Y-138210465D01*
X84997869Y-138216852D01*
X84971863Y-138220710D01*
X84945605Y-138222000D01*
X83954395Y-138222000D01*
X83928137Y-138220710D01*
X83902131Y-138216852D01*
X83876629Y-138210465D01*
X83851876Y-138201608D01*
X83828110Y-138190367D01*
X83805561Y-138176852D01*
X83784444Y-138161191D01*
X83764965Y-138143535D01*
X83747309Y-138124056D01*
X83731648Y-138102939D01*
X83718133Y-138080390D01*
X83706892Y-138056624D01*
X83698035Y-138031871D01*
X83691648Y-138006369D01*
X83687790Y-137980363D01*
X83686500Y-137954105D01*
X83686500Y-136637895D01*
X83687790Y-136611637D01*
X83691648Y-136585631D01*
X83698035Y-136560129D01*
X83706892Y-136535376D01*
X83718133Y-136511610D01*
X83731648Y-136489061D01*
X83747309Y-136467944D01*
X83764965Y-136448465D01*
X83784444Y-136430809D01*
X83805561Y-136415148D01*
X83828110Y-136401633D01*
X83851876Y-136390392D01*
X83876629Y-136381535D01*
X83902131Y-136375148D01*
X83928137Y-136371290D01*
X83954395Y-136370000D01*
X84945605Y-136370000D01*
X84971863Y-136371290D01*
G37*
D13*
X97658000Y-152790000D03*
D14*
X74798000Y-74050000D03*
X97658000Y-150250000D03*
X74798000Y-76590000D03*
X97658000Y-147710000D03*
X74798000Y-79130000D03*
X97658000Y-145170000D03*
X74798000Y-81670000D03*
X97658000Y-142630000D03*
X74798000Y-84210000D03*
X97658000Y-140090000D03*
X74798000Y-86750000D03*
X97658000Y-137550000D03*
X74798000Y-89290000D03*
X97658000Y-135010000D03*
X74798000Y-91830000D03*
X97658000Y-132470000D03*
X74798000Y-94370000D03*
X97658000Y-129930000D03*
X74798000Y-96910000D03*
X97658000Y-127390000D03*
X74798000Y-99450000D03*
X97658000Y-124850000D03*
X74798000Y-101990000D03*
X97658000Y-122310000D03*
X74798000Y-104530000D03*
X97658000Y-119770000D03*
X74798000Y-107070000D03*
X97658000Y-117230000D03*
X74798000Y-109610000D03*
X97658000Y-114690000D03*
X74798000Y-112150000D03*
X97658000Y-112150000D03*
X74798000Y-114690000D03*
X97658000Y-109610000D03*
X74798000Y-117230000D03*
X97658000Y-107070000D03*
X74798000Y-119770000D03*
X97658000Y-104530000D03*
X74798000Y-122310000D03*
X97658000Y-101990000D03*
X74798000Y-124850000D03*
X97658000Y-99450000D03*
X74798000Y-127390000D03*
X97658000Y-96910000D03*
X74798000Y-129930000D03*
X97658000Y-94370000D03*
X74798000Y-132470000D03*
X97658000Y-91830000D03*
X74798000Y-135010000D03*
X97658000Y-89290000D03*
X74798000Y-137550000D03*
X97658000Y-86750000D03*
X74798000Y-140090000D03*
X97658000Y-84210000D03*
X74798000Y-142630000D03*
X97658000Y-81670000D03*
X74798000Y-145170000D03*
X97658000Y-79130000D03*
X74798000Y-147710000D03*
X97658000Y-76590000D03*
X74798000Y-150250000D03*
X97658000Y-74050000D03*
X74798000Y-152790000D03*
D16*
X52200000Y-97860000D03*
D17*
X54740000Y-97860000D03*
X57280000Y-97860000D03*
D15*
G36*
X84366702Y-127166845D02*
G01*
X84383738Y-127169372D01*
X84400445Y-127173557D01*
X84416661Y-127179359D01*
X84432230Y-127186723D01*
X84447003Y-127195577D01*
X84460836Y-127205837D01*
X84473597Y-127217403D01*
X84485163Y-127230164D01*
X84495423Y-127243997D01*
X84504277Y-127258770D01*
X84511641Y-127274339D01*
X84517443Y-127290555D01*
X84521628Y-127307262D01*
X84524155Y-127324298D01*
X84525000Y-127341500D01*
X84525000Y-127692500D01*
X84524155Y-127709702D01*
X84521628Y-127726738D01*
X84517443Y-127743445D01*
X84511641Y-127759661D01*
X84504277Y-127775230D01*
X84495423Y-127790003D01*
X84485163Y-127803836D01*
X84473597Y-127816597D01*
X84460836Y-127828163D01*
X84447003Y-127838423D01*
X84432230Y-127847277D01*
X84416661Y-127854641D01*
X84400445Y-127860443D01*
X84383738Y-127864628D01*
X84366702Y-127867155D01*
X84349500Y-127868000D01*
X82648500Y-127868000D01*
X82631298Y-127867155D01*
X82614262Y-127864628D01*
X82597555Y-127860443D01*
X82581339Y-127854641D01*
X82565770Y-127847277D01*
X82550997Y-127838423D01*
X82537164Y-127828163D01*
X82524403Y-127816597D01*
X82512837Y-127803836D01*
X82502577Y-127790003D01*
X82493723Y-127775230D01*
X82486359Y-127759661D01*
X82480557Y-127743445D01*
X82476372Y-127726738D01*
X82473845Y-127709702D01*
X82473000Y-127692500D01*
X82473000Y-127341500D01*
X82473845Y-127324298D01*
X82476372Y-127307262D01*
X82480557Y-127290555D01*
X82486359Y-127274339D01*
X82493723Y-127258770D01*
X82502577Y-127243997D01*
X82512837Y-127230164D01*
X82524403Y-127217403D01*
X82537164Y-127205837D01*
X82550997Y-127195577D01*
X82565770Y-127186723D01*
X82581339Y-127179359D01*
X82597555Y-127173557D01*
X82614262Y-127169372D01*
X82631298Y-127166845D01*
X82648500Y-127166000D01*
X84349500Y-127166000D01*
X84366702Y-127166845D01*
G37*
G36*
X84366702Y-125896845D02*
G01*
X84383738Y-125899372D01*
X84400445Y-125903557D01*
X84416661Y-125909359D01*
X84432230Y-125916723D01*
X84447003Y-125925577D01*
X84460836Y-125935837D01*
X84473597Y-125947403D01*
X84485163Y-125960164D01*
X84495423Y-125973997D01*
X84504277Y-125988770D01*
X84511641Y-126004339D01*
X84517443Y-126020555D01*
X84521628Y-126037262D01*
X84524155Y-126054298D01*
X84525000Y-126071500D01*
X84525000Y-126422500D01*
X84524155Y-126439702D01*
X84521628Y-126456738D01*
X84517443Y-126473445D01*
X84511641Y-126489661D01*
X84504277Y-126505230D01*
X84495423Y-126520003D01*
X84485163Y-126533836D01*
X84473597Y-126546597D01*
X84460836Y-126558163D01*
X84447003Y-126568423D01*
X84432230Y-126577277D01*
X84416661Y-126584641D01*
X84400445Y-126590443D01*
X84383738Y-126594628D01*
X84366702Y-126597155D01*
X84349500Y-126598000D01*
X82648500Y-126598000D01*
X82631298Y-126597155D01*
X82614262Y-126594628D01*
X82597555Y-126590443D01*
X82581339Y-126584641D01*
X82565770Y-126577277D01*
X82550997Y-126568423D01*
X82537164Y-126558163D01*
X82524403Y-126546597D01*
X82512837Y-126533836D01*
X82502577Y-126520003D01*
X82493723Y-126505230D01*
X82486359Y-126489661D01*
X82480557Y-126473445D01*
X82476372Y-126456738D01*
X82473845Y-126439702D01*
X82473000Y-126422500D01*
X82473000Y-126071500D01*
X82473845Y-126054298D01*
X82476372Y-126037262D01*
X82480557Y-126020555D01*
X82486359Y-126004339D01*
X82493723Y-125988770D01*
X82502577Y-125973997D01*
X82512837Y-125960164D01*
X82524403Y-125947403D01*
X82537164Y-125935837D01*
X82550997Y-125925577D01*
X82565770Y-125916723D01*
X82581339Y-125909359D01*
X82597555Y-125903557D01*
X82614262Y-125899372D01*
X82631298Y-125896845D01*
X82648500Y-125896000D01*
X84349500Y-125896000D01*
X84366702Y-125896845D01*
G37*
G36*
X84366702Y-124626845D02*
G01*
X84383738Y-124629372D01*
X84400445Y-124633557D01*
X84416661Y-124639359D01*
X84432230Y-124646723D01*
X84447003Y-124655577D01*
X84460836Y-124665837D01*
X84473597Y-124677403D01*
X84485163Y-124690164D01*
X84495423Y-124703997D01*
X84504277Y-124718770D01*
X84511641Y-124734339D01*
X84517443Y-124750555D01*
X84521628Y-124767262D01*
X84524155Y-124784298D01*
X84525000Y-124801500D01*
X84525000Y-125152500D01*
X84524155Y-125169702D01*
X84521628Y-125186738D01*
X84517443Y-125203445D01*
X84511641Y-125219661D01*
X84504277Y-125235230D01*
X84495423Y-125250003D01*
X84485163Y-125263836D01*
X84473597Y-125276597D01*
X84460836Y-125288163D01*
X84447003Y-125298423D01*
X84432230Y-125307277D01*
X84416661Y-125314641D01*
X84400445Y-125320443D01*
X84383738Y-125324628D01*
X84366702Y-125327155D01*
X84349500Y-125328000D01*
X82648500Y-125328000D01*
X82631298Y-125327155D01*
X82614262Y-125324628D01*
X82597555Y-125320443D01*
X82581339Y-125314641D01*
X82565770Y-125307277D01*
X82550997Y-125298423D01*
X82537164Y-125288163D01*
X82524403Y-125276597D01*
X82512837Y-125263836D01*
X82502577Y-125250003D01*
X82493723Y-125235230D01*
X82486359Y-125219661D01*
X82480557Y-125203445D01*
X82476372Y-125186738D01*
X82473845Y-125169702D01*
X82473000Y-125152500D01*
X82473000Y-124801500D01*
X82473845Y-124784298D01*
X82476372Y-124767262D01*
X82480557Y-124750555D01*
X82486359Y-124734339D01*
X82493723Y-124718770D01*
X82502577Y-124703997D01*
X82512837Y-124690164D01*
X82524403Y-124677403D01*
X82537164Y-124665837D01*
X82550997Y-124655577D01*
X82565770Y-124646723D01*
X82581339Y-124639359D01*
X82597555Y-124633557D01*
X82614262Y-124629372D01*
X82631298Y-124626845D01*
X82648500Y-124626000D01*
X84349500Y-124626000D01*
X84366702Y-124626845D01*
G37*
G36*
X84366702Y-123356845D02*
G01*
X84383738Y-123359372D01*
X84400445Y-123363557D01*
X84416661Y-123369359D01*
X84432230Y-123376723D01*
X84447003Y-123385577D01*
X84460836Y-123395837D01*
X84473597Y-123407403D01*
X84485163Y-123420164D01*
X84495423Y-123433997D01*
X84504277Y-123448770D01*
X84511641Y-123464339D01*
X84517443Y-123480555D01*
X84521628Y-123497262D01*
X84524155Y-123514298D01*
X84525000Y-123531500D01*
X84525000Y-123882500D01*
X84524155Y-123899702D01*
X84521628Y-123916738D01*
X84517443Y-123933445D01*
X84511641Y-123949661D01*
X84504277Y-123965230D01*
X84495423Y-123980003D01*
X84485163Y-123993836D01*
X84473597Y-124006597D01*
X84460836Y-124018163D01*
X84447003Y-124028423D01*
X84432230Y-124037277D01*
X84416661Y-124044641D01*
X84400445Y-124050443D01*
X84383738Y-124054628D01*
X84366702Y-124057155D01*
X84349500Y-124058000D01*
X82648500Y-124058000D01*
X82631298Y-124057155D01*
X82614262Y-124054628D01*
X82597555Y-124050443D01*
X82581339Y-124044641D01*
X82565770Y-124037277D01*
X82550997Y-124028423D01*
X82537164Y-124018163D01*
X82524403Y-124006597D01*
X82512837Y-123993836D01*
X82502577Y-123980003D01*
X82493723Y-123965230D01*
X82486359Y-123949661D01*
X82480557Y-123933445D01*
X82476372Y-123916738D01*
X82473845Y-123899702D01*
X82473000Y-123882500D01*
X82473000Y-123531500D01*
X82473845Y-123514298D01*
X82476372Y-123497262D01*
X82480557Y-123480555D01*
X82486359Y-123464339D01*
X82493723Y-123448770D01*
X82502577Y-123433997D01*
X82512837Y-123420164D01*
X82524403Y-123407403D01*
X82537164Y-123395837D01*
X82550997Y-123385577D01*
X82565770Y-123376723D01*
X82581339Y-123369359D01*
X82597555Y-123363557D01*
X82614262Y-123359372D01*
X82631298Y-123356845D01*
X82648500Y-123356000D01*
X84349500Y-123356000D01*
X84366702Y-123356845D01*
G37*
G36*
X84366702Y-122086845D02*
G01*
X84383738Y-122089372D01*
X84400445Y-122093557D01*
X84416661Y-122099359D01*
X84432230Y-122106723D01*
X84447003Y-122115577D01*
X84460836Y-122125837D01*
X84473597Y-122137403D01*
X84485163Y-122150164D01*
X84495423Y-122163997D01*
X84504277Y-122178770D01*
X84511641Y-122194339D01*
X84517443Y-122210555D01*
X84521628Y-122227262D01*
X84524155Y-122244298D01*
X84525000Y-122261500D01*
X84525000Y-122612500D01*
X84524155Y-122629702D01*
X84521628Y-122646738D01*
X84517443Y-122663445D01*
X84511641Y-122679661D01*
X84504277Y-122695230D01*
X84495423Y-122710003D01*
X84485163Y-122723836D01*
X84473597Y-122736597D01*
X84460836Y-122748163D01*
X84447003Y-122758423D01*
X84432230Y-122767277D01*
X84416661Y-122774641D01*
X84400445Y-122780443D01*
X84383738Y-122784628D01*
X84366702Y-122787155D01*
X84349500Y-122788000D01*
X82648500Y-122788000D01*
X82631298Y-122787155D01*
X82614262Y-122784628D01*
X82597555Y-122780443D01*
X82581339Y-122774641D01*
X82565770Y-122767277D01*
X82550997Y-122758423D01*
X82537164Y-122748163D01*
X82524403Y-122736597D01*
X82512837Y-122723836D01*
X82502577Y-122710003D01*
X82493723Y-122695230D01*
X82486359Y-122679661D01*
X82480557Y-122663445D01*
X82476372Y-122646738D01*
X82473845Y-122629702D01*
X82473000Y-122612500D01*
X82473000Y-122261500D01*
X82473845Y-122244298D01*
X82476372Y-122227262D01*
X82480557Y-122210555D01*
X82486359Y-122194339D01*
X82493723Y-122178770D01*
X82502577Y-122163997D01*
X82512837Y-122150164D01*
X82524403Y-122137403D01*
X82537164Y-122125837D01*
X82550997Y-122115577D01*
X82565770Y-122106723D01*
X82581339Y-122099359D01*
X82597555Y-122093557D01*
X82614262Y-122089372D01*
X82631298Y-122086845D01*
X82648500Y-122086000D01*
X84349500Y-122086000D01*
X84366702Y-122086845D01*
G37*
G36*
X84366702Y-120816845D02*
G01*
X84383738Y-120819372D01*
X84400445Y-120823557D01*
X84416661Y-120829359D01*
X84432230Y-120836723D01*
X84447003Y-120845577D01*
X84460836Y-120855837D01*
X84473597Y-120867403D01*
X84485163Y-120880164D01*
X84495423Y-120893997D01*
X84504277Y-120908770D01*
X84511641Y-120924339D01*
X84517443Y-120940555D01*
X84521628Y-120957262D01*
X84524155Y-120974298D01*
X84525000Y-120991500D01*
X84525000Y-121342500D01*
X84524155Y-121359702D01*
X84521628Y-121376738D01*
X84517443Y-121393445D01*
X84511641Y-121409661D01*
X84504277Y-121425230D01*
X84495423Y-121440003D01*
X84485163Y-121453836D01*
X84473597Y-121466597D01*
X84460836Y-121478163D01*
X84447003Y-121488423D01*
X84432230Y-121497277D01*
X84416661Y-121504641D01*
X84400445Y-121510443D01*
X84383738Y-121514628D01*
X84366702Y-121517155D01*
X84349500Y-121518000D01*
X82648500Y-121518000D01*
X82631298Y-121517155D01*
X82614262Y-121514628D01*
X82597555Y-121510443D01*
X82581339Y-121504641D01*
X82565770Y-121497277D01*
X82550997Y-121488423D01*
X82537164Y-121478163D01*
X82524403Y-121466597D01*
X82512837Y-121453836D01*
X82502577Y-121440003D01*
X82493723Y-121425230D01*
X82486359Y-121409661D01*
X82480557Y-121393445D01*
X82476372Y-121376738D01*
X82473845Y-121359702D01*
X82473000Y-121342500D01*
X82473000Y-120991500D01*
X82473845Y-120974298D01*
X82476372Y-120957262D01*
X82480557Y-120940555D01*
X82486359Y-120924339D01*
X82493723Y-120908770D01*
X82502577Y-120893997D01*
X82512837Y-120880164D01*
X82524403Y-120867403D01*
X82537164Y-120855837D01*
X82550997Y-120845577D01*
X82565770Y-120836723D01*
X82581339Y-120829359D01*
X82597555Y-120823557D01*
X82614262Y-120819372D01*
X82631298Y-120816845D01*
X82648500Y-120816000D01*
X84349500Y-120816000D01*
X84366702Y-120816845D01*
G37*
G36*
X84366702Y-119546845D02*
G01*
X84383738Y-119549372D01*
X84400445Y-119553557D01*
X84416661Y-119559359D01*
X84432230Y-119566723D01*
X84447003Y-119575577D01*
X84460836Y-119585837D01*
X84473597Y-119597403D01*
X84485163Y-119610164D01*
X84495423Y-119623997D01*
X84504277Y-119638770D01*
X84511641Y-119654339D01*
X84517443Y-119670555D01*
X84521628Y-119687262D01*
X84524155Y-119704298D01*
X84525000Y-119721500D01*
X84525000Y-120072500D01*
X84524155Y-120089702D01*
X84521628Y-120106738D01*
X84517443Y-120123445D01*
X84511641Y-120139661D01*
X84504277Y-120155230D01*
X84495423Y-120170003D01*
X84485163Y-120183836D01*
X84473597Y-120196597D01*
X84460836Y-120208163D01*
X84447003Y-120218423D01*
X84432230Y-120227277D01*
X84416661Y-120234641D01*
X84400445Y-120240443D01*
X84383738Y-120244628D01*
X84366702Y-120247155D01*
X84349500Y-120248000D01*
X82648500Y-120248000D01*
X82631298Y-120247155D01*
X82614262Y-120244628D01*
X82597555Y-120240443D01*
X82581339Y-120234641D01*
X82565770Y-120227277D01*
X82550997Y-120218423D01*
X82537164Y-120208163D01*
X82524403Y-120196597D01*
X82512837Y-120183836D01*
X82502577Y-120170003D01*
X82493723Y-120155230D01*
X82486359Y-120139661D01*
X82480557Y-120123445D01*
X82476372Y-120106738D01*
X82473845Y-120089702D01*
X82473000Y-120072500D01*
X82473000Y-119721500D01*
X82473845Y-119704298D01*
X82476372Y-119687262D01*
X82480557Y-119670555D01*
X82486359Y-119654339D01*
X82493723Y-119638770D01*
X82502577Y-119623997D01*
X82512837Y-119610164D01*
X82524403Y-119597403D01*
X82537164Y-119585837D01*
X82550997Y-119575577D01*
X82565770Y-119566723D01*
X82581339Y-119559359D01*
X82597555Y-119553557D01*
X82614262Y-119549372D01*
X82631298Y-119546845D01*
X82648500Y-119546000D01*
X84349500Y-119546000D01*
X84366702Y-119546845D01*
G37*
G36*
X84366702Y-118276845D02*
G01*
X84383738Y-118279372D01*
X84400445Y-118283557D01*
X84416661Y-118289359D01*
X84432230Y-118296723D01*
X84447003Y-118305577D01*
X84460836Y-118315837D01*
X84473597Y-118327403D01*
X84485163Y-118340164D01*
X84495423Y-118353997D01*
X84504277Y-118368770D01*
X84511641Y-118384339D01*
X84517443Y-118400555D01*
X84521628Y-118417262D01*
X84524155Y-118434298D01*
X84525000Y-118451500D01*
X84525000Y-118802500D01*
X84524155Y-118819702D01*
X84521628Y-118836738D01*
X84517443Y-118853445D01*
X84511641Y-118869661D01*
X84504277Y-118885230D01*
X84495423Y-118900003D01*
X84485163Y-118913836D01*
X84473597Y-118926597D01*
X84460836Y-118938163D01*
X84447003Y-118948423D01*
X84432230Y-118957277D01*
X84416661Y-118964641D01*
X84400445Y-118970443D01*
X84383738Y-118974628D01*
X84366702Y-118977155D01*
X84349500Y-118978000D01*
X82648500Y-118978000D01*
X82631298Y-118977155D01*
X82614262Y-118974628D01*
X82597555Y-118970443D01*
X82581339Y-118964641D01*
X82565770Y-118957277D01*
X82550997Y-118948423D01*
X82537164Y-118938163D01*
X82524403Y-118926597D01*
X82512837Y-118913836D01*
X82502577Y-118900003D01*
X82493723Y-118885230D01*
X82486359Y-118869661D01*
X82480557Y-118853445D01*
X82476372Y-118836738D01*
X82473845Y-118819702D01*
X82473000Y-118802500D01*
X82473000Y-118451500D01*
X82473845Y-118434298D01*
X82476372Y-118417262D01*
X82480557Y-118400555D01*
X82486359Y-118384339D01*
X82493723Y-118368770D01*
X82502577Y-118353997D01*
X82512837Y-118340164D01*
X82524403Y-118327403D01*
X82537164Y-118315837D01*
X82550997Y-118305577D01*
X82565770Y-118296723D01*
X82581339Y-118289359D01*
X82597555Y-118283557D01*
X82614262Y-118279372D01*
X82631298Y-118276845D01*
X82648500Y-118276000D01*
X84349500Y-118276000D01*
X84366702Y-118276845D01*
G37*
G36*
X89316702Y-118276845D02*
G01*
X89333738Y-118279372D01*
X89350445Y-118283557D01*
X89366661Y-118289359D01*
X89382230Y-118296723D01*
X89397003Y-118305577D01*
X89410836Y-118315837D01*
X89423597Y-118327403D01*
X89435163Y-118340164D01*
X89445423Y-118353997D01*
X89454277Y-118368770D01*
X89461641Y-118384339D01*
X89467443Y-118400555D01*
X89471628Y-118417262D01*
X89474155Y-118434298D01*
X89475000Y-118451500D01*
X89475000Y-118802500D01*
X89474155Y-118819702D01*
X89471628Y-118836738D01*
X89467443Y-118853445D01*
X89461641Y-118869661D01*
X89454277Y-118885230D01*
X89445423Y-118900003D01*
X89435163Y-118913836D01*
X89423597Y-118926597D01*
X89410836Y-118938163D01*
X89397003Y-118948423D01*
X89382230Y-118957277D01*
X89366661Y-118964641D01*
X89350445Y-118970443D01*
X89333738Y-118974628D01*
X89316702Y-118977155D01*
X89299500Y-118978000D01*
X87598500Y-118978000D01*
X87581298Y-118977155D01*
X87564262Y-118974628D01*
X87547555Y-118970443D01*
X87531339Y-118964641D01*
X87515770Y-118957277D01*
X87500997Y-118948423D01*
X87487164Y-118938163D01*
X87474403Y-118926597D01*
X87462837Y-118913836D01*
X87452577Y-118900003D01*
X87443723Y-118885230D01*
X87436359Y-118869661D01*
X87430557Y-118853445D01*
X87426372Y-118836738D01*
X87423845Y-118819702D01*
X87423000Y-118802500D01*
X87423000Y-118451500D01*
X87423845Y-118434298D01*
X87426372Y-118417262D01*
X87430557Y-118400555D01*
X87436359Y-118384339D01*
X87443723Y-118368770D01*
X87452577Y-118353997D01*
X87462837Y-118340164D01*
X87474403Y-118327403D01*
X87487164Y-118315837D01*
X87500997Y-118305577D01*
X87515770Y-118296723D01*
X87531339Y-118289359D01*
X87547555Y-118283557D01*
X87564262Y-118279372D01*
X87581298Y-118276845D01*
X87598500Y-118276000D01*
X89299500Y-118276000D01*
X89316702Y-118276845D01*
G37*
G36*
X89316702Y-119546845D02*
G01*
X89333738Y-119549372D01*
X89350445Y-119553557D01*
X89366661Y-119559359D01*
X89382230Y-119566723D01*
X89397003Y-119575577D01*
X89410836Y-119585837D01*
X89423597Y-119597403D01*
X89435163Y-119610164D01*
X89445423Y-119623997D01*
X89454277Y-119638770D01*
X89461641Y-119654339D01*
X89467443Y-119670555D01*
X89471628Y-119687262D01*
X89474155Y-119704298D01*
X89475000Y-119721500D01*
X89475000Y-120072500D01*
X89474155Y-120089702D01*
X89471628Y-120106738D01*
X89467443Y-120123445D01*
X89461641Y-120139661D01*
X89454277Y-120155230D01*
X89445423Y-120170003D01*
X89435163Y-120183836D01*
X89423597Y-120196597D01*
X89410836Y-120208163D01*
X89397003Y-120218423D01*
X89382230Y-120227277D01*
X89366661Y-120234641D01*
X89350445Y-120240443D01*
X89333738Y-120244628D01*
X89316702Y-120247155D01*
X89299500Y-120248000D01*
X87598500Y-120248000D01*
X87581298Y-120247155D01*
X87564262Y-120244628D01*
X87547555Y-120240443D01*
X87531339Y-120234641D01*
X87515770Y-120227277D01*
X87500997Y-120218423D01*
X87487164Y-120208163D01*
X87474403Y-120196597D01*
X87462837Y-120183836D01*
X87452577Y-120170003D01*
X87443723Y-120155230D01*
X87436359Y-120139661D01*
X87430557Y-120123445D01*
X87426372Y-120106738D01*
X87423845Y-120089702D01*
X87423000Y-120072500D01*
X87423000Y-119721500D01*
X87423845Y-119704298D01*
X87426372Y-119687262D01*
X87430557Y-119670555D01*
X87436359Y-119654339D01*
X87443723Y-119638770D01*
X87452577Y-119623997D01*
X87462837Y-119610164D01*
X87474403Y-119597403D01*
X87487164Y-119585837D01*
X87500997Y-119575577D01*
X87515770Y-119566723D01*
X87531339Y-119559359D01*
X87547555Y-119553557D01*
X87564262Y-119549372D01*
X87581298Y-119546845D01*
X87598500Y-119546000D01*
X89299500Y-119546000D01*
X89316702Y-119546845D01*
G37*
G36*
X89316702Y-120816845D02*
G01*
X89333738Y-120819372D01*
X89350445Y-120823557D01*
X89366661Y-120829359D01*
X89382230Y-120836723D01*
X89397003Y-120845577D01*
X89410836Y-120855837D01*
X89423597Y-120867403D01*
X89435163Y-120880164D01*
X89445423Y-120893997D01*
X89454277Y-120908770D01*
X89461641Y-120924339D01*
X89467443Y-120940555D01*
X89471628Y-120957262D01*
X89474155Y-120974298D01*
X89475000Y-120991500D01*
X89475000Y-121342500D01*
X89474155Y-121359702D01*
X89471628Y-121376738D01*
X89467443Y-121393445D01*
X89461641Y-121409661D01*
X89454277Y-121425230D01*
X89445423Y-121440003D01*
X89435163Y-121453836D01*
X89423597Y-121466597D01*
X89410836Y-121478163D01*
X89397003Y-121488423D01*
X89382230Y-121497277D01*
X89366661Y-121504641D01*
X89350445Y-121510443D01*
X89333738Y-121514628D01*
X89316702Y-121517155D01*
X89299500Y-121518000D01*
X87598500Y-121518000D01*
X87581298Y-121517155D01*
X87564262Y-121514628D01*
X87547555Y-121510443D01*
X87531339Y-121504641D01*
X87515770Y-121497277D01*
X87500997Y-121488423D01*
X87487164Y-121478163D01*
X87474403Y-121466597D01*
X87462837Y-121453836D01*
X87452577Y-121440003D01*
X87443723Y-121425230D01*
X87436359Y-121409661D01*
X87430557Y-121393445D01*
X87426372Y-121376738D01*
X87423845Y-121359702D01*
X87423000Y-121342500D01*
X87423000Y-120991500D01*
X87423845Y-120974298D01*
X87426372Y-120957262D01*
X87430557Y-120940555D01*
X87436359Y-120924339D01*
X87443723Y-120908770D01*
X87452577Y-120893997D01*
X87462837Y-120880164D01*
X87474403Y-120867403D01*
X87487164Y-120855837D01*
X87500997Y-120845577D01*
X87515770Y-120836723D01*
X87531339Y-120829359D01*
X87547555Y-120823557D01*
X87564262Y-120819372D01*
X87581298Y-120816845D01*
X87598500Y-120816000D01*
X89299500Y-120816000D01*
X89316702Y-120816845D01*
G37*
G36*
X89316702Y-122086845D02*
G01*
X89333738Y-122089372D01*
X89350445Y-122093557D01*
X89366661Y-122099359D01*
X89382230Y-122106723D01*
X89397003Y-122115577D01*
X89410836Y-122125837D01*
X89423597Y-122137403D01*
X89435163Y-122150164D01*
X89445423Y-122163997D01*
X89454277Y-122178770D01*
X89461641Y-122194339D01*
X89467443Y-122210555D01*
X89471628Y-122227262D01*
X89474155Y-122244298D01*
X89475000Y-122261500D01*
X89475000Y-122612500D01*
X89474155Y-122629702D01*
X89471628Y-122646738D01*
X89467443Y-122663445D01*
X89461641Y-122679661D01*
X89454277Y-122695230D01*
X89445423Y-122710003D01*
X89435163Y-122723836D01*
X89423597Y-122736597D01*
X89410836Y-122748163D01*
X89397003Y-122758423D01*
X89382230Y-122767277D01*
X89366661Y-122774641D01*
X89350445Y-122780443D01*
X89333738Y-122784628D01*
X89316702Y-122787155D01*
X89299500Y-122788000D01*
X87598500Y-122788000D01*
X87581298Y-122787155D01*
X87564262Y-122784628D01*
X87547555Y-122780443D01*
X87531339Y-122774641D01*
X87515770Y-122767277D01*
X87500997Y-122758423D01*
X87487164Y-122748163D01*
X87474403Y-122736597D01*
X87462837Y-122723836D01*
X87452577Y-122710003D01*
X87443723Y-122695230D01*
X87436359Y-122679661D01*
X87430557Y-122663445D01*
X87426372Y-122646738D01*
X87423845Y-122629702D01*
X87423000Y-122612500D01*
X87423000Y-122261500D01*
X87423845Y-122244298D01*
X87426372Y-122227262D01*
X87430557Y-122210555D01*
X87436359Y-122194339D01*
X87443723Y-122178770D01*
X87452577Y-122163997D01*
X87462837Y-122150164D01*
X87474403Y-122137403D01*
X87487164Y-122125837D01*
X87500997Y-122115577D01*
X87515770Y-122106723D01*
X87531339Y-122099359D01*
X87547555Y-122093557D01*
X87564262Y-122089372D01*
X87581298Y-122086845D01*
X87598500Y-122086000D01*
X89299500Y-122086000D01*
X89316702Y-122086845D01*
G37*
G36*
X89316702Y-123356845D02*
G01*
X89333738Y-123359372D01*
X89350445Y-123363557D01*
X89366661Y-123369359D01*
X89382230Y-123376723D01*
X89397003Y-123385577D01*
X89410836Y-123395837D01*
X89423597Y-123407403D01*
X89435163Y-123420164D01*
X89445423Y-123433997D01*
X89454277Y-123448770D01*
X89461641Y-123464339D01*
X89467443Y-123480555D01*
X89471628Y-123497262D01*
X89474155Y-123514298D01*
X89475000Y-123531500D01*
X89475000Y-123882500D01*
X89474155Y-123899702D01*
X89471628Y-123916738D01*
X89467443Y-123933445D01*
X89461641Y-123949661D01*
X89454277Y-123965230D01*
X89445423Y-123980003D01*
X89435163Y-123993836D01*
X89423597Y-124006597D01*
X89410836Y-124018163D01*
X89397003Y-124028423D01*
X89382230Y-124037277D01*
X89366661Y-124044641D01*
X89350445Y-124050443D01*
X89333738Y-124054628D01*
X89316702Y-124057155D01*
X89299500Y-124058000D01*
X87598500Y-124058000D01*
X87581298Y-124057155D01*
X87564262Y-124054628D01*
X87547555Y-124050443D01*
X87531339Y-124044641D01*
X87515770Y-124037277D01*
X87500997Y-124028423D01*
X87487164Y-124018163D01*
X87474403Y-124006597D01*
X87462837Y-123993836D01*
X87452577Y-123980003D01*
X87443723Y-123965230D01*
X87436359Y-123949661D01*
X87430557Y-123933445D01*
X87426372Y-123916738D01*
X87423845Y-123899702D01*
X87423000Y-123882500D01*
X87423000Y-123531500D01*
X87423845Y-123514298D01*
X87426372Y-123497262D01*
X87430557Y-123480555D01*
X87436359Y-123464339D01*
X87443723Y-123448770D01*
X87452577Y-123433997D01*
X87462837Y-123420164D01*
X87474403Y-123407403D01*
X87487164Y-123395837D01*
X87500997Y-123385577D01*
X87515770Y-123376723D01*
X87531339Y-123369359D01*
X87547555Y-123363557D01*
X87564262Y-123359372D01*
X87581298Y-123356845D01*
X87598500Y-123356000D01*
X89299500Y-123356000D01*
X89316702Y-123356845D01*
G37*
G36*
X89316702Y-124626845D02*
G01*
X89333738Y-124629372D01*
X89350445Y-124633557D01*
X89366661Y-124639359D01*
X89382230Y-124646723D01*
X89397003Y-124655577D01*
X89410836Y-124665837D01*
X89423597Y-124677403D01*
X89435163Y-124690164D01*
X89445423Y-124703997D01*
X89454277Y-124718770D01*
X89461641Y-124734339D01*
X89467443Y-124750555D01*
X89471628Y-124767262D01*
X89474155Y-124784298D01*
X89475000Y-124801500D01*
X89475000Y-125152500D01*
X89474155Y-125169702D01*
X89471628Y-125186738D01*
X89467443Y-125203445D01*
X89461641Y-125219661D01*
X89454277Y-125235230D01*
X89445423Y-125250003D01*
X89435163Y-125263836D01*
X89423597Y-125276597D01*
X89410836Y-125288163D01*
X89397003Y-125298423D01*
X89382230Y-125307277D01*
X89366661Y-125314641D01*
X89350445Y-125320443D01*
X89333738Y-125324628D01*
X89316702Y-125327155D01*
X89299500Y-125328000D01*
X87598500Y-125328000D01*
X87581298Y-125327155D01*
X87564262Y-125324628D01*
X87547555Y-125320443D01*
X87531339Y-125314641D01*
X87515770Y-125307277D01*
X87500997Y-125298423D01*
X87487164Y-125288163D01*
X87474403Y-125276597D01*
X87462837Y-125263836D01*
X87452577Y-125250003D01*
X87443723Y-125235230D01*
X87436359Y-125219661D01*
X87430557Y-125203445D01*
X87426372Y-125186738D01*
X87423845Y-125169702D01*
X87423000Y-125152500D01*
X87423000Y-124801500D01*
X87423845Y-124784298D01*
X87426372Y-124767262D01*
X87430557Y-124750555D01*
X87436359Y-124734339D01*
X87443723Y-124718770D01*
X87452577Y-124703997D01*
X87462837Y-124690164D01*
X87474403Y-124677403D01*
X87487164Y-124665837D01*
X87500997Y-124655577D01*
X87515770Y-124646723D01*
X87531339Y-124639359D01*
X87547555Y-124633557D01*
X87564262Y-124629372D01*
X87581298Y-124626845D01*
X87598500Y-124626000D01*
X89299500Y-124626000D01*
X89316702Y-124626845D01*
G37*
G36*
X89316702Y-125896845D02*
G01*
X89333738Y-125899372D01*
X89350445Y-125903557D01*
X89366661Y-125909359D01*
X89382230Y-125916723D01*
X89397003Y-125925577D01*
X89410836Y-125935837D01*
X89423597Y-125947403D01*
X89435163Y-125960164D01*
X89445423Y-125973997D01*
X89454277Y-125988770D01*
X89461641Y-126004339D01*
X89467443Y-126020555D01*
X89471628Y-126037262D01*
X89474155Y-126054298D01*
X89475000Y-126071500D01*
X89475000Y-126422500D01*
X89474155Y-126439702D01*
X89471628Y-126456738D01*
X89467443Y-126473445D01*
X89461641Y-126489661D01*
X89454277Y-126505230D01*
X89445423Y-126520003D01*
X89435163Y-126533836D01*
X89423597Y-126546597D01*
X89410836Y-126558163D01*
X89397003Y-126568423D01*
X89382230Y-126577277D01*
X89366661Y-126584641D01*
X89350445Y-126590443D01*
X89333738Y-126594628D01*
X89316702Y-126597155D01*
X89299500Y-126598000D01*
X87598500Y-126598000D01*
X87581298Y-126597155D01*
X87564262Y-126594628D01*
X87547555Y-126590443D01*
X87531339Y-126584641D01*
X87515770Y-126577277D01*
X87500997Y-126568423D01*
X87487164Y-126558163D01*
X87474403Y-126546597D01*
X87462837Y-126533836D01*
X87452577Y-126520003D01*
X87443723Y-126505230D01*
X87436359Y-126489661D01*
X87430557Y-126473445D01*
X87426372Y-126456738D01*
X87423845Y-126439702D01*
X87423000Y-126422500D01*
X87423000Y-126071500D01*
X87423845Y-126054298D01*
X87426372Y-126037262D01*
X87430557Y-126020555D01*
X87436359Y-126004339D01*
X87443723Y-125988770D01*
X87452577Y-125973997D01*
X87462837Y-125960164D01*
X87474403Y-125947403D01*
X87487164Y-125935837D01*
X87500997Y-125925577D01*
X87515770Y-125916723D01*
X87531339Y-125909359D01*
X87547555Y-125903557D01*
X87564262Y-125899372D01*
X87581298Y-125896845D01*
X87598500Y-125896000D01*
X89299500Y-125896000D01*
X89316702Y-125896845D01*
G37*
G36*
X89316702Y-127166845D02*
G01*
X89333738Y-127169372D01*
X89350445Y-127173557D01*
X89366661Y-127179359D01*
X89382230Y-127186723D01*
X89397003Y-127195577D01*
X89410836Y-127205837D01*
X89423597Y-127217403D01*
X89435163Y-127230164D01*
X89445423Y-127243997D01*
X89454277Y-127258770D01*
X89461641Y-127274339D01*
X89467443Y-127290555D01*
X89471628Y-127307262D01*
X89474155Y-127324298D01*
X89475000Y-127341500D01*
X89475000Y-127692500D01*
X89474155Y-127709702D01*
X89471628Y-127726738D01*
X89467443Y-127743445D01*
X89461641Y-127759661D01*
X89454277Y-127775230D01*
X89445423Y-127790003D01*
X89435163Y-127803836D01*
X89423597Y-127816597D01*
X89410836Y-127828163D01*
X89397003Y-127838423D01*
X89382230Y-127847277D01*
X89366661Y-127854641D01*
X89350445Y-127860443D01*
X89333738Y-127864628D01*
X89316702Y-127867155D01*
X89299500Y-127868000D01*
X87598500Y-127868000D01*
X87581298Y-127867155D01*
X87564262Y-127864628D01*
X87547555Y-127860443D01*
X87531339Y-127854641D01*
X87515770Y-127847277D01*
X87500997Y-127838423D01*
X87487164Y-127828163D01*
X87474403Y-127816597D01*
X87462837Y-127803836D01*
X87452577Y-127790003D01*
X87443723Y-127775230D01*
X87436359Y-127759661D01*
X87430557Y-127743445D01*
X87426372Y-127726738D01*
X87423845Y-127709702D01*
X87423000Y-127692500D01*
X87423000Y-127341500D01*
X87423845Y-127324298D01*
X87426372Y-127307262D01*
X87430557Y-127290555D01*
X87436359Y-127274339D01*
X87443723Y-127258770D01*
X87452577Y-127243997D01*
X87462837Y-127230164D01*
X87474403Y-127217403D01*
X87487164Y-127205837D01*
X87500997Y-127195577D01*
X87515770Y-127186723D01*
X87531339Y-127179359D01*
X87547555Y-127173557D01*
X87564262Y-127169372D01*
X87581298Y-127166845D01*
X87598500Y-127166000D01*
X89299500Y-127166000D01*
X89316702Y-127166845D01*
G37*
D13*
X182118000Y-114300000D03*
D14*
X103378000Y-137160000D03*
X179578000Y-114300000D03*
X105918000Y-137160000D03*
X177038000Y-114300000D03*
X108458000Y-137160000D03*
X174498000Y-114300000D03*
X110998000Y-137160000D03*
X171958000Y-114300000D03*
X113538000Y-137160000D03*
X169418000Y-114300000D03*
X116078000Y-137160000D03*
X166878000Y-114300000D03*
X118618000Y-137160000D03*
X164338000Y-114300000D03*
X121158000Y-137160000D03*
X161798000Y-114300000D03*
X123698000Y-137160000D03*
X159258000Y-114300000D03*
X126238000Y-137160000D03*
X156718000Y-114300000D03*
X128778000Y-137160000D03*
X154178000Y-114300000D03*
X131318000Y-137160000D03*
X151638000Y-114300000D03*
X133858000Y-137160000D03*
X149098000Y-114300000D03*
X136398000Y-137160000D03*
X146558000Y-114300000D03*
X138938000Y-137160000D03*
X144018000Y-114300000D03*
X141478000Y-137160000D03*
X141478000Y-114300000D03*
X144018000Y-137160000D03*
X138938000Y-114300000D03*
X146558000Y-137160000D03*
X136398000Y-114300000D03*
X149098000Y-137160000D03*
X133858000Y-114300000D03*
X151638000Y-137160000D03*
X131318000Y-114300000D03*
X154178000Y-137160000D03*
X128778000Y-114300000D03*
X156718000Y-137160000D03*
X126238000Y-114300000D03*
X159258000Y-137160000D03*
X123698000Y-114300000D03*
X161798000Y-137160000D03*
X121158000Y-114300000D03*
X164338000Y-137160000D03*
X118618000Y-114300000D03*
X166878000Y-137160000D03*
X116078000Y-114300000D03*
X169418000Y-137160000D03*
X113538000Y-114300000D03*
X171958000Y-137160000D03*
X110998000Y-114300000D03*
X174498000Y-137160000D03*
X108458000Y-114300000D03*
X177038000Y-137160000D03*
X105918000Y-114300000D03*
X179578000Y-137160000D03*
X103378000Y-114300000D03*
X182118000Y-137160000D03*
M02*
