G04 #@! TF.GenerationSoftware,KiCad,Pcbnew,(5.1.5)-3*
G04 #@! TF.CreationDate,2021-09-12T14:11:04+10:00*
G04 #@! TF.ProjectId,CDTV_Reromlocator_v3,43445456-5f52-4657-926f-6d6c6f636174,rev?*
G04 #@! TF.SameCoordinates,Original*
G04 #@! TF.FileFunction,Paste,Top*
G04 #@! TF.FilePolarity,Positive*
%FSLAX46Y46*%
G04 Gerber Fmt 4.6, Leading zero omitted, Abs format (unit mm)*
G04 Created by KiCad (PCBNEW (5.1.5)-3) date 2021-09-12 14:11:04*
%MOMM*%
%LPD*%
G04 APERTURE LIST*
%ADD10C,0.100000*%
G04 APERTURE END LIST*
D10*
G36*
X59055504Y-119956204D02*
G01*
X59079773Y-119959804D01*
X59103571Y-119965765D01*
X59126671Y-119974030D01*
X59148849Y-119984520D01*
X59169893Y-119997133D01*
X59189598Y-120011747D01*
X59207777Y-120028223D01*
X59224253Y-120046402D01*
X59238867Y-120066107D01*
X59251480Y-120087151D01*
X59261970Y-120109329D01*
X59270235Y-120132429D01*
X59276196Y-120156227D01*
X59279796Y-120180496D01*
X59281000Y-120205000D01*
X59281000Y-121455000D01*
X59279796Y-121479504D01*
X59276196Y-121503773D01*
X59270235Y-121527571D01*
X59261970Y-121550671D01*
X59251480Y-121572849D01*
X59238867Y-121593893D01*
X59224253Y-121613598D01*
X59207777Y-121631777D01*
X59189598Y-121648253D01*
X59169893Y-121662867D01*
X59148849Y-121675480D01*
X59126671Y-121685970D01*
X59103571Y-121694235D01*
X59079773Y-121700196D01*
X59055504Y-121703796D01*
X59031000Y-121705000D01*
X58106000Y-121705000D01*
X58081496Y-121703796D01*
X58057227Y-121700196D01*
X58033429Y-121694235D01*
X58010329Y-121685970D01*
X57988151Y-121675480D01*
X57967107Y-121662867D01*
X57947402Y-121648253D01*
X57929223Y-121631777D01*
X57912747Y-121613598D01*
X57898133Y-121593893D01*
X57885520Y-121572849D01*
X57875030Y-121550671D01*
X57866765Y-121527571D01*
X57860804Y-121503773D01*
X57857204Y-121479504D01*
X57856000Y-121455000D01*
X57856000Y-120205000D01*
X57857204Y-120180496D01*
X57860804Y-120156227D01*
X57866765Y-120132429D01*
X57875030Y-120109329D01*
X57885520Y-120087151D01*
X57898133Y-120066107D01*
X57912747Y-120046402D01*
X57929223Y-120028223D01*
X57947402Y-120011747D01*
X57967107Y-119997133D01*
X57988151Y-119984520D01*
X58010329Y-119974030D01*
X58033429Y-119965765D01*
X58057227Y-119959804D01*
X58081496Y-119956204D01*
X58106000Y-119955000D01*
X59031000Y-119955000D01*
X59055504Y-119956204D01*
G37*
G36*
X62030504Y-119956204D02*
G01*
X62054773Y-119959804D01*
X62078571Y-119965765D01*
X62101671Y-119974030D01*
X62123849Y-119984520D01*
X62144893Y-119997133D01*
X62164598Y-120011747D01*
X62182777Y-120028223D01*
X62199253Y-120046402D01*
X62213867Y-120066107D01*
X62226480Y-120087151D01*
X62236970Y-120109329D01*
X62245235Y-120132429D01*
X62251196Y-120156227D01*
X62254796Y-120180496D01*
X62256000Y-120205000D01*
X62256000Y-121455000D01*
X62254796Y-121479504D01*
X62251196Y-121503773D01*
X62245235Y-121527571D01*
X62236970Y-121550671D01*
X62226480Y-121572849D01*
X62213867Y-121593893D01*
X62199253Y-121613598D01*
X62182777Y-121631777D01*
X62164598Y-121648253D01*
X62144893Y-121662867D01*
X62123849Y-121675480D01*
X62101671Y-121685970D01*
X62078571Y-121694235D01*
X62054773Y-121700196D01*
X62030504Y-121703796D01*
X62006000Y-121705000D01*
X61081000Y-121705000D01*
X61056496Y-121703796D01*
X61032227Y-121700196D01*
X61008429Y-121694235D01*
X60985329Y-121685970D01*
X60963151Y-121675480D01*
X60942107Y-121662867D01*
X60922402Y-121648253D01*
X60904223Y-121631777D01*
X60887747Y-121613598D01*
X60873133Y-121593893D01*
X60860520Y-121572849D01*
X60850030Y-121550671D01*
X60841765Y-121527571D01*
X60835804Y-121503773D01*
X60832204Y-121479504D01*
X60831000Y-121455000D01*
X60831000Y-120205000D01*
X60832204Y-120180496D01*
X60835804Y-120156227D01*
X60841765Y-120132429D01*
X60850030Y-120109329D01*
X60860520Y-120087151D01*
X60873133Y-120066107D01*
X60887747Y-120046402D01*
X60904223Y-120028223D01*
X60922402Y-120011747D01*
X60942107Y-119997133D01*
X60963151Y-119984520D01*
X60985329Y-119974030D01*
X61008429Y-119965765D01*
X61032227Y-119959804D01*
X61056496Y-119956204D01*
X61081000Y-119955000D01*
X62006000Y-119955000D01*
X62030504Y-119956204D01*
G37*
G36*
X61997004Y-127056204D02*
G01*
X62021273Y-127059804D01*
X62045071Y-127065765D01*
X62068171Y-127074030D01*
X62090349Y-127084520D01*
X62111393Y-127097133D01*
X62131098Y-127111747D01*
X62149277Y-127128223D01*
X62165753Y-127146402D01*
X62180367Y-127166107D01*
X62192980Y-127187151D01*
X62203470Y-127209329D01*
X62211735Y-127232429D01*
X62217696Y-127256227D01*
X62221296Y-127280496D01*
X62222500Y-127305000D01*
X62222500Y-128555000D01*
X62221296Y-128579504D01*
X62217696Y-128603773D01*
X62211735Y-128627571D01*
X62203470Y-128650671D01*
X62192980Y-128672849D01*
X62180367Y-128693893D01*
X62165753Y-128713598D01*
X62149277Y-128731777D01*
X62131098Y-128748253D01*
X62111393Y-128762867D01*
X62090349Y-128775480D01*
X62068171Y-128785970D01*
X62045071Y-128794235D01*
X62021273Y-128800196D01*
X61997004Y-128803796D01*
X61972500Y-128805000D01*
X61047500Y-128805000D01*
X61022996Y-128803796D01*
X60998727Y-128800196D01*
X60974929Y-128794235D01*
X60951829Y-128785970D01*
X60929651Y-128775480D01*
X60908607Y-128762867D01*
X60888902Y-128748253D01*
X60870723Y-128731777D01*
X60854247Y-128713598D01*
X60839633Y-128693893D01*
X60827020Y-128672849D01*
X60816530Y-128650671D01*
X60808265Y-128627571D01*
X60802304Y-128603773D01*
X60798704Y-128579504D01*
X60797500Y-128555000D01*
X60797500Y-127305000D01*
X60798704Y-127280496D01*
X60802304Y-127256227D01*
X60808265Y-127232429D01*
X60816530Y-127209329D01*
X60827020Y-127187151D01*
X60839633Y-127166107D01*
X60854247Y-127146402D01*
X60870723Y-127128223D01*
X60888902Y-127111747D01*
X60908607Y-127097133D01*
X60929651Y-127084520D01*
X60951829Y-127074030D01*
X60974929Y-127065765D01*
X60998727Y-127059804D01*
X61022996Y-127056204D01*
X61047500Y-127055000D01*
X61972500Y-127055000D01*
X61997004Y-127056204D01*
G37*
G36*
X59022004Y-127056204D02*
G01*
X59046273Y-127059804D01*
X59070071Y-127065765D01*
X59093171Y-127074030D01*
X59115349Y-127084520D01*
X59136393Y-127097133D01*
X59156098Y-127111747D01*
X59174277Y-127128223D01*
X59190753Y-127146402D01*
X59205367Y-127166107D01*
X59217980Y-127187151D01*
X59228470Y-127209329D01*
X59236735Y-127232429D01*
X59242696Y-127256227D01*
X59246296Y-127280496D01*
X59247500Y-127305000D01*
X59247500Y-128555000D01*
X59246296Y-128579504D01*
X59242696Y-128603773D01*
X59236735Y-128627571D01*
X59228470Y-128650671D01*
X59217980Y-128672849D01*
X59205367Y-128693893D01*
X59190753Y-128713598D01*
X59174277Y-128731777D01*
X59156098Y-128748253D01*
X59136393Y-128762867D01*
X59115349Y-128775480D01*
X59093171Y-128785970D01*
X59070071Y-128794235D01*
X59046273Y-128800196D01*
X59022004Y-128803796D01*
X58997500Y-128805000D01*
X58072500Y-128805000D01*
X58047996Y-128803796D01*
X58023727Y-128800196D01*
X57999929Y-128794235D01*
X57976829Y-128785970D01*
X57954651Y-128775480D01*
X57933607Y-128762867D01*
X57913902Y-128748253D01*
X57895723Y-128731777D01*
X57879247Y-128713598D01*
X57864633Y-128693893D01*
X57852020Y-128672849D01*
X57841530Y-128650671D01*
X57833265Y-128627571D01*
X57827304Y-128603773D01*
X57823704Y-128579504D01*
X57822500Y-128555000D01*
X57822500Y-127305000D01*
X57823704Y-127280496D01*
X57827304Y-127256227D01*
X57833265Y-127232429D01*
X57841530Y-127209329D01*
X57852020Y-127187151D01*
X57864633Y-127166107D01*
X57879247Y-127146402D01*
X57895723Y-127128223D01*
X57913902Y-127111747D01*
X57933607Y-127097133D01*
X57954651Y-127084520D01*
X57976829Y-127074030D01*
X57999929Y-127065765D01*
X58023727Y-127059804D01*
X58047996Y-127056204D01*
X58072500Y-127055000D01*
X58997500Y-127055000D01*
X59022004Y-127056204D01*
G37*
M02*
